<svg xmlns="http://www.w3.org/2000/svg" width="77" height="80.21" viewBox="0 0 77 80.21">
  <metadata><?xpacket begin="﻿" id="W5M0MpCehiHzreSzNTczkc9d"?>
<x:xmpmeta xmlns:x="adobe:ns:meta/" x:xmptk="Adobe XMP Core 5.6-c138 79.159824, 2016/09/14-01:09:01        ">
   <rdf:RDF xmlns:rdf="http://www.w3.org/1999/02/22-rdf-syntax-ns#">
      <rdf:Description rdf:about=""/>
   </rdf:RDF>
</x:xmpmeta>
                                                                                                    
                                                                                                    
                                                                                                    
                                                                                                    
                                                                                                    
                                                                                                    
                                                                                                    
                                                                                                    
                                                                                                    
                                                                                                    
                                                                                                    
                                                                                                    
                                                                                                    
                                                                                                    
                                                                                                    
                                                                                                    
                                                                                                    
                                                                                                    
                                                                                                    
                                                                                                    
                           
<?xpacket end="w"?></metadata>
<defs>
    <style>
      .cls-1 {
        fill: #fff;
        fill-rule: evenodd;
      }
    </style>
  </defs>
  <path id="icon_office" class="cls-1" d="M1376.18,1958.04a1.675,1.675,0,0,0,.46-0.41,6.5,6.5,0,0,0,.62-1.01,4.013,4.013,0,0,1,.68-1.01,1.251,1.251,0,0,1,.87-0.29h0.76v-2.21c-0.08,0-.22,0-0.4-0.01s-0.39-.01-0.62-0.01a3.187,3.187,0,0,0-1.76.39,4.1,4.1,0,0,0-1.11,1.32c-0.08.15-.18,0.33-0.3,0.56s-0.23.42-.32,0.58a6.432,6.432,0,0,1-.45.67,2.61,2.61,0,0,1-.39.41,1.384,1.384,0,0,1-.39.18,3.539,3.539,0,0,1-.54.06v-4.15h-2.62v10.18h2.62v-4.11h0.65l3,4.11h3.22Zm14.51-4.93h-7.98c-0.01.72-.03,1.36-0.04,1.92s-0.04,1.07-.07,1.55a20.516,20.516,0,0,1-.29,2.78,2.574,2.574,0,0,1-.71,1.46,0.867,0.867,0,0,1-.33.17,2.658,2.658,0,0,1-.57.04h-0.18c-0.05-.01-0.1-0.01-0.14-0.02h-0.1v2.28c0.07,0.01.23,0.02,0.47,0.04s0.48,0.03.71,0.03a2.888,2.888,0,0,0,1.06-.19,2.4,2.4,0,0,0,.83-0.52,3.117,3.117,0,0,0,.52-0.63,4.53,4.53,0,0,0,.49-1.01,8.825,8.825,0,0,0,.41-1.54,19.386,19.386,0,0,0,.27-2.32q0.045-.63.06-1.02c0.02-.25.03-0.6,0.06-1.05h2.91v8.21h2.62v-10.18Zm8.25,0h-3.03l-3.75,10.18h2.64l0.71-2.06h3.77l0.7,2.06h2.71Zm-2.8,6.26,1.25-3.65,1.25,3.65h-2.5Zm13.82,4.04a8.32,8.32,0,0,0,.94-0.22,5.7,5.7,0,0,0,.73-0.25c0.23-.11.47-0.21,0.73-0.33v-2.43h-0.27c-0.13.11-.28,0.24-0.48,0.39a4.8,4.8,0,0,1-.62.42,3.961,3.961,0,0,1-.86.39,3.413,3.413,0,0,1-.95.14,3.274,3.274,0,0,1-1.01-.16,2.578,2.578,0,0,1-.93-0.54,2.756,2.756,0,0,1-.68-1.01,4.056,4.056,0,0,1-.27-1.59,4.253,4.253,0,0,1,.25-1.56,2.934,2.934,0,0,1,.65-1.03,2.433,2.433,0,0,1,.92-0.57,3.147,3.147,0,0,1,1.06-.18,2.833,2.833,0,0,1,.93.15,4.36,4.36,0,0,1,.82.37,6.876,6.876,0,0,1,.66.44q0.285,0.225.48,0.39h0.3v-2.47c-0.19-.09-0.41-0.19-0.65-0.3s-0.53-.2-0.83-0.29a8.215,8.215,0,0,0-.96-0.18,8.023,8.023,0,0,0-1.16-.08,6.2,6.2,0,0,0-2.14.37,4.537,4.537,0,0,0-1.64,1.05,4.648,4.648,0,0,0-1.05,1.69,6.062,6.062,0,0,0-.37,2.19,6.426,6.426,0,0,0,.38,2.29,4.531,4.531,0,0,0,1.07,1.66,4.44,4.44,0,0,0,1.65.99,6.168,6.168,0,0,0,2.1.34A7.349,7.349,0,0,0,1409.96,1963.41Zm10.13,0a7.712,7.712,0,0,0,.93-0.22,5.846,5.846,0,0,0,.74-0.25c0.23-.11.47-0.21,0.73-0.33v-2.43h-0.28c-0.12.11-.28,0.24-0.47,0.39a5.6,5.6,0,0,1-.62.42,3.961,3.961,0,0,1-.86.39,3.468,3.468,0,0,1-.95.14,3.274,3.274,0,0,1-1.01-.16,2.578,2.578,0,0,1-.93-0.54,2.756,2.756,0,0,1-.68-1.01,4.056,4.056,0,0,1-.27-1.59,4.253,4.253,0,0,1,.25-1.56,2.8,2.8,0,0,1,.65-1.03,2.433,2.433,0,0,1,.92-0.57,3.147,3.147,0,0,1,1.06-.18,2.833,2.833,0,0,1,.93.15,4.669,4.669,0,0,1,.82.37,5.656,5.656,0,0,1,.65.44c0.2,0.15.36,0.28,0.49,0.39h0.3v-2.47q-0.285-.135-0.66-0.3a7.9,7.9,0,0,0-.83-0.29,7.662,7.662,0,0,0-.95-0.18,8.023,8.023,0,0,0-1.16-.08,6.163,6.163,0,0,0-2.14.37,4.537,4.537,0,0,0-1.64,1.05,4.808,4.808,0,0,0-1.06,1.69,6.288,6.288,0,0,0-.36,2.19,6.426,6.426,0,0,0,.38,2.29,4.531,4.531,0,0,0,1.07,1.66,4.44,4.44,0,0,0,1.65.99,6.168,6.168,0,0,0,2.1.34A7.349,7.349,0,0,0,1420.09,1963.41Zm-33.08,13.71-2.06-1.53,2.06-1.52v-2.1l-4.11,3.16v0.92l4.11,3.17v-2.1Zm4.28,0-2.06-1.53,2.06-1.52v-2.1l-4.11,3.16v0.92l4.11,3.17v-2.1Zm11.44-1.79a2.892,2.892,0,0,0-1.59-.82v-0.05a2.5,2.5,0,0,0,1.1-.88,2.24,2.24,0,0,0,.39-1.3,2.2,2.2,0,0,0-.28-1.13,1.976,1.976,0,0,0-.87-0.79,3.743,3.743,0,0,0-1.13-.37,15.071,15.071,0,0,0-1.8-.08h-3.95v10.18h4.44a7.183,7.183,0,0,0,1.83-.19,3.991,3.991,0,0,0,1.33-.64,2.826,2.826,0,0,0,.81-0.97,2.793,2.793,0,0,0,.3-1.32A2.345,2.345,0,0,0,1402.73,1975.33Zm-2.89-1.96a0.87,0.87,0,0,1-.47.4,1.783,1.783,0,0,1-.69.14c-0.29.01-.64,0.02-1.06,0.02h-0.41v-2.15h0.25c0.51,0,.91,0,1.2.01a2.329,2.329,0,0,1,.71.12,0.775,0.775,0,0,1,.45.37,1.2,1.2,0,0,1,.13.51A1.5,1.5,0,0,1,1399.84,1973.37Zm0.59,4.22a1.09,1.09,0,0,1-.56.45,2.557,2.557,0,0,1-.88.18h-1.78v-2.53h0.58c0.39,0,.76,0,1.12.01a3.191,3.191,0,0,1,.85.09,1.211,1.211,0,0,1,.64.39,1.342,1.342,0,0,1,.18.75A1.4,1.4,0,0,1,1400.43,1977.59Zm13.94-2.46-4.11-3.16v2.1l2.06,1.52-2.06,1.53v2.1l4.11-3.17v-0.92Zm-4.28,0-4.11-3.16v2.1l2.06,1.52-2.06,1.53v2.1l4.11-3.17v-0.92Zm1.94-64.95a5.854,5.854,0,1,0-7.62.01,8.026,8.026,0,0,0-1.64,1.14,10.3,10.3,0,0,0-2.29-1.29,5.86,5.86,0,1,0-7.96,0,10.3,10.3,0,0,0-2.29,1.29,8.026,8.026,0,0,0-1.64-1.14,5.856,5.856,0,1,0-7.62-.01,8.212,8.212,0,0,0-4.47,7.28v4.68a1.183,1.183,0,0,0,.81,1.12l4.82,1.57a15.722,15.722,0,0,0,.64,1.58l-2.22,4.47a1.157,1.157,0,0,0,.22,1.35l3.3,3.3a1.157,1.157,0,0,0,1.35.22l4.47-2.22a15.512,15.512,0,0,0,1.57.64l1.58,4.89a1.17,1.17,0,0,0,1.12.81h4.68a1.17,1.17,0,0,0,1.12-.81l1.58-4.89a15.512,15.512,0,0,0,1.57-.64l4.47,2.22a1.157,1.157,0,0,0,1.35-.22l3.3-3.3a1.157,1.157,0,0,0,.22-1.35l-2.22-4.47a15.722,15.722,0,0,0,.64-1.58l4.82-1.57a1.183,1.183,0,0,0,.81-1.12v-4.68A8.212,8.212,0,0,0,1412.03,1910.18Zm-3.81-7.95a3.515,3.515,0,1,1-3.52,3.51A3.515,3.515,0,0,1,1408.22,1902.23Zm-11.72,0a3.515,3.515,0,1,1-3.52,3.51A3.508,3.508,0,0,1,1396.5,1902.23Zm0,9.37a8.219,8.219,0,0,1,8.12,7.03h-16.24A8.219,8.219,0,0,1,1396.5,1911.6Zm0,14.06a5.876,5.876,0,0,0,5.74-4.7h2.38a8.2,8.2,0,0,1-16.24.01h2.38A5.867,5.867,0,0,0,1396.5,1925.66Zm-3.31-4.7h6.62A3.5,3.5,0,0,1,1393.19,1920.96Zm-8.41-18.73a3.515,3.515,0,1,1-3.51,3.51A3.517,3.517,0,0,1,1384.78,1902.23Zm-5.93,15.23a5.914,5.914,0,0,1,9.65-4.53,10.585,10.585,0,0,0-2.48,5.7h-7.17v-1.17Zm35.3,3.83-4.56,1.5a1.127,1.127,0,0,0-.75.75,14.4,14.4,0,0,1-.96,2.32,1.186,1.186,0,0,0-.01,1.07l2.11,4.24-2.11,2.11-4.24-2.11a1.186,1.186,0,0,0-1.07.01,14.4,14.4,0,0,1-2.32.96,1.127,1.127,0,0,0-.75.75l-1.5,4.64h-2.98l-1.5-4.64a1.127,1.127,0,0,0-.75-0.75,14.4,14.4,0,0,1-2.32-.96,1.186,1.186,0,0,0-1.07-.01l-4.24,2.11-2.11-2.11,2.11-4.24a1.186,1.186,0,0,0-.01-1.07,14.4,14.4,0,0,1-.96-2.32,1.127,1.127,0,0,0-.75-0.75l-4.56-1.5v-0.32h7.17a10.544,10.544,0,0,0,20.96,0h7.17v0.32Zm0-2.66h-7.17a10.585,10.585,0,0,0-2.48-5.7,5.914,5.914,0,0,1,9.65,4.53v1.17Z" transform="translate(-1358.08 -1899.88)"/>
</svg>
