<svg xmlns="http://www.w3.org/2000/svg" width="77" height="81" viewBox="0 0 77 81">
  <metadata><?xpacket begin="﻿" id="W5M0MpCehiHzreSzNTczkc9d"?>
<x:xmpmeta xmlns:x="adobe:ns:meta/" x:xmptk="Adobe XMP Core 5.6-c138 79.159824, 2016/09/14-01:09:01        ">
   <rdf:RDF xmlns:rdf="http://www.w3.org/1999/02/22-rdf-syntax-ns#">
      <rdf:Description rdf:about=""/>
   </rdf:RDF>
</x:xmpmeta>
                                                                                                    
                                                                                                    
                                                                                                    
                                                                                                    
                                                                                                    
                                                                                                    
                                                                                                    
                                                                                                    
                                                                                                    
                                                                                                    
                                                                                                    
                                                                                                    
                                                                                                    
                                                                                                    
                                                                                                    
                                                                                                    
                                                                                                    
                                                                                                    
                                                                                                    
                                                                                                    
                           
<?xpacket end="w"?></metadata>
<defs>
    <style>
      .cls-1 {
        fill: #fefefe;
        fill-rule: evenodd;
      }
    </style>
  </defs>
  <path id="_1995" data-name="1995" class="cls-1" d="M532.014,1914.46V1910h-3.34v4.46h-11.5V1910h-3.34v4.46h-11.5V1910h-3.34v4.46H487V1967h57v-52.54H532.014Zm8.646,49.2H490.34v-32.99h50.32v32.99Zm0-36.33H490.34v-9.53h8.646v4.61h3.34v-4.61h11.5v4.61h3.34v-4.61h11.5v4.61h3.34v-4.61h8.646v9.53Zm-37.271,21.85h-2.1v-8.43h-2.262a1.41,1.41,0,0,1-.205.68,1.352,1.352,0,0,1-.534.45,2.713,2.713,0,0,1-.752.2,7.142,7.142,0,0,1-.943.06v1.66h2.147v5.38h-2.147v1.78h6.8v-1.78Zm10.063-6.11a3.67,3.67,0,0,0-.937-1.49,3.318,3.318,0,0,0-1.268-.77,5.415,5.415,0,0,0-1.685-.25,4.307,4.307,0,0,0-2.984,1.03,3.443,3.443,0,0,0-1.138,2.67,3.663,3.663,0,0,0,.338,1.67,2.8,2.8,0,0,0,1.86,1.49,3.953,3.953,0,0,0,1.1.14,3.845,3.845,0,0,0,1.268-.18,6.626,6.626,0,0,0,1.1-.52,3.137,3.137,0,0,1-.349,1.11,2.408,2.408,0,0,1-.663.77,2.44,2.44,0,0,1-.882.42,4.085,4.085,0,0,1-1.046.13,3.609,3.609,0,0,1-1.035-.11,4.46,4.46,0,0,1-.585-0.2h-0.273v2a6.754,6.754,0,0,0,.772.11,10.826,10.826,0,0,0,1.094.06,7.077,7.077,0,0,0,2.5-.4,4.515,4.515,0,0,0,1.8-1.22,4.863,4.863,0,0,0,1-1.86,8.283,8.283,0,0,0,.328-2.38A6.892,6.892,0,0,0,513.452,1943.07Zm-2.314,2.26c-0.007.1-.011,0.17-0.011,0.22a3.713,3.713,0,0,1-.56.16,3.354,3.354,0,0,1-.67.08,3.143,3.143,0,0,1-.708-0.08,1.493,1.493,0,0,1-.564-0.26,1.293,1.293,0,0,1-.4-0.52,1.94,1.94,0,0,1-.144-0.8,2.43,2.43,0,0,1,.134-0.85,1.67,1.67,0,0,1,.345-0.58,1.3,1.3,0,0,1,.468-0.31,1.266,1.266,0,0,1,.509-0.1,1.662,1.662,0,0,1,.547.1,1.159,1.159,0,0,1,.458.31,2.08,2.08,0,0,1,.441.84,4.868,4.868,0,0,1,.161,1.37C511.148,1945.1,511.144,1945.24,511.138,1945.33Zm12.267-2.26a3.67,3.67,0,0,0-.937-1.49,3.318,3.318,0,0,0-1.268-.77,5.415,5.415,0,0,0-1.685-.25,4.309,4.309,0,0,0-2.984,1.03,3.443,3.443,0,0,0-1.138,2.67,3.663,3.663,0,0,0,.338,1.67,2.8,2.8,0,0,0,1.86,1.49,3.953,3.953,0,0,0,1.1.14,3.845,3.845,0,0,0,1.268-.18,6.626,6.626,0,0,0,1.1-.52,3.137,3.137,0,0,1-.349,1.11,2.408,2.408,0,0,1-.663.77,2.44,2.44,0,0,1-.882.42,4.079,4.079,0,0,1-1.046.13,3.609,3.609,0,0,1-1.035-.11,4.46,4.46,0,0,1-.585-0.2h-0.273v2a6.754,6.754,0,0,0,.772.11,10.826,10.826,0,0,0,1.094.06,7.07,7.07,0,0,0,2.5-.4,4.508,4.508,0,0,0,1.8-1.22,4.849,4.849,0,0,0,1-1.86,8.283,8.283,0,0,0,.328-2.38A6.892,6.892,0,0,0,523.405,1943.07Zm-2.314,2.26c-0.007.1-.011,0.17-0.011,0.22a3.713,3.713,0,0,1-.56.16,3.354,3.354,0,0,1-.67.08,3.143,3.143,0,0,1-.708-0.08,1.493,1.493,0,0,1-.564-0.26,1.293,1.293,0,0,1-.4-0.52,1.94,1.94,0,0,1-.144-0.8,2.43,2.43,0,0,1,.134-0.85,1.686,1.686,0,0,1,.345-0.58,1.3,1.3,0,0,1,.468-0.31,1.266,1.266,0,0,1,.509-0.1,1.662,1.662,0,0,1,.547.1,1.152,1.152,0,0,1,.458.31,2.08,2.08,0,0,1,.441.84,4.868,4.868,0,0,1,.161,1.37C521.1,1945.1,521.1,1945.24,521.091,1945.33Zm12.233,0.62a2.694,2.694,0,0,0-.971-0.99,4.223,4.223,0,0,0-1.138-.45,6.767,6.767,0,0,0-1.5-.16c-0.164,0-.354,0-0.571.01s-0.395.02-.536,0.03v-1.67h4.771v-1.94h-7.239v5.74h0.3c0.282-.07.612-0.14,0.988-0.21a6.427,6.427,0,0,1,1.179-.11,6.711,6.711,0,0,1,.943.08,2.17,2.17,0,0,1,.889.29,1.368,1.368,0,0,1,.413.42,1.114,1.114,0,0,1,.161.61,1.5,1.5,0,0,1-.12.68,1.96,1.96,0,0,1-.352.43,1.63,1.63,0,0,1-.8.35,4.555,4.555,0,0,1-.933.1,4.487,4.487,0,0,1-1.429-.24,7.353,7.353,0,0,1-1.34-.62h-0.287v2.25a6.968,6.968,0,0,0,1.378.42,9.951,9.951,0,0,0,2.068.2,6.591,6.591,0,0,0,1.862-.25,4.313,4.313,0,0,0,1.446-.77,3.22,3.22,0,0,0,.865-1.17,3.609,3.609,0,0,0,.3-1.47A3.191,3.191,0,0,0,533.324,1945.95Z" transform="translate(-477 -1898)"/>
</svg>
