<svg xmlns="http://www.w3.org/2000/svg" width="15" height="16" viewBox="0 0 15 16">
  <metadata><?xpacket begin="﻿" id="W5M0MpCehiHzreSzNTczkc9d"?>
<x:xmpmeta xmlns:x="adobe:ns:meta/" x:xmptk="Adobe XMP Core 5.6-c138 79.159824, 2016/09/14-01:09:01        ">
   <rdf:RDF xmlns:rdf="http://www.w3.org/1999/02/22-rdf-syntax-ns#">
      <rdf:Description rdf:about=""/>
   </rdf:RDF>
</x:xmpmeta>
                                                                                                    
                                                                                                    
                                                                                                    
                                                                                                    
                                                                                                    
                                                                                                    
                                                                                                    
                                                                                                    
                                                                                                    
                                                                                                    
                                                                                                    
                                                                                                    
                                                                                                    
                                                                                                    
                                                                                                    
                                                                                                    
                                                                                                    
                                                                                                    
                                                                                                    
                                                                                                    
                           
<?xpacket end="w"?></metadata>
<defs>
    <style>
      .cls-1 {
        fill: #fff;
        fill-rule: evenodd;
      }
    </style>
  </defs>
  <path id="icon_mail_f" class="cls-1" d="M761.475,5147.04l-11.276,5.65a0.365,0.365,0,0,0-.193.3,0.358,0.358,0,0,0,.166.32l2.641,1.62v3.69a0.339,0.339,0,0,0,.24.33,0.348,0.348,0,0,0,.392-0.12l1.8-2.4,4.05,2.49a0.341,0.341,0,0,0,.325.02,0.331,0.331,0,0,0,.2-0.25l2.153-11.27v-0.01a0.353,0.353,0,0,0-.3-0.4A0.332,0.332,0,0,0,761.475,5147.04Zm-8.329,7.27-2.069-1.27,8.259-4.14Zm0.369,3.26v-2.65l5.815-5.08c-0.13.17-5.666,7.53-5.818,7.73h0Zm5.719,0.49-3.561-2.19,5.335-7.09Z" transform="translate(-748.485 -5144.985)"/>
</svg>
