<svg xmlns="http://www.w3.org/2000/svg" width="49.031" height="40" viewBox="0 0 49.031 40">
  <metadata><?xpacket begin="﻿" id="W5M0MpCehiHzreSzNTczkc9d"?>
<x:xmpmeta xmlns:x="adobe:ns:meta/" x:xmptk="Adobe XMP Core 5.6-c138 79.159824, 2016/09/14-01:09:01        ">
   <rdf:RDF xmlns:rdf="http://www.w3.org/1999/02/22-rdf-syntax-ns#">
      <rdf:Description rdf:about=""/>
   </rdf:RDF>
</x:xmpmeta>
                                                                                                    
                                                                                                    
                                                                                                    
                                                                                                    
                                                                                                    
                                                                                                    
                                                                                                    
                                                                                                    
                                                                                                    
                                                                                                    
                                                                                                    
                                                                                                    
                                                                                                    
                                                                                                    
                                                                                                    
                                                                                                    
                                                                                                    
                                                                                                    
                                                                                                    
                                                                                                    
                           
<?xpacket end="w"?></metadata>
<defs>
    <style>
      .cls-1 {
        fill: #fff;
        fill-rule: evenodd;
      }
    </style>
  </defs>
  <path id="icon_tractor" class="cls-1" d="M680.4,222.388a2.45,2.45,0,1,0,2.451,2.449A2.452,2.452,0,0,0,680.4,222.388Zm7.352,0h-0.1a10.552,10.552,0,0,0-.68-1.366l0,0a0.817,0.817,0,0,0,0-1.155l-1.6-1.6a0.841,0.841,0,0,0-1.155,0l0,0a10.407,10.407,0,0,0-1.367-.678v-0.1a0.816,0.816,0,0,0-.817-0.816h-3.267a0.816,0.816,0,0,0-.817.816v0.1a10.407,10.407,0,0,0-1.367.678l0,0a0.817,0.817,0,0,0-1.155,0l-1.6,1.6a0.817,0.817,0,0,0,0,1.155l0,0a10.7,10.7,0,0,0-.681,1.366h-0.1a0.817,0.817,0,0,0-.817.817v3.265a0.816,0.816,0,0,0,.817.816h0.1a10.631,10.631,0,0,0,.681,1.366l0,0a0.817,0.817,0,0,0,0,1.155l1.6,1.6a0.818,0.818,0,0,0,1.155,0l0,0a10.3,10.3,0,0,0,1.367.679v0.1a0.816,0.816,0,0,0,.817.816h3.267a0.816,0.816,0,0,0,.817-0.816v-0.1a10.3,10.3,0,0,0,1.367-.679l0,0a0.818,0.818,0,0,0,1.155,0l1.6-1.6a0.817,0.817,0,0,0,0-1.155l0,0a10.489,10.489,0,0,0,.68-1.366h0.1a0.816,0.816,0,0,0,.817-0.816v-3.265A0.817,0.817,0,0,0,687.752,222.388Zm-7.352,6.531a4.082,4.082,0,1,1,4.085-4.082A4.087,4.087,0,0,1,680.4,228.919Zm-33.491-6.531a3.266,3.266,0,1,0,3.268,3.266A3.27,3.27,0,0,0,646.909,222.388ZM677.133,197.9h6.535v8.163h-6.535V197.9Zm-4.412,20.87a9.971,9.971,0,0,1,1.5-1.528c0.08-.065.166-0.123,0.248-0.185,0.185-.142.373-0.28,0.566-0.407,0.129-.085.263-0.162,0.395-0.24,0.159-.094.318-0.186,0.482-0.271,0.147-.076.3-0.147,0.447-0.215s0.328-.143.5-0.208c0.151-.059.3-0.116,0.458-0.168,0.182-.06.367-0.112,0.553-0.161,0.146-.04.291-0.08,0.439-0.113,0.218-.047.441-0.082,0.663-0.114,0.122-.018.242-0.043,0.367-0.056a9.831,9.831,0,0,1,1.062-.06c0.279,0,.555.016,0.829,0.039,0.1,0.009.2,0.02,0.3,0.033,0.167,0.018.332,0.043,0.5,0.071,0.126,0.021.254,0.041,0.38,0.067,0.1,0.021.192,0.048,0.289,0.071a9.77,9.77,0,0,1,1,.3c0.024,0.01.049,0.017,0.073,0.026a9.951,9.951,0,0,1,1.835.9c0.011,0.007.025,0.007,0.037,0.013a9.953,9.953,0,0,1,1.54,1.2,0.817,0.817,0,1,0,1.131-1.178,11.429,11.429,0,0,0-1.261-1.032l1.452-3.466a0.805,0.805,0,0,0,.063-0.315v-17.96a0.817,0.817,0,0,0-.817-0.817H664.88a0.817,0.817,0,0,0-.817.817v2.449h8.985a0.816,0.816,0,0,1,.817.816v9.8a0.816,0.816,0,0,1-.817.816H659.162v-4.9a0.816,0.816,0,0,0-.817-0.816h-0.817v-2.45a1.635,1.635,0,0,1,1.634-1.632,0.817,0.817,0,1,0,0-1.633,3.27,3.27,0,0,0-3.267,3.265v2.45h-0.817a0.816,0.816,0,0,0-.817.816v4.9h-8.169a4.087,4.087,0,0,0-4.084,4.082v8.418a7.343,7.343,0,1,0,12.063,7.094h15.164a11.421,11.421,0,0,0,.608,1.952,0.819,0.819,0,0,0,.754.5,0.835,0.835,0,0,0,.315-0.063,0.816,0.816,0,0,0,.439-1.068,9.745,9.745,0,0,1-.625-2.253,0.045,0.045,0,0,0,0-.011c-0.042-.267-0.071-0.512-0.092-0.747-0.019-.253-0.037-0.505-0.037-0.761s0.019-.522.039-0.78c0.021-.23.05-0.467,0.09-0.728a9.819,9.819,0,0,1,1.234-3.451c0.022-.037.045-0.073,0.067-0.109a9.483,9.483,0,0,1,.615-0.9C672.669,218.837,672.694,218.8,672.721,218.767ZM675.5,197.08a0.816,0.816,0,0,1,.817-0.816h8.168a0.816,0.816,0,0,1,.817.816v9.8a0.816,0.816,0,0,1-.817.816h-8.168a0.816,0.816,0,0,1-.817-0.816v-9.8Zm-12.253,22.043h4.085a0.816,0.816,0,1,1,0,1.632h-4.085A0.816,0.816,0,1,1,663.246,219.123Zm-7.352-5.715v-9.8h1.634v12.246h-1.634v-2.449Zm-3.317,12.961s0,0,0,0a5.715,5.715,0,1,1-9.2-5.2,5.855,5.855,0,0,1,.72-0.485c0.023-.013.044-0.028,0.066-0.04a5.548,5.548,0,0,1,.751-0.338c0.061-.023.121-0.047,0.183-0.067a5.56,5.56,0,0,1,.776-0.2c0.058-.011.117-0.018,0.176-0.027a5.726,5.726,0,0,1,.861-0.072,5.859,5.859,0,0,1,.764.057c0.068,0.009.136,0.02,0.2,0.031a5.677,5.677,0,0,1,.641.146c0.051,0.015.1,0.029,0.152,0.046a5.759,5.759,0,0,1,.585.228c0.087,0.04.173,0.081,0.258,0.125,0.145,0.074.286,0.156,0.424,0.242,0.113,0.071.223,0.146,0.331,0.225,0.126,0.091.248,0.186,0.365,0.287,0.08,0.069.157,0.139,0.233,0.211a5.476,5.476,0,0,1,.4.429c0.047,0.056.092,0.114,0.137,0.171a5.876,5.876,0,0,1,.358.514c0.031,0.049.062,0.1,0.09,0.149a5.862,5.862,0,0,1,.348.7c0.011,0.028.019,0.055,0.031,0.083,0.055,0.144.107,0.287,0.151,0.434,0.013,0.044.022,0.089,0.035,0.133,0.036,0.131.071,0.262,0.1,0.395,0.016,0.083.025,0.168,0.038,0.251,0.015,0.1.033,0.195,0.043,0.294,0.018,0.185.028,0.372,0.028,0.562A5.639,5.639,0,0,1,652.577,226.369Zm-8.935-13.777v-0.817a2.452,2.452,0,0,1,2.45-2.449h8.169v3.266H643.642ZM669,225.654H654.261a7.655,7.655,0,0,0-.044-0.791c-0.009-.071-0.023-0.142-0.033-0.213-0.026-.192-0.056-0.383-0.1-0.571,0-.02-0.006-0.039-0.011-0.058H669c-0.023.283-.035,0.554-0.035,0.816S668.975,225.371,669,225.654Zm0.782-8.164H665.7a0.817,0.817,0,1,1,0-1.633h4.084A0.817,0.817,0,1,1,669.781,217.49ZM664.063,197.9h8.169v8.163h-8.169V197.9Z" transform="translate(-639.563 -193)"/>
</svg>
