<svg xmlns="http://www.w3.org/2000/svg" width="35.35" height="40" viewBox="0 0 35.35 40">
  <metadata><?xpacket begin="﻿" id="W5M0MpCehiHzreSzNTczkc9d"?>
<x:xmpmeta xmlns:x="adobe:ns:meta/" x:xmptk="Adobe XMP Core 5.6-c138 79.159824, 2016/09/14-01:09:01        ">
   <rdf:RDF xmlns:rdf="http://www.w3.org/1999/02/22-rdf-syntax-ns#">
      <rdf:Description rdf:about=""/>
   </rdf:RDF>
</x:xmpmeta>
                                                                                                    
                                                                                                    
                                                                                                    
                                                                                                    
                                                                                                    
                                                                                                    
                                                                                                    
                                                                                                    
                                                                                                    
                                                                                                    
                                                                                                    
                                                                                                    
                                                                                                    
                                                                                                    
                                                                                                    
                                                                                                    
                                                                                                    
                                                                                                    
                                                                                                    
                                                                                                    
                           
<?xpacket end="w"?></metadata>
<defs>
    <style>
      .cls-1 {
        fill: #fff;
        fill-rule: evenodd;
      }
    </style>
  </defs>
  <path id="icon_tire" class="cls-1" d="M1278.83,230.9a4.965,4.965,0,0,1-1.42-.02c-0.11-.052.13-0.3,0.43-0.546,0.34-.284.03-0.575-0.14-0.723a18.612,18.612,0,0,1-1.58-1.607,1.186,1.186,0,0,0-.97-0.42,16.254,16.254,0,0,1-2.12-.012,3.5,3.5,0,0,1,1.05-.994,0.818,0.818,0,0,0,.15-1.146,20.908,20.908,0,0,1-1.24-2.38,0.9,0.9,0,0,0-.84-0.51c-0.84-.012-1.78.045-1.91-0.015a5.615,5.615,0,0,1,1.37-1.355,1.044,1.044,0,0,0,.28-1.138c-0.23-.961-0.49-1.932-0.65-2.941a0.817,0.817,0,0,0-.8-0.727,9.6,9.6,0,0,1-1.64-.022,5.72,5.72,0,0,1,1.49-1.343,1.2,1.2,0,0,0,.65-1.15c0.02-.244-0.02-0.491-0.02-0.738a19.93,19.93,0,0,1,.13-2.457c0.09-.745-0.36-0.9-0.61-0.884a10,10,0,0,1-1.65.023,9.022,9.022,0,0,1,2.05-1.5,1.694,1.694,0,0,0,.79-1.054c0.27-.93.51-1.861,0.85-2.739a0.606,0.606,0,0,0-.65-0.919,10.409,10.409,0,0,1-1.62,0,9.837,9.837,0,0,1,2.6-1.414,2.743,2.743,0,0,0,1.38-1.207c0.4-.627.83-1.22,1.24-1.818s-0.04-.666-0.31-0.666a17.627,17.627,0,0,1-2.04,0,15.891,15.891,0,0,1,3.43-1.263,2.838,2.838,0,0,0,1.24-.623c0.46-.377.89-0.781,1.37-1.117,0.43-.3.08-0.359-0.11-0.363-1.12-.015-2.13.082-2.3,0a23.442,23.442,0,0,1,4.03-.7,20.936,20.936,0,0,1,3.96-1.405c-0.3,0-.55,0-0.65.01h-6.67c-0.37.047-1.98-.022-2.27,0a6.6,6.6,0,0,0-2,.449c-0.48.192-.64,0.806-0.31,0.936a5.71,5.71,0,0,1,1.56.7,24.5,24.5,0,0,1-3.09-.079,2.537,2.537,0,0,0-1.34.12,5.422,5.422,0,0,0-1.1,1.015,0.619,0.619,0,0,0,.05.962c0.35,0.16,2.03,1.281,1.8,1.393a18.161,18.161,0,0,1-3.1.208,1.017,1.017,0,0,0-1.09.3,11.073,11.073,0,0,0-1.06,1.978,1.016,1.016,0,0,0,.11,1.155,13.737,13.737,0,0,1,2.35,1.41,24.516,24.516,0,0,0-2.99.29,0.7,0.7,0,0,0-.83.426,15.95,15.95,0,0,0-.63,2.508,0.984,0.984,0,0,0,.41,1.069,19.133,19.133,0,0,1,2.62,1.906c-0.43-.025-2.66.506-3,0.512a0.643,0.643,0,0,0-.59.712,13.33,13.33,0,0,0-.04,1.677c0,0.3.01,0.609,0.02,0.909a1.417,1.417,0,0,0,.77,1.095c0.51,0.24,3.1,1.512,2.87,1.629-0.19.095-2.53,0.384-2.77,0.392-0.55.017-.62,0.561-0.55,1.006a14.423,14.423,0,0,0,.46,2.388,1.085,1.085,0,0,0,.65.706c0.29,0.1,3.96,1.591,3.72,1.708a23.214,23.214,0,0,1-2.73.53c-0.46.025-.41,0.678-0.2,1.154a7.471,7.471,0,0,0,.73,1.516,1.845,1.845,0,0,0,.72.5,31.493,31.493,0,0,1,4.23,1.349c-0.2.1-2.42,0.2-2.83,0.227s-0.36.64-.13,0.921a6.129,6.129,0,0,0,1.11,1.155,2.993,2.993,0,0,0,1.28.337,38.578,38.578,0,0,1,4.25.725,25.74,25.74,0,0,1-2.79.394c-0.41-.019-0.08.539,0.2,0.681a9.736,9.736,0,0,0,2.21.8,0.458,0.458,0,0,0,.09.009c0.26,0,1.94.16,2.24,0.16,0.38,0,5.53.028,8.05,0.04a21.09,21.09,0,0,1-4.79-1.906A1.361,1.361,0,0,0,1278.83,230.9Zm19.31-19.737a0.665,0.665,0,0,0-.6-0.75,0.035,0.035,0,0,1-.02.02c-0.05-.553-0.11-1.1-0.19-1.642a0.138,0.138,0,0,0,.02,0,0.943,0.943,0,0,0,.39-1.012,28.078,28.078,0,0,0-.79-3.229,1.192,1.192,0,0,0-.78-0.589l-0.5-1.23c0-.008.01-0.005,0.02-0.011a1.112,1.112,0,0,0,.13-1.147,20.613,20.613,0,0,0-1.45-2.645,1.351,1.351,0,0,0-1.01-.276,9.038,9.038,0,0,0-.61-0.785c0-.014.01-0.006,0.02-0.02a1.1,1.1,0,0,0-.13-1.152,13.5,13.5,0,0,0-1.95-1.748,3.716,3.716,0,0,0-1.47-.022l-0.3-.154a0.169,0.169,0,0,1,.02-0.024,0.941,0.941,0,0,0-.38-1.02,9.433,9.433,0,0,0-2.23-.642,5.447,5.447,0,0,0-4.95,1.572c1.02,0.122-1.29,1.746-1.11.794a16.643,16.643,0,0,0-1.9,1.736c0.97,0.094-.85,2.4-1.14,1.333a19.991,19.991,0,0,0-2.06,3.286c0.89-.266-0.18,2.66-0.81,1.835a23.149,23.149,0,0,0-1.18,4.087c0.83-.305.44,2.361-0.31,1.978a28.854,28.854,0,0,0-.2,3.407c0,0.244.01,0.487,0.01,0.729,0.81-.339,1.2,2.1.13,2.12a25.4,25.4,0,0,0,.74,4.166c0.49-.482,1.76,1.633.62,1.968a21.342,21.342,0,0,0,1.52,3.263c0.3-.577,1.83,1.309.96,1.5a18.6,18.6,0,0,0,2.23,2.6c0.14-.549,1.73.654,1.11,0.974a16.36,16.36,0,0,0,4.48,2.57l1.34,0.006a5.8,5.8,0,0,0,1.54-.217,3.633,3.633,0,0,0,.88-1s1.07-.051,1.29-0.051a0.383,0.383,0,0,0,.19-0.055,12.324,12.324,0,0,0,2.04-1.508,1.094,1.094,0,0,0,.19-1.13l-0.02-.018a7.957,7.957,0,0,0,.66-0.726,6.255,6.255,0,0,0,.66.061,0.449,0.449,0,0,0,.35-0.2,17.83,17.83,0,0,0,1.59-2.459,1.143,1.143,0,0,0-.07-1.16,0.2,0.2,0,0,0-.03-0.014c0.22-.446.38-0.744,0.58-1.221,0.01,0.008.24-.022,0.34-0.022a0.549,0.549,0,0,0,.47-0.416,27.409,27.409,0,0,0,.95-3.123,0.994,0.994,0,0,0-.33-1.056c-0.01,0-.01,0-0.02,0,0.11-.529.2-1.069,0.28-1.615a0.015,0.015,0,0,1,.01.016,0.561,0.561,0,0,0,.1.01,0.679,0.679,0,0,0,.54-0.684,29.962,29.962,0,0,0,.19-3.428C1298.19,212.369,1298.17,211.759,1298.14,211.158Zm-12.26,14.557c-4.2,0-7.6-5.689-7.6-12.7s3.4-12.706,7.6-12.706,7.59,5.688,7.59,12.706S1290.08,225.715,1285.88,225.715Z" transform="translate(-1262.84 -193)"/>
</svg>
