<svg xmlns="http://www.w3.org/2000/svg" width="82.875" height="40" viewBox="0 0 82.875 40">
  <metadata><?xpacket begin="﻿" id="W5M0MpCehiHzreSzNTczkc9d"?>
<x:xmpmeta xmlns:x="adobe:ns:meta/" x:xmptk="Adobe XMP Core 5.6-c138 79.159824, 2016/09/14-01:09:01        ">
   <rdf:RDF xmlns:rdf="http://www.w3.org/1999/02/22-rdf-syntax-ns#">
      <rdf:Description rdf:about=""/>
   </rdf:RDF>
</x:xmpmeta>
                                                                                                    
                                                                                                    
                                                                                                    
                                                                                                    
                                                                                                    
                                                                                                    
                                                                                                    
                                                                                                    
                                                                                                    
                                                                                                    
                                                                                                    
                                                                                                    
                                                                                                    
                                                                                                    
                                                                                                    
                                                                                                    
                                                                                                    
                                                                                                    
                                                                                                    
                                                                                                    
                           
<?xpacket end="w"?></metadata>
<defs>
    <style>
      .cls-1 {
        fill: #fff;
        fill-rule: evenodd;
      }
    </style>
  </defs>
  <path id="icon_truck" class="cls-1" d="M471.567,193.5H413.539a1.5,1.5,0,0,0-1.382,1.591V212.81a1.38,1.38,0,0,0,1.382,1.379h58.028a1.38,1.38,0,0,0,1.382-1.379V195.1A1.5,1.5,0,0,0,471.567,193.5Zm0,23.444H432.881a1.38,1.38,0,0,0-1.381,1.378V226.5a1.378,1.378,0,0,0,1.376,1.5h0l4.151,0a5.526,5.526,0,0,0,11.052-.013h8.289a5.527,5.527,0,0,0,11.053,0h4.145a1.381,1.381,0,0,0,1.382-1.379v-8.275A1.38,1.38,0,0,0,471.567,216.948Zm-29.014,13.79a2.758,2.758,0,1,1,2.763-2.758A2.763,2.763,0,0,1,442.553,230.738Zm19.343,0a2.758,2.758,0,1,1,2.763-2.758A2.764,2.764,0,0,1,461.9,230.738Zm-34.541-13.79h-16.58a1.381,1.381,0,0,1-1.381-1.38v-13.79a1.381,1.381,0,0,0-1.382-1.379H396.959a1.381,1.381,0,0,0-1.283.867l-5.526,13.788c-0.033.174-.066,0.342-0.1,0.514v13.791a1.381,1.381,0,0,0,1.381,1.379h4.914a5.511,5.511,0,0,0,10.285-2.758h5.526a5.527,5.527,0,0,0,11.053,0h4.145a1.381,1.381,0,0,0,1.382-1.379v-8.275A1.38,1.38,0,0,0,427.355,216.948Zm-32.841-2.759a0.689,0.689,0,0,1-.637-0.957l2.9-6.9a0.69,0.69,0,0,1,.636-0.422H401.8a0.691,0.691,0,0,1,.691.689v6.9a0.691,0.691,0,0,1-.691.689h-7.281Zm6.59,16.549a2.758,2.758,0,1,1,2.763-2.758A2.763,2.763,0,0,1,401.1,230.738Zm16.58,0a2.758,2.758,0,1,1,2.763-2.758A2.764,2.764,0,0,1,417.684,230.738Z" transform="translate(-390.063 -193.5)"/>
</svg>
