<svg xmlns="http://www.w3.org/2000/svg" width="27.12" height="40" viewBox="0 0 27.12 40">
  <metadata><?xpacket begin="﻿" id="W5M0MpCehiHzreSzNTczkc9d"?>
<x:xmpmeta xmlns:x="adobe:ns:meta/" x:xmptk="Adobe XMP Core 5.6-c138 79.159824, 2016/09/14-01:09:01        ">
   <rdf:RDF xmlns:rdf="http://www.w3.org/1999/02/22-rdf-syntax-ns#">
      <rdf:Description rdf:about=""/>
   </rdf:RDF>
</x:xmpmeta>
                                                                                                    
                                                                                                    
                                                                                                    
                                                                                                    
                                                                                                    
                                                                                                    
                                                                                                    
                                                                                                    
                                                                                                    
                                                                                                    
                                                                                                    
                                                                                                    
                                                                                                    
                                                                                                    
                                                                                                    
                                                                                                    
                                                                                                    
                                                                                                    
                                                                                                    
                                                                                                    
                           
<?xpacket end="w"?></metadata>
<defs>
    <style>
      .cls-1 {
        fill: #fff;
        fill-rule: evenodd;
      }
    </style>
  </defs>
  <path id="icon_oil" class="cls-1" d="M1092.27,211.725l-0.08-.1-0.02-.019-11.18-13.561-0.31-.374a1.236,1.236,0,0,0-.82-0.3h-3.87V196.42h-6.02v0.943h-3.23a1.29,1.29,0,0,0-1.29,1.292v33.053a1.29,1.29,0,0,0,1.29,1.292h24.52a1.29,1.29,0,0,0,1.29-1.292V212.514A1.2,1.2,0,0,0,1092.27,211.725Zm-4.15,17.1h-18.66V215.182h18.66v13.645Zm-6.22-17.354-0.75-9.3,7.21,9.045,0.4,0.5Zm-0.91-13.432-0.31-.375A1.123,1.123,0,0,1,1080.99,198.041Zm-4.49-2.269h-7.04V193h7.04v2.773Zm5.18,26.18-0.05-.077-2.62-4.684-2.78,4.936a3.048,3.048,0,0,0-.39,1.531A3.165,3.165,0,1,0,1081.68,221.952Zm-3.31,3.916c-0.22.3-.65,0.032-0.91-0.11a1.527,1.527,0,0,1-.86-1.085c0.09-.6.69-0.195,1.03,0.089A1.929,1.929,0,0,1,1078.37,225.868Z" transform="translate(-1065.44 -193)"/>
</svg>
