<svg xmlns="http://www.w3.org/2000/svg" width="135.562" height="160" viewBox="0 0 135.562 160">
  <metadata><?xpacket begin="﻿" id="W5M0MpCehiHzreSzNTczkc9d"?>
<x:xmpmeta xmlns:x="adobe:ns:meta/" x:xmptk="Adobe XMP Core 5.6-c138 79.159824, 2016/09/14-01:09:01        ">
   <rdf:RDF xmlns:rdf="http://www.w3.org/1999/02/22-rdf-syntax-ns#">
      <rdf:Description rdf:about=""/>
   </rdf:RDF>
</x:xmpmeta>
                                                                                                    
                                                                                                    
                                                                                                    
                                                                                                    
                                                                                                    
                                                                                                    
                                                                                                    
                                                                                                    
                                                                                                    
                                                                                                    
                                                                                                    
                                                                                                    
                                                                                                    
                                                                                                    
                                                                                                    
                                                                                                    
                                                                                                    
                                                                                                    
                                                                                                    
                                                                                                    
                           
<?xpacket end="w"?></metadata>
<defs>
    <style>
      .cls-1 {
        fill: #2a4b9a;
        fill-rule: evenodd;
      }
    </style>
  </defs>
  <path id="kamaz" class="cls-1" d="M790.738,426.8c0.391,1.107-.109,2.372.283,3.363,0.6,1.431,1.158,2.638,1.758,3.911,0.5,1.04.833,2.147,1.6,3.579,0.441,0.874,1.216.99,1.6,1.814a17.228,17.228,0,0,1,.775,3.745,3.012,3.012,0,0,1-.825,1.207,8.566,8.566,0,0,1-1.324.058,13.736,13.736,0,0,1-2.316-3.3c-0.441-1.1.108-1.922-.225-2.921a27.326,27.326,0,0,0-3.465-6.333,6.976,6.976,0,0,0-1.991-1.041,15.892,15.892,0,0,1-3.416-7.107,2.872,2.872,0,0,1,2.258-1.431,11.984,11.984,0,0,1,5.29,4.46h0Zm11.412,29.353a1.954,1.954,0,0,1,.225,1.432c-0.333.824-2.1,1.706-3.915,2.03-0.392-2.913-.55-4.951-0.883-6.99-0.717-.059-1.266.274-1.541,0-0.109-1.1.108-2.913,0.883-3.246,1.1-.441,4.79,5.776,5.231,6.774h0Zm-10.638-3.911c-0.05,0-.108.05-0.166,0.05-2.808-1.865-4.848-3.9-5.182-6.051-4.74-3.087-5.781-4.96-7.655-10.735-0.717-1.548-2.149-2.039-3.366-2.589-1.266-.549-2.315-1.1-2.149-2.813a6.478,6.478,0,0,1,1.325-2.58c4.19-5.068,4.8,1.041,8.547,4.345,6.006,4.294,3.906,8.863,7.488,14.148a12.414,12.414,0,0,1,1.158,6.225h0Zm-22.483-36.394c-1.266,3.3-1.433,2.747-4.357,3.246a2.176,2.176,0,0,1-.824-2.039c2.865-.824,2.923-2.422,2.865-4.02-0.658-2.147-1.982-2.862-3.69-3.686a5.694,5.694,0,0,1-.775-2.805,3.022,3.022,0,0,1,1.816-1.323c2.208-.167,5.515.216,7.223,1.323a12.045,12.045,0,0,1,1.6,3.961,4.142,4.142,0,0,0,.108.716,22.292,22.292,0,0,0-3.965,4.627h0Zm-9.538,6.991c-0.875-.275-4.407-1.215-5.506-1.431-1.492-.217-2.483.166-4.024,0.058a30.376,30.376,0,0,1-5.623-3.138c-0.058.325-2.257-5.734-2.149-7.548a4.668,4.668,0,0,1,3.307-.882c1.649,1.215,4.348,3.3,6.614,5.118-0.108,2.6,1.758,3.038,3.307,2.871,2.15,0.991,4.849,2.089,6.173,2.58,1.433,0.558.883,2.147-2.1,2.372h0Zm-0.383,17.394c1.432,1.764.716,2.538-1.217,2.7-2.582-3.47-5.506-8.314-8.921-10.844-0.992-.774-1.708-1.215-1.325-1.93a5.9,5.9,0,0,1,1.1-1.215c2.424-2.031,5.023-.05,5.9,3.245,0.608,2.372,3.248,7.166,4.465,8.04h0Zm1.324-75.151c0.492-.441-0.333-0.715.825-0.824a4.244,4.244,0,0,1,2.974,2.472,2.386,2.386,0,0,1,.116,2.1,70.724,70.724,0,0,0-1.707,7.041c-0.558,2.871-1.05,6.059-1.441,8.93-0.275,1.706-.434,3.245-0.55,4.56a21.079,21.079,0,0,0-.167,2.314c-0.158,1.431-.275,3.254-0.875.383a13.92,13.92,0,0,1-.391-3.238c-0.658-6.94.991-18.225,1.216-23.735h0Zm6.281,20.756c0.109-.774.109-0.6,0.825-0.657a14.982,14.982,0,0,1,5.073.824c1.541,0.382,2.807.882,3.64,1.048,0.384,0.108.492,0.158,0.492-.333v-0.333c0-.158-0.05-0.274-0.05-0.382-0.058-.383.108-0.383,0.433-0.333a4.917,4.917,0,0,1,1.275.224c6.5,2.314,9.529,18.834,5.731,23.727A23.958,23.958,0,0,0,780.325,411a1.962,1.962,0,0,0,.275,1.206,4.912,4.912,0,0,1,1.932.5,9.484,9.484,0,0,1,2.316,4.452c0.108,0.724-1.433,1.107-2.865,1.215a5.7,5.7,0,0,1-2.483-1.98,3.455,3.455,0,0,0-2.757-1.382,5.462,5.462,0,0,1-2.366.225,1.5,1.5,0,0,1,.108-1.6,7.835,7.835,0,0,1,1.875-.99c0.491-.217.491,0,0.441-0.608-0.55-4.785-3.307-8.039-6.339-11.335a17.19,17.19,0,0,1-2.7-3.8c-0.883-3.629-1.6-7.274-1.05-11.069h0Zm4.465-34.737c1.216,0.383,1.6,2.03-.658,1.922a4.088,4.088,0,0,1-2.041-1.207,3.3,3.3,0,0,1,2.7-.715h0Zm17.027,2.363c0.392,0.882-.608,1.373-1.6.991a7.805,7.805,0,0,1-1.708-.774c0.991-1.157,2.974-.824,3.307-0.217h0Zm34.612,26.374c-1.324.108-2.757,0.166-4.131,0.224-7.331.217-14.887-.391-22.159-0.665a32.319,32.319,0,0,0-9.921,1.1,46.257,46.257,0,0,0-5.9,2.314,2.9,2.9,0,0,1-2.7.224,26.449,26.449,0,0,0-2.807-.774c-2.208,0-5.073.991-7.556,0.883-1.158-.059-0.824-0.333-0.766-1.432,0.108-4.511.55-9.088,0.883-13.6,0-.441,0-0.716.716-0.774a13.1,13.1,0,0,0,3.632-.491c1.325-.333,2.591-1.382,3.807-1.981,2.258-.225,4.632-0.333,7.056-0.333a4.253,4.253,0,0,0,2.257.99,2.475,2.475,0,0,0,2.591-2.089c1.266-.116,2.424-1.489.933-1.989-1.208-.274-3.524.059-4.24-0.158-2.482-.557-0.225-2.588,1.05-2.372,1.041-.166,2.424-0.216,3.856-0.441,1.708-.05,2.808-0.774,1.542-2.638a3.038,3.038,0,0,1-1.375-1.764c-0.441-1.265-.333-2.422-2.816-2.921a136.147,136.147,0,0,1-13.719-1.49c-2.425-.325-4.524-0.491-5.515-0.549-0.767,0-.767.274-0.716-0.491,0.058-.275.058-0.5,0.108-0.716v-0.549c0.058-.666.225-0.666-0.55-0.608-0.383.058-.875,0.108-1.483,0.167a17.461,17.461,0,0,1-1.824.216,14.182,14.182,0,0,1-1.483.058c-0.608,0-.55-0.058-0.55-0.5v-4.9c0-.982-0.333.058-0.5,0.283a9.529,9.529,0,0,1-1.207,1.265c-0.442.383-.883,0.766-1.325,1.215a2.1,2.1,0,0,0-.833.874,1.833,1.833,0,0,0-.433,1.1,8.312,8.312,0,0,1-1.874,3.746c-2.425,2.371-4.857,2.371-7.006,4.41a5.194,5.194,0,0,1-.55,2.971,14.69,14.69,0,0,1-2.424,3.521,33.707,33.707,0,0,1-3.582,3.853,3.08,3.08,0,0,0-1.1,1.706c1.433,0.441,1.816,1.323,1.65,2.264a5.866,5.866,0,0,1-1.766,2.8,128.831,128.831,0,0,1-2.641,14.04,134.109,134.109,0,0,1-4.19,13.6,75.831,75.831,0,0,0-.6,7.989c-0.058,2.031-.058,3.962.05,5.942a25.912,25.912,0,0,0,.383,3.471c0.833,3.245,2.1,6.108,4.907,8.039a15.549,15.549,0,0,1,2.7,2.805,12.058,12.058,0,0,1,1.824,3.853,7.984,7.984,0,0,0,3.965,6c1.708,1.273,3.749,2.314,5.84,5.4,1.049,3.08,2.649,4.511,5.9,5.834,2.424,1.265,5.181,2.039,6.889,3.912,0.166,0.607.333,1.207,0.5,1.706a3.169,3.169,0,0,0,.933,1.323,5.172,5.172,0,0,0,3.748,1.648c3.141,0.108,5.9-2.7,4.682-6.774-1.316-2.971-3.857-3.962-6.664-2.805a15.937,15.937,0,0,1,1.157,2.255c0.217,0.441,0,.55-0.441.275-1.491-.932-3.807-6.442-4.3-7.265a7.956,7.956,0,0,0-1.816-2.589,8.7,8.7,0,0,0-1.933-1.048c-0.383-.55-2.757-3.853-2.757-4.619a35.1,35.1,0,0,0,12.02,3.412,18.141,18.141,0,0,0,2.091,3.021,23.957,23.957,0,0,0,3.249,2.763,11.276,11.276,0,0,1,3.749,4.344,10.5,10.5,0,0,0,1.707,2.647,6.939,6.939,0,0,1,1.933,2.913,35.7,35.7,0,0,0,2.2,5.892,9.215,9.215,0,0,0,6.506-2.147,4.778,4.778,0,0,0-.108,1.98c0.166,0.716,4.465.5,6.006,0.275l1.433,7.382c4.131,0,7.055-.549,10.254-3.695-1.108-1.864-2.266-3.687-3.365-5.5a33.172,33.172,0,0,1-1.875-4.9,11.052,11.052,0,0,0-1.216-2.256c-0.6-.932-1.1-1.706-1.483-2.313a8.844,8.844,0,0,1-1.657-4.07c-0.325-1.539-.55-3.087-0.883-4.569a13.5,13.5,0,0,0-1.866-4.685,18.629,18.629,0,0,1-2.983-10.569,46,46,0,0,0-2.474-9.854c-0.333-.824-0.724-1.6-1.049-2.372a10.964,10.964,0,0,1-.883-3.9c0.824-6.616-.383-10.686-2.591-16.686,2.424-2.314,9.372,1.1,17.419,1.265,2.032-.109,4.681-0.5,5.673-2.48a9.771,9.771,0,0,0-1.208-.05c-0.942,0-1.05-.275-1.108-0.832-0.217-1.424,7.5-1.424,10.529-3.571a2.776,2.776,0,0,0,1.375-1.548,6.655,6.655,0,0,1-.992-0.05c-0.991.05-2.091-.665-0.549-1.265,1.374-.557,4.19-1.048,5.789-2.155a4.448,4.448,0,0,0,1.425-1.648c-0.767.108-1.7,0.216-2.475,0.275h0Zm-93.907,96.2h-5.389l-12.087,8.73v-8.73H701.146v25.325h10.171V489.283l0.741-.366,5.515,12.442h10.846l-8.055-18.7,8.546-6.625h0Zm43.076,12.817-5.639-12.817h-9.922v25.325h3.416v-15.23l7.189,15.23h3.215l7.506-15.23v15.23h10.221V476.034h-9.355l-6.631,12.817h0Zm-36.811,6.125,3.84-7.99,3.59,7.99h-7.43ZM741,476.034l-12.337,25.325h3.665l1.483-3.162h9.979l1.358,3.162h10.846l-10.779-25.325H741Zm53.547,18.942,3.59-7.74,3.224,7.74h-6.814Zm5.573-18.942L788.1,501.359h3.474l1.541-3.221h9.671l1.366,3.221h10.413L803.9,476.034h-3.781Zm14.594,0.15v4.136l7.031-.058-7.031,21.114h20.876v-3.671H829l6.989-21.521H814.712ZM814.2,460.23h0.9a1.679,1.679,0,0,1,.674.133,0.582,0.582,0,0,1,.284.574c0,0.034-.009.084-0.017,0.15a0.686,0.686,0,0,1-.317.491,0.975,0.975,0,0,1-.524.117h-1V460.23h0Zm-0.85,4.02h0.85v-1.914h0.716a1.255,1.255,0,0,1,.792.158,0.573,0.573,0,0,1,.175.433c0,0.041-.009.083-0.009,0.124a0.662,0.662,0,0,0-.008.125,0.846,0.846,0,0,1-.008.142v0.141c0,0.083,0,.175.008,0.258a0.789,0.789,0,0,0,.075.267,0.72,0.72,0,0,0,.067.133,1.646,1.646,0,0,0,.1.133h0.9a1.022,1.022,0,0,1-.25-0.408,1.828,1.828,0,0,1-.075-0.408,1.193,1.193,0,0,1,.009-0.183c0.008-.058.016-0.125,0.025-0.191a1.279,1.279,0,0,1,.016-0.175,1.14,1.14,0,0,0,.009-0.175,0.768,0.768,0,0,0-.109-0.408,0.789,0.789,0,0,0-.491-0.283v-0.008c0.042-.017.092-0.042,0.15-0.066a0.732,0.732,0,0,0,.175-0.117,1.257,1.257,0,0,0,.325-0.358,1.19,1.19,0,0,0,.141-0.616,1.052,1.052,0,0,0-.458-1,2.1,2.1,0,0,0-1.066-.258h-2.058v4.652h0Zm-2.957-2.281a4.237,4.237,0,0,0,1.375,3.3,4.793,4.793,0,0,0,3.023,1.34,0.32,0.32,0,0,0,.125.017h0.167a4.764,4.764,0,0,0,3.165-1.282,4.659,4.659,0,0,0,.025-6.716,4.741,4.741,0,0,0-3.115-1.3H814.9a1.1,1.1,0,0,0-.158.008,4.847,4.847,0,0,0-2.982,1.365,4.212,4.212,0,0,0-1.358,3.27h0Zm0.875,0V461.8a4.21,4.21,0,0,1,1.1-2.589,3.389,3.389,0,0,1,2.674-1.181h0.042a3.761,3.761,0,0,1,2.566,1.09,4.076,4.076,0,0,1-.009,5.717,3.765,3.765,0,0,1-2.6,1.091,3.371,3.371,0,0,1-2.665-1.166,4.231,4.231,0,0,1-1.092-2.546,0.678,0.678,0,0,1-.016-0.117v-0.125h0Zm25.015,9.288H700.713V467.3H836.287v3.953h0Z" transform="translate(-700.719 -341.375)"/>
</svg>
