<svg xmlns="http://www.w3.org/2000/svg" width="204" height="103.875" viewBox="0 0 204 103.875">
  <metadata><?xpacket begin="﻿" id="W5M0MpCehiHzreSzNTczkc9d"?>
<x:xmpmeta xmlns:x="adobe:ns:meta/" x:xmptk="Adobe XMP Core 5.6-c138 79.159824, 2016/09/14-01:09:01        ">
   <rdf:RDF xmlns:rdf="http://www.w3.org/1999/02/22-rdf-syntax-ns#">
      <rdf:Description rdf:about=""/>
   </rdf:RDF>
</x:xmpmeta>
                                                                                                    
                                                                                                    
                                                                                                    
                                                                                                    
                                                                                                    
                                                                                                    
                                                                                                    
                                                                                                    
                                                                                                    
                                                                                                    
                                                                                                    
                                                                                                    
                                                                                                    
                                                                                                    
                                                                                                    
                                                                                                    
                                                                                                    
                                                                                                    
                                                                                                    
                                                                                                    
                           
<?xpacket end="w"?></metadata>
<defs>
    <style>
      .cls-1 {
        fill: #002d56;
        fill-rule: evenodd;
      }
    </style>
  </defs>
  <path id="logo" class="cls-1" d="M181.085,117.339A14.013,14.013,0,1,1,189,91.752a50.305,50.305,0,0,1,20.945-21.01A46.126,46.126,0,1,0,196,148.185a49.753,49.753,0,0,1-12.646-31.032,14.176,14.176,0,0,1-2.265.186h0Zm39.329-6.809a17.559,17.559,0,0,1,9.158-15.418l-18.554-22.7a48,48,0,0,0,22.348,90.52,48.729,48.729,0,0,0,6.495-.436v-34.5a16.934,16.934,0,0,1-1.855.1,17.577,17.577,0,0,1-17.592-17.558h0Zm18.483-1.467h2.7v3.416h-2.067c-0.053.008-.46,0-0.509,0s-0.206.008-.259,0H238.47a1.843,1.843,0,0,1-1.327-1.783,1.679,1.679,0,0,1,1.327-1.633H238.9Zm-9.763,1.825c0,4.743,3.447,8.268,8.947,8.268h10.94l0-16.83s-9.911.05-10.941,0.05c-5.5,0-8.949,3.771-8.949,8.511h0Zm45.525-2.938,4.526,0,0,11.227h8.99V107.956h4.771l0-5.605-18.284-.008,0,5.607h0Zm62.333,11.23c0.05-.3-0.966-6.429-6.167-8.845,4.431-1.9,5.179-7.525,5.1-7.975l-9.491,0c0.014,0.128.025,1.038,0.025,1.175,0,1.727-1.132,4.054-3.1,4.432-0.472.011-.35,0-0.483,0h-0.3v-5.607l-8.99,0-0.006,16.82,8.99,0,0-5.57h0.759c2.4,0,4.083,2.546,4.081,4.612,0,0.133-.034.834-0.051,0.961h9.622Zm-41.924-16.834V119.21l1.86,0.006,7.877-.05h6.515V113.6h-7.266v0h0a0.549,0.549,0,0,1,0-1.1h0V112.49h7.266v-3.416h-7.266v0h-0.01a0.556,0.556,0,0,1,0-1.111h0.01v-0.008h7.266v-5.6l-3.822,0h-12.43Zm-22.1.015H262.478v9.565h0v0.011a0.546,0.546,0,0,1-.556.53c-0.006,0-.011,0-0.017,0s-0.01,0-.016,0a0.545,0.545,0,0,1-.556-0.53v-0.011h0v-9.565H250.838c-0.2,4.354,3.153,16.8,7.205,16.8h7.72c4.051,0,7.411-12.445,7.206-16.8h0Z" transform="translate(-133 -59.063)"/>
</svg>
