<svg xmlns="http://www.w3.org/2000/svg" width="236" height="126" viewBox="0 0 236 126">
  <metadata><?xpacket begin="﻿" id="W5M0MpCehiHzreSzNTczkc9d"?>
<x:xmpmeta xmlns:x="adobe:ns:meta/" x:xmptk="Adobe XMP Core 5.6-c138 79.159824, 2016/09/14-01:09:01        ">
   <rdf:RDF xmlns:rdf="http://www.w3.org/1999/02/22-rdf-syntax-ns#">
      <rdf:Description rdf:about=""/>
   </rdf:RDF>
</x:xmpmeta>
                                                                                                    
                                                                                                    
                                                                                                    
                                                                                                    
                                                                                                    
                                                                                                    
                                                                                                    
                                                                                                    
                                                                                                    
                                                                                                    
                                                                                                    
                                                                                                    
                                                                                                    
                                                                                                    
                                                                                                    
                                                                                                    
                                                                                                    
                                                                                                    
                                                                                                    
                                                                                                    
                           
<?xpacket end="w"?></metadata>
<defs>
    <style>
      .cls-1 {
        fill: #e42328;
        fill-rule: evenodd;
      }
    </style>
  </defs>
  <path id="maz" class="cls-1" d="M1405.61,415.5h-71.96L1309.09,355l-4.51,11.307-19.64,49.2h-76.98L1187,464.363l117.58,16.162,3.43,0.476L1423,464.363Zm-97.94,51.44-3.09-.1-110.75-3.9,17.7-40.541h73l20.05-51.2,4.51-11.476,24.5,62.678h68.04l13.73,40.541Zm99.7-20.3-7.16-3.294,3.94-5.4-3.6-12.664H1343.4l5.81,12.257h32.21l-4.42,5.806,5.54,5.127h-44.16l-29.29-82.61-4.51,11.748-24.33,63.63h-10.94l-3.19-15.958h-19.53l-9.35,13.038-7.23-13.038h-16.92l-15.36,35.141h16.38l7.17-11.951,5.4,11.951h20.65l6.49-12.7,6.49,12.7h30.78l6.15-7.6,7.34,4.72,4.51,2.885,10.77-7.6,5.88,7.6h86.36Zm-98.28-2.547-4.51-3.158-4.83-3.395,4.83-11.409,4.51-10.627,9.07,22.036Z" transform="translate(-1187 -355)"/>
</svg>
