<svg xmlns="http://www.w3.org/2000/svg" width="77" height="81" viewBox="0 0 77 81">
  <metadata><?xpacket begin="﻿" id="W5M0MpCehiHzreSzNTczkc9d"?>
<x:xmpmeta xmlns:x="adobe:ns:meta/" x:xmptk="Adobe XMP Core 5.6-c138 79.159824, 2016/09/14-01:09:01        ">
   <rdf:RDF xmlns:rdf="http://www.w3.org/1999/02/22-rdf-syntax-ns#">
      <rdf:Description rdf:about=""/>
   </rdf:RDF>
</x:xmpmeta>
                                                                                                    
                                                                                                    
                                                                                                    
                                                                                                    
                                                                                                    
                                                                                                    
                                                                                                    
                                                                                                    
                                                                                                    
                                                                                                    
                                                                                                    
                                                                                                    
                                                                                                    
                                                                                                    
                                                                                                    
                                                                                                    
                                                                                                    
                                                                                                    
                                                                                                    
                                                                                                    
                           
<?xpacket end="w"?></metadata>
<defs>
    <style>
      .cls-1 {
        fill: #fff;
        fill-rule: evenodd;
      }
    </style>
  </defs>
  <path id="icon_spare_parts" class="cls-1" d="M1085.04,1969.9h-2.1v-8.43h-2.26a1.407,1.407,0,0,1-.21.69,1.233,1.233,0,0,1-.53.44,2.156,2.156,0,0,1-.75.2,7.228,7.228,0,0,1-.95.06v1.66h2.15v5.38h-2.15v1.78h6.8v-1.78Zm10.1-2.68a3.462,3.462,0,0,0-1.58-1.08v-0.04a3.487,3.487,0,0,0,1.38-.97,2.027,2.027,0,0,0,.45-1.29,2.152,2.152,0,0,0-1.07-1.87,5.321,5.321,0,0,0-2.95-.7,5.065,5.065,0,0,0-2.92.77,2.327,2.327,0,0,0-1.12,1.98,2.618,2.618,0,0,0,.41,1.45,3.11,3.11,0,0,0,1.31,1.03v0.04a3.547,3.547,0,0,0-1.55,1.04,2.153,2.153,0,0,0-.45,1.35,2.808,2.808,0,0,0,.25,1.16,2.572,2.572,0,0,0,.77.95,3.923,3.923,0,0,0,1.33.64,6.927,6.927,0,0,0,1.94.23,5.133,5.133,0,0,0,3.16-.86A2.747,2.747,0,0,0,1095.14,1967.22Zm-2.45-2.36a2.979,2.979,0,0,1-.45.66c-0.31-.1-0.58-0.19-0.8-0.27s-0.4-.15-0.53-0.2a2.5,2.5,0,0,1-.74-0.45,0.816,0.816,0,0,1-.23-0.63,0.727,0.727,0,0,1,.13-0.43,0.96,0.96,0,0,1,.33-0.3,1.7,1.7,0,0,1,.46-0.18,2.22,2.22,0,0,1,.51-0.06,1.67,1.67,0,0,1,1.06.31,1,1,0,0,1,.4.82A1.759,1.759,0,0,1,1092.69,1964.86Zm0.2,4.67a1.433,1.433,0,0,1-.4.37,1.742,1.742,0,0,1-.5.2,2.676,2.676,0,0,1-.52.06,1.99,1.99,0,0,1-1.32-.42,1.379,1.379,0,0,1-.51-1.13,1.551,1.551,0,0,1,.23-0.85,3.484,3.484,0,0,1,.53-0.65c0.2,0.08.44,0.16,0.73,0.26s0.5,0.19.65,0.26a3.326,3.326,0,0,1,1.01.58A1.21,1.21,0,0,1,1092.89,1969.53Zm17.18-5.21a4.424,4.424,0,0,0-.72-1.66,3.189,3.189,0,0,0-1.3-1.02,4.741,4.741,0,0,0-1.96-.35,5.092,5.092,0,0,0-1.93.33,3.072,3.072,0,0,0-1.31,1.01,4.29,4.29,0,0,0-.74,1.66,9.768,9.768,0,0,0-.23,2.3,10.372,10.372,0,0,0,.22,2.28,4.411,4.411,0,0,0,.73,1.67,3.216,3.216,0,0,0,1.31,1.01,4.968,4.968,0,0,0,1.95.34,4.9,4.9,0,0,0,1.95-.34,3.144,3.144,0,0,0,1.3-1,4.221,4.221,0,0,0,.72-1.66A11.228,11.228,0,0,0,1110.07,1964.32Zm-2.79,4.89a1.219,1.219,0,0,1-1.19.8,1.241,1.241,0,0,1-1.2-.8,6.6,6.6,0,0,1-.37-2.61,6.965,6.965,0,0,1,.36-2.65,1.255,1.255,0,0,1,1.21-.78,1.233,1.233,0,0,1,1.2.78,6.88,6.88,0,0,1,.36,2.63A6.681,6.681,0,0,1,1107.28,1969.21Zm12.74-4.89a4.424,4.424,0,0,0-.72-1.66,3.189,3.189,0,0,0-1.3-1.02,4.741,4.741,0,0,0-1.96-.35,5.092,5.092,0,0,0-1.93.33,3.133,3.133,0,0,0-1.31,1.01,4.442,4.442,0,0,0-.74,1.66,11.767,11.767,0,0,0-.01,4.58,4.411,4.411,0,0,0,.73,1.67,3.216,3.216,0,0,0,1.31,1.01,4.968,4.968,0,0,0,1.95.34,4.9,4.9,0,0,0,1.95-.34,3.144,3.144,0,0,0,1.3-1,4.377,4.377,0,0,0,.73-1.66,10.752,10.752,0,0,0,.23-2.31A10.144,10.144,0,0,0,1120.02,1964.32Zm-2.79,4.89a1.219,1.219,0,0,1-1.19.8,1.241,1.241,0,0,1-1.2-.8,9.532,9.532,0,0,1,0-5.26,1.313,1.313,0,0,1,2.4,0,6.88,6.88,0,0,1,.36,2.63A6.681,6.681,0,0,1,1117.23,1969.21Zm12.74-4.89a4.424,4.424,0,0,0-.72-1.66,3.189,3.189,0,0,0-1.3-1.02,4.741,4.741,0,0,0-1.96-.35,5.092,5.092,0,0,0-1.93.33,3.133,3.133,0,0,0-1.31,1.01,4.442,4.442,0,0,0-.74,1.66,11.767,11.767,0,0,0-.01,4.58,4.27,4.27,0,0,0,.74,1.67,3.12,3.12,0,0,0,1.3,1.01,4.968,4.968,0,0,0,1.95.34,4.867,4.867,0,0,0,1.95-.34,3.081,3.081,0,0,0,1.3-1,4.377,4.377,0,0,0,.73-1.66,10.752,10.752,0,0,0,.23-2.31A10.144,10.144,0,0,0,1129.97,1964.32Zm-2.78,4.89a1.3,1.3,0,0,1-2.4,0,9.532,9.532,0,0,1,0-5.26,1.313,1.313,0,0,1,2.4,0A9.787,9.787,0,0,1,1127.19,1969.21Zm-38.57-60.41h0a4.915,4.915,0,0,1-.09,9.83,4.98,4.98,0,0,1-4.82-5,4.9,4.9,0,0,1,4.91-4.83h0Zm-10.65,13.49h0l1.75,1.75a1.622,1.622,0,0,0,2.08.17l1.08-.92a10.027,10.027,0,0,0,2.74,1.17l0.17,1.5a1.434,1.434,0,0,0,1.41,1.33h2.5a1.611,1.611,0,0,0,1.58-1.33l0.16-1.5a8.617,8.617,0,0,0,2.75-1.17l1.25,1a1.5,1.5,0,0,0,1.91-.08l1.83-1.83a1.532,1.532,0,0,0,.09-2l-1-1.25a10.085,10.085,0,0,0,1.08-2.59l1.58-.16a1.528,1.528,0,0,0,1.33-1.5l0.08-2.5a1.521,1.521,0,0,0-1.33-1.5l-1.74-.25a6.462,6.462,0,0,0-1-2.33l1.08-1.34a1.538,1.538,0,0,0-.08-2.08l-1.75-1.75a1.519,1.519,0,0,0-2-.08l-1.33,1a9.216,9.216,0,0,0-2.49-1l-0.17-1.75a1.528,1.528,0,0,0-1.5-1.33l-2.49-.09a1.529,1.529,0,0,0-1.5,1.34l-0.17,1.66a9.347,9.347,0,0,0-2.66,1.08l-1.33-1.08a1.546,1.546,0,0,0-2,.17l-1.74,1.75a1.515,1.515,0,0,0-.17,2l1,1.25a9.876,9.876,0,0,0-1.08,2.58l-1.58.17a1.594,1.594,0,0,0-1.34,1.5v2.5a1.462,1.462,0,0,0,1.34,1.49l1.49,0.25a10.085,10.085,0,0,0,1.08,2.59l-0.99,1.16a1.523,1.523,0,0,0,.08,2h0Zm34.52,13.83h0a5.979,5.979,0,0,1,1.08-11.91,5.979,5.979,0,0,1-1.08,11.91h0Zm13.89-8.58a13.209,13.209,0,0,0-.91-3l1.66-1.75a1.521,1.521,0,0,0,0-2l-2.33-2.75a1.512,1.512,0,0,0-1.99-.33l-2,1.33a12.029,12.029,0,0,0-2.83-1.58l-0.08-2.41a1.6,1.6,0,0,0-1.33-1.5l-3.66-.26a1.456,1.456,0,0,0-1.58,1.17l-0.5,2.25a14.124,14.124,0,0,0-3.33,1.08l-1.66-1.66a1.52,1.52,0,0,0-2,0l-2.83,2.33a1.433,1.433,0,0,0-.25,2l1.17,1.83a14.961,14.961,0,0,0-1.58,3.08l-2.17.09a1.454,1.454,0,0,0-1.49,1.33l-0.34,3.58a1.656,1.656,0,0,0,1.17,1.67l2.16,0.42a10.787,10.787,0,0,0,1,3.25l-1.5,1.58a1.521,1.521,0,0,0,0,2l2.25,2.75a1.544,1.544,0,0,0,2.08.33l1.66-1.17a13,13,0,0,0,3.16,1.75l0.09,2.09a1.386,1.386,0,0,0,1.33,1.41l3.57,0.33a1.486,1.486,0,0,0,1.67-1.16l0.41-2a15.65,15.65,0,0,0,3.5-1.17l1.58,1.5a1.508,1.508,0,0,0,1.99,0l2.83-2.33a1.5,1.5,0,0,0,.25-2l-1.24-1.83a15.813,15.813,0,0,0,1.58-3.09l2.24-.08a1.521,1.521,0,0,0,1.5-1.33l0.33-3.58a1.634,1.634,0,0,0-1.25-1.67Z" transform="translate(-1064.08 -1895.395)"/>
</svg>
