<svg xmlns="http://www.w3.org/2000/svg" viewBox="0 0 56.99 56.99"><defs><style>.cls-1{fill:#fff;}</style></defs><title>Asset 2</title><g id="Layer_2" data-name="Layer 2"><g id="Layer_1-2" data-name="Layer 1"><path class="cls-1" d="M35.17,23.48a6.68,6.68,0,1,0-6.68,6.68A6.68,6.68,0,0,0,35.17,23.48Zm20.15,0H53a25,25,0,0,0-3.64-8.77l1.56-1.56a1.67,1.67,0,0,0,0-2.36L46.2,6.06a1.67,1.67,0,0,0-2.36,0L42.28,7.63A25,25,0,0,0,33.5,4V1.67A1.67,1.67,0,0,0,31.83,0H25.15a1.67,1.67,0,0,0-1.67,1.67V4a25,25,0,0,0-8.77,3.64L13.15,6.06a1.67,1.67,0,0,0-2.36,0L6.06,10.79a1.67,1.67,0,0,0,0,2.36l1.56,1.56A25,25,0,0,0,4,23.48H1.67A1.67,1.67,0,0,0,0,25.15v6.68A1.67,1.67,0,0,0,1.67,33.5H4a25,25,0,0,0,3.64,8.77L6.06,43.84a1.67,1.67,0,0,0,0,2.36l4.72,4.72a1.67,1.67,0,0,0,2.36,0l1.56-1.56A25,25,0,0,0,23.48,53v2.31A1.67,1.67,0,0,0,25.15,57h6.68a1.67,1.67,0,0,0,1.67-1.67V53a25,25,0,0,0,8.77-3.64l1.56,1.56a1.67,1.67,0,0,0,2.36,0l4.72-4.72a1.67,1.67,0,0,0,0-2.36l-1.56-1.56A25,25,0,0,0,53,33.5h2.31A1.67,1.67,0,0,0,57,31.83V25.15A1.67,1.67,0,0,0,55.32,23.48Zm-26.82,20a15,15,0,1,1,15-15A15.08,15.08,0,0,1,28.49,43.52Zm0-13.36a11.58,11.58,0,0,0-9.54,5A11.63,11.63,0,0,0,38,35.2,11.58,11.58,0,0,0,28.49,30.16Z"/></g></g></svg>