<svg xmlns="http://www.w3.org/2000/svg" width="15" height="16" viewBox="0 0 15 16">
  <metadata><?xpacket begin="﻿" id="W5M0MpCehiHzreSzNTczkc9d"?>
<x:xmpmeta xmlns:x="adobe:ns:meta/" x:xmptk="Adobe XMP Core 5.6-c138 79.159824, 2016/09/14-01:09:01        ">
   <rdf:RDF xmlns:rdf="http://www.w3.org/1999/02/22-rdf-syntax-ns#">
      <rdf:Description rdf:about=""/>
   </rdf:RDF>
</x:xmpmeta>
                                                                                                    
                                                                                                    
                                                                                                    
                                                                                                    
                                                                                                    
                                                                                                    
                                                                                                    
                                                                                                    
                                                                                                    
                                                                                                    
                                                                                                    
                                                                                                    
                                                                                                    
                                                                                                    
                                                                                                    
                                                                                                    
                                                                                                    
                                                                                                    
                                                                                                    
                                                                                                    
                           
<?xpacket end="w"?></metadata>
<defs>
    <style>
      .cls-1 {
        fill: #fff;
        fill-rule: evenodd;
      }
    </style>
  </defs>
  <path id="icon_calendar_f" class="cls-1" d="M766.729,5274.07h-1.874v-0.8a0.266,0.266,0,0,0-.267-0.27h-1.874a0.268,0.268,0,0,0-.267.27h0v0.8h-5.89v-0.8a0.265,0.265,0,0,0-.265-0.27h-1.876a0.267,0.267,0,0,0-.268.27h0v0.8h-1.873a0.263,0.263,0,0,0-.268.25v14.41a0.266,0.266,0,0,0,.267.27h14.455a0.267,0.267,0,0,0,.268-0.27h0v-14.4a0.263,0.263,0,0,0-.261-0.26h-0.007Zm-3.748-.54h1.339v1.6h-1.338v-1.6h0Zm-8.3,0h1.339v1.6h-1.337v-1.6h0Zm-2.141,1.07h1.606v0.8a0.266,0.266,0,0,0,.267.27h1.876a0.268,0.268,0,0,0,.267-0.27h0v-0.8h5.89v0.8a0.265,0.265,0,0,0,.265.27h1.876a0.267,0.267,0,0,0,.268-0.27h0v-0.8h1.606v2.4h-13.92v-2.4h0Zm0,13.87v-10.94h13.92v10.94h-13.92Zm9.1-9.34h-7.227v7.74h10.172v-7.74h-2.945Zm-1.874.54h1.874v1.86h-1.874v-1.86Zm1.874,4.26h-1.874v-1.86h1.874v1.86Zm-4.284-1.86h1.874v1.86h-1.874v-1.86Zm0-2.4h1.874v1.86h-1.874v-1.86Zm-2.409,0h1.874v1.86H754.95v-1.86Zm0,2.4h1.874v1.86H754.95v-1.86Zm1.874,4.26H754.95v-1.86h1.874v1.86Zm2.409,0h-1.874v-1.86h1.874v1.86Zm2.409,0h-1.874v-1.86h1.874v1.86Zm2.409,0h-1.874v-1.86h1.874v1.86Zm0-2.4h-1.874v-1.86h1.874v1.86Zm0-4.26v1.86h-1.874v-1.86h1.874Z" transform="translate(-752 -5273)"/>
</svg>
