<svg xmlns="http://www.w3.org/2000/svg" width="77" height="81" viewBox="0 0 77 81">
  <metadata><?xpacket begin="﻿" id="W5M0MpCehiHzreSzNTczkc9d"?>
<x:xmpmeta xmlns:x="adobe:ns:meta/" x:xmptk="Adobe XMP Core 5.6-c138 79.159824, 2016/09/14-01:09:01        ">
   <rdf:RDF xmlns:rdf="http://www.w3.org/1999/02/22-rdf-syntax-ns#">
      <rdf:Description rdf:about=""/>
   </rdf:RDF>
</x:xmpmeta>
                                                                                                    
                                                                                                    
                                                                                                    
                                                                                                    
                                                                                                    
                                                                                                    
                                                                                                    
                                                                                                    
                                                                                                    
                                                                                                    
                                                                                                    
                                                                                                    
                                                                                                    
                                                                                                    
                                                                                                    
                                                                                                    
                                                                                                    
                                                                                                    
                                                                                                    
                                                                                                    
                           
<?xpacket end="w"?></metadata>
<defs>
    <style>
      .cls-1 {
        fill: #fff;
        fill-rule: evenodd;
      }
    </style>
  </defs>
  <path id="icon_earth" class="cls-1" d="M528.093,2371.43l-7.188-7.2a10.076,10.076,0,0,0-9.268-14.01,9.908,9.908,0,0,0-2.653.36,1.126,1.126,0,0,0-.788.79,1.112,1.112,0,0,0,.316,1.09s3.548,3.58,4.735,4.77a0.743,0.743,0,0,1,.107.53l-0.011.08a23.026,23.026,0,0,1-.541,3.48,0.484,0.484,0,0,0-.076.07c-0.027.03-.052,0.05-0.079,0.08a21.973,21.973,0,0,1-3.526.55v-0.01l-0.06.02h-0.056a0.763,0.763,0,0,1-.546-0.23c-1.236-1.24-4.645-4.63-4.645-4.63a1.183,1.183,0,0,0-.829-0.37,1.124,1.124,0,0,0-1.061.86,10.113,10.113,0,0,0,2.6,9.76,10.094,10.094,0,0,0,11.046,2.16l7.266,7.27m-0.221-27.22c1.374,0.78,2.666,1.61,3.92,2.45a40.82,40.82,0,0,0-1.822-6.03,40.383,40.383,0,0,0-6.25,1.45C519.855,2348.15,521.245,2348.85,522.612,2349.63Zm-28.542,13.86a40.49,40.49,0,0,0,4.4,4.62c-0.116-1.51-.2-3.04-0.2-4.62s0.081-3.1.2-4.61A40.6,40.6,0,0,0,494.07,2363.49Zm33.707-17.74a45.413,45.413,0,0,1,2.274,8.89,45.559,45.559,0,0,1,6.67,6.39c2.952-4.53,3.689-8.56,2.049-11.36-1.5-2.56-4.972-3.97-9.777-3.97C528.6,2345.7,528.182,2345.73,527.777,2345.75Zm7.144,17.75a40.991,40.991,0,0,0-4.388-4.58c0.113,1.49.192,3.01,0.192,4.57,0,1.58-.081,3.11-0.2,4.62A40.333,40.333,0,0,0,534.921,2363.5ZM514.5,2381.19a47.887,47.887,0,0,1-8.94,2.5c2.381,4.59,5.532,7.46,8.94,7.46s6.559-2.87,8.938-7.46A47.911,47.911,0,0,1,514.5,2381.19Zm-13.277.05a45.6,45.6,0,0,1-2.276-8.89,46.4,46.4,0,0,1-6.657-6.42c-2.963,4.54-3.7,8.58-2.06,11.39,1.5,2.56,4.969,3.97,9.775,3.97C500.4,2381.29,500.816,2381.25,501.223,2381.24Zm-2.274-26.6a45.6,45.6,0,0,1,2.274-8.89c-0.405-.02-0.822-0.05-1.218-0.05-4.8,0-8.277,1.41-9.775,3.97-1.644,2.81-.9,6.85,2.06,11.39A46.416,46.416,0,0,1,498.949,2354.64Zm15.551-8.84a48.746,48.746,0,0,1,8.938-2.51c-2.379-4.58-5.527-7.45-8.938-7.45s-6.559,2.87-8.94,7.46A47.887,47.887,0,0,1,514.5,2345.8Zm-8.113,31.56c-1.358-.77-2.659-1.6-3.92-2.46a40.475,40.475,0,0,0,1.824,6.04,41.575,41.575,0,0,0,6.248-1.45C509.145,2378.83,507.754,2378.14,506.387,2377.36Zm-3.944,6.73c-0.828.07-1.644,0.11-2.436,0.11a19.065,19.065,0,0,1-7.512-1.36,29.515,29.515,0,0,0,16.117,9.18A20.446,20.446,0,0,1,502.443,2384.09Zm-2.438-41.3c0.792,0,1.607.04,2.438,0.1a20.5,20.5,0,0,1,6.169-7.92,29.517,29.517,0,0,0-16.115,9.18A19.054,19.054,0,0,1,500.005,2342.79Zm-10.017,21.28c0.129-.19.285-0.38,0.418-0.58-0.135-.19-0.289-0.38-0.416-0.57a19.642,19.642,0,0,1-3.466-8.61,28.458,28.458,0,0,0,0,18.37A19.618,19.618,0,0,1,489.988,2364.07Zm39.006,20.13c-0.791,0-1.6-.04-2.435-0.11a20.474,20.474,0,0,1-6.169,7.93,29.53,29.53,0,0,0,16.12-9.18A19.082,19.082,0,0,1,528.994,2384.2Zm9.776-6.88c1.706-2.92.763-7.04-2.076-11.37a46.7,46.7,0,0,1-6.641,6.4,45.74,45.74,0,0,1-2.274,8.89c0.4,0.01.82,0.05,1.215,0.05C533.8,2381.29,537.272,2379.88,538.77,2377.32Zm-16.158.04c-1.367.78-2.757,1.48-4.148,2.13a40.232,40.232,0,0,0,6.246,1.45,40.461,40.461,0,0,0,1.824-6.03C525.271,2375.76,523.972,2376.58,522.612,2377.36Zm-16.227-27.73c1.367-.78,2.757-1.48,4.152-2.13a39.192,39.192,0,0,0-6.246-1.45,40.7,40.7,0,0,0-1.824,6.03C503.728,2351.23,505.027,2350.4,506.385,2349.63Zm20.172-6.74c0.828-.06,1.644-0.1,2.436-0.1a19.077,19.077,0,0,1,7.513,1.36,29.519,29.519,0,0,0-16.116-9.18A20.507,20.507,0,0,1,526.557,2342.89Zm15.918,11.41a19.572,19.572,0,0,1-3.467,8.62c-0.124.18-.278,0.37-0.409,0.56a20.293,20.293,0,0,1,3.876,9.21A28.483,28.483,0,0,0,542.475,2354.3Z" transform="translate(-476 -2323)"/>
</svg>
