<svg xmlns="http://www.w3.org/2000/svg" width="20" height="20" viewBox="0 0 20 20">
  <metadata><?xpacket begin="﻿" id="W5M0MpCehiHzreSzNTczkc9d"?>
<x:xmpmeta xmlns:x="adobe:ns:meta/" x:xmptk="Adobe XMP Core 5.6-c138 79.159824, 2016/09/14-01:09:01        ">
   <rdf:RDF xmlns:rdf="http://www.w3.org/1999/02/22-rdf-syntax-ns#">
      <rdf:Description rdf:about=""/>
   </rdf:RDF>
</x:xmpmeta>
                                                                                                    
                                                                                                    
                                                                                                    
                                                                                                    
                                                                                                    
                                                                                                    
                                                                                                    
                                                                                                    
                                                                                                    
                                                                                                    
                                                                                                    
                                                                                                    
                                                                                                    
                                                                                                    
                                                                                                    
                                                                                                    
                                                                                                    
                                                                                                    
                                                                                                    
                                                                                                    
                           
<?xpacket end="w"?></metadata>
<defs>
    <style>
      .cls-1 {
        fill: #333;
        fill-rule: evenodd;
      }
    </style>
  </defs>
  <path id="icon_phone_pop_up" class="cls-1" d="M1098.21,3496.23a1.41,1.41,0,0,0-2.12,0c-0.5.49-.99,0.98-1.48,1.48a0.3,0.3,0,0,1-.41.08c-0.32-.18-0.66-0.32-0.97-0.51a15.221,15.221,0,0,1-3.7-3.37,8.858,8.858,0,0,1-1.33-2.13,0.3,0.3,0,0,1,.07-0.39c0.5-.48.98-0.97,1.47-1.46a1.4,1.4,0,0,0-.01-2.17c-0.38-.39-0.77-0.78-1.16-1.17s-0.79-.8-1.2-1.2a1.418,1.418,0,0,0-2.12.01c-0.5.49-.97,0.99-1.48,1.48a2.4,2.4,0,0,0-.76,1.62,6.842,6.842,0,0,0,.53,2.97,18.241,18.241,0,0,0,3.2,5.34,19.811,19.811,0,0,0,6.57,5.13,9.45,9.45,0,0,0,3.63,1.06,2.687,2.687,0,0,0,2.29-.87c0.42-.48.9-0.91,1.35-1.36a1.419,1.419,0,0,0,.01-2.16C1099.8,3497.81,1099,3497.02,1098.21,3496.23Zm-0.8-3.32,1.54-.26a6.92,6.92,0,0,0-5.83-5.66l-0.22,1.55A5.323,5.323,0,0,1,1097.41,3492.91Zm2.41-6.67a11.282,11.282,0,0,0-6.5-3.24l-0.22,1.54a9.881,9.881,0,0,1,8.37,8.11l1.54-.27A11.418,11.418,0,0,0,1099.82,3486.24Z" transform="translate(-1083 -3483)"/>
</svg>
