<svg xmlns="http://www.w3.org/2000/svg" width="20" height="20" viewBox="0 0 20 20">
  <metadata><?xpacket begin="﻿" id="W5M0MpCehiHzreSzNTczkc9d"?>
<x:xmpmeta xmlns:x="adobe:ns:meta/" x:xmptk="Adobe XMP Core 5.6-c138 79.159824, 2016/09/14-01:09:01        ">
   <rdf:RDF xmlns:rdf="http://www.w3.org/1999/02/22-rdf-syntax-ns#">
      <rdf:Description rdf:about=""/>
   </rdf:RDF>
</x:xmpmeta>
                                                                                                    
                                                                                                    
                                                                                                    
                                                                                                    
                                                                                                    
                                                                                                    
                                                                                                    
                                                                                                    
                                                                                                    
                                                                                                    
                                                                                                    
                                                                                                    
                                                                                                    
                                                                                                    
                                                                                                    
                                                                                                    
                                                                                                    
                                                                                                    
                                                                                                    
                                                                                                    
                           
<?xpacket end="w"?></metadata>
<defs>
    <style>
      .cls-1 {
        fill: #333;
        fill-rule: evenodd;
      }
    </style>
  </defs>
  <path id="icon_name_pop_up" class="cls-1" d="M1102.33,3420.07c-0.88-1.2-5.32-.7-6-2.07-1.34-2.71-.79-2.21.08-2.88,0.83-.63.79-2.29,1.29-2.88a4.376,4.376,0,0,0,.55-2.95c-0.25-.86-0.64-0.39-0.7-1.04-0.13-1.39.22-2.54-.56-3.22-0.76-.65-1.71-2.01-3.25-2.02a3.6,3.6,0,0,0-1.85.55c-3.33-.35-3.31,3.3-3.44,4.69-0.06.65-.45,0.18-0.7,1.04a4.376,4.376,0,0,0,.55,2.95c0.5,0.59.46,2.25,1.29,2.88,0.87,0.67,1.42.17,0.08,2.88-0.68,1.37-5.13.87-6,2.07a6.336,6.336,0,0,0-.67,2.93h20A6.336,6.336,0,0,0,1102.33,3420.07Z" transform="translate(-1083 -3403)"/>
</svg>
