<svg xmlns="http://www.w3.org/2000/svg" xmlns:xlink="http://www.w3.org/1999/xlink" width="0" height="0" style="position:absolute">
	
		<symbol id="bclass" viewBox="0 0 77 80.21">
			<path d="M18.1 58.16a1.675 1.675 0 0 0 .46-.41 6.5 6.5 0 0 0 .62-1.01 4.013 4.013 0 0 1 .68-1.01 1.251 1.251 0 0 1 .87-.29h.76v-2.21c-.08 0-.22 0-.4-.01s-.39-.01-.62-.01a3.187 3.187 0 0 0-1.76.39 4.1 4.1 0 0 0-1.11 1.32c-.08.15-.18.33-.3.56s-.23.42-.32.58a6.432 6.432 0 0 1-.45.67 2.61 2.61 0 0 1-.39.41 1.384 1.384 0 0 1-.39.18 3.539 3.539 0 0 1-.54.06v-4.15h-2.62v10.18h2.62V59.3h.65l3 4.11h3.22zm14.51-4.93h-7.98c-.01.72-.03 1.36-.04 1.92s-.04 1.07-.07 1.55a20.516 20.516 0 0 1-.29 2.78 2.574 2.574 0 0 1-.71 1.46.867.867 0 0 1-.33.17 2.658 2.658 0 0 1-.57.04h-.18c-.05-.01-.1-.01-.14-.02h-.1v2.28c.07.01.23.02.47.04s.48.03.71.03a2.888 2.888 0 0 0 1.06-.19 2.4 2.4 0 0 0 .83-.52 3.117 3.117 0 0 0 .52-.63 4.53 4.53 0 0 0 .49-1.01 8.825 8.825 0 0 0 .41-1.54 19.386 19.386 0 0 0 .27-2.32q.045-.63.06-1.02c.02-.25.03-.6.06-1.05h2.91v8.21h2.62V53.23zm8.25 0h-3.03l-3.75 10.18h2.64l.71-2.06h3.77l.7 2.06h2.71zm-2.8 6.26l1.25-3.65 1.25 3.65h-2.5zm13.82 4.04a8.32 8.32 0 0 0 .94-.22 5.7 5.7 0 0 0 .73-.25c.23-.11.47-.21.73-.33V60.3h-.27c-.13.11-.28.24-.48.39a4.8 4.8 0 0 1-.62.42 3.961 3.961 0 0 1-.86.39 3.413 3.413 0 0 1-.95.14 3.274 3.274 0 0 1-1.01-.16 2.578 2.578 0 0 1-.93-.54 2.756 2.756 0 0 1-.68-1.01 4.056 4.056 0 0 1-.27-1.59 4.253 4.253 0 0 1 .25-1.56 2.934 2.934 0 0 1 .65-1.03 2.433 2.433 0 0 1 .92-.57 3.147 3.147 0 0 1 1.06-.18 2.833 2.833 0 0 1 .93.15 4.36 4.36 0 0 1 .82.37 6.876 6.876 0 0 1 .66.44q.285.225.48.39h.3v-2.47c-.19-.09-.41-.19-.65-.3s-.53-.2-.83-.29a8.215 8.215 0 0 0-.96-.18 8.023 8.023 0 0 0-1.16-.08 6.2 6.2 0 0 0-2.14.37 4.537 4.537 0 0 0-1.64 1.05 4.648 4.648 0 0 0-1.05 1.69 6.062 6.062 0 0 0-.37 2.19 6.426 6.426 0 0 0 .38 2.29 4.531 4.531 0 0 0 1.07 1.66 4.44 4.44 0 0 0 1.65.99 6.168 6.168 0 0 0 2.1.34 7.349 7.349 0 0 0 1.2-.08zm10.13 0a7.712 7.712 0 0 0 .93-.22 5.846 5.846 0 0 0 .74-.25c.23-.11.47-.21.73-.33V60.3h-.28c-.12.11-.28.24-.47.39a5.6 5.6 0 0 1-.62.42 3.961 3.961 0 0 1-.86.39 3.468 3.468 0 0 1-.95.14 3.274 3.274 0 0 1-1.01-.16 2.578 2.578 0 0 1-.93-.54 2.756 2.756 0 0 1-.68-1.01 4.056 4.056 0 0 1-.27-1.59 4.253 4.253 0 0 1 .25-1.56 2.8 2.8 0 0 1 .65-1.03 2.433 2.433 0 0 1 .92-.57 3.147 3.147 0 0 1 1.06-.18 2.833 2.833 0 0 1 .93.15 4.669 4.669 0 0 1 .82.37 5.656 5.656 0 0 1 .65.44c.2.15.36.28.49.39h.3v-2.47q-.285-.135-.66-.3a7.9 7.9 0 0 0-.83-.29 7.662 7.662 0 0 0-.95-.18 8.023 8.023 0 0 0-1.16-.08 6.163 6.163 0 0 0-2.14.37 4.537 4.537 0 0 0-1.64 1.05 4.808 4.808 0 0 0-1.06 1.69 6.288 6.288 0 0 0-.36 2.19 6.426 6.426 0 0 0 .38 2.29 4.531 4.531 0 0 0 1.07 1.66 4.44 4.44 0 0 0 1.65.99 6.168 6.168 0 0 0 2.1.34 7.349 7.349 0 0 0 1.2-.08zM28.93 77.24l-2.06-1.53 2.06-1.52v-2.1l-4.11 3.16v.92l4.11 3.17v-2.1zm4.28 0l-2.06-1.53 2.06-1.52v-2.1l-4.11 3.16v.92l4.11 3.17v-2.1zm11.44-1.79a2.892 2.892 0 0 0-1.59-.82v-.05a2.5 2.5 0 0 0 1.1-.88 2.24 2.24 0 0 0 .39-1.3 2.2 2.2 0 0 0-.28-1.13 1.976 1.976 0 0 0-.87-.79 3.743 3.743 0 0 0-1.13-.37 15.071 15.071 0 0 0-1.8-.08h-3.95v10.18h4.44a7.183 7.183 0 0 0 1.83-.19 3.991 3.991 0 0 0 1.33-.64 2.826 2.826 0 0 0 .81-.97 2.793 2.793 0 0 0 .3-1.32 2.345 2.345 0 0 0-.58-1.64zm-2.89-1.96a.87.87 0 0 1-.47.4 1.783 1.783 0 0 1-.69.14c-.29.01-.64.02-1.06.02h-.41V71.9h.25c.51 0 .91 0 1.2.01a2.329 2.329 0 0 1 .71.12.775.775 0 0 1 .45.37 1.2 1.2 0 0 1 .13.51 1.5 1.5 0 0 1-.11.58zm.59 4.22a1.09 1.09 0 0 1-.56.45 2.557 2.557 0 0 1-.88.18h-1.78v-2.53h.58c.39 0 .76 0 1.12.01a3.191 3.191 0 0 1 .85.09 1.211 1.211 0 0 1 .64.39 1.342 1.342 0 0 1 .18.75 1.4 1.4 0 0 1-.15.66zm13.94-2.46l-4.11-3.16v2.1l2.06 1.52-2.06 1.53v2.1l4.11-3.17v-.92zm-4.28 0l-4.11-3.16v2.1l2.06 1.52-2.06 1.53v2.1l4.11-3.17v-.92zm1.94-64.95a5.854 5.854 0 1 0-7.62.01 8.026 8.026 0 0 0-1.64 1.14 10.3 10.3 0 0 0-2.29-1.29 5.86 5.86 0 1 0-7.96 0 10.3 10.3 0 0 0-2.29 1.29 8.026 8.026 0 0 0-1.64-1.14 5.856 5.856 0 1 0-7.62-.01 8.212 8.212 0 0 0-4.47 7.28v4.68a1.183 1.183 0 0 0 .81 1.12l4.82 1.57a15.722 15.722 0 0 0 .64 1.58L22.47 31a1.157 1.157 0 0 0 .22 1.35l3.3 3.3a1.157 1.157 0 0 0 1.35.22l4.47-2.22a15.512 15.512 0 0 0 1.57.64l1.58 4.89a1.17 1.17 0 0 0 1.12.81h4.68a1.17 1.17 0 0 0 1.12-.81l1.58-4.89a15.512 15.512 0 0 0 1.57-.64l4.47 2.22a1.157 1.157 0 0 0 1.35-.22l3.3-3.3a1.157 1.157 0 0 0 .22-1.35l-2.22-4.47a15.722 15.722 0 0 0 .64-1.58l4.82-1.57a1.183 1.183 0 0 0 .81-1.12v-4.68a8.212 8.212 0 0 0-4.47-7.28zm-3.81-7.95a3.515 3.515 0 1 1-3.52 3.51 3.515 3.515 0 0 1 3.52-3.51zm-11.72 0a3.515 3.515 0 1 1-3.52 3.51 3.508 3.508 0 0 1 3.52-3.51zm0 9.37a8.219 8.219 0 0 1 8.12 7.03H30.3a8.219 8.219 0 0 1 8.12-7.03zm0 14.06a5.876 5.876 0 0 0 5.74-4.7h2.38a8.2 8.2 0 0 1-16.24.01h2.38a5.867 5.867 0 0 0 5.74 4.69zm-3.31-4.7h6.62a3.5 3.5 0 0 1-6.62 0zM26.7 2.35a3.515 3.515 0 1 1-3.51 3.51 3.517 3.517 0 0 1 3.51-3.51zm-5.93 15.23a5.914 5.914 0 0 1 9.65-4.53 10.585 10.585 0 0 0-2.48 5.7h-7.17v-1.17zm35.3 3.83l-4.56 1.5a1.127 1.127 0 0 0-.75.75 14.4 14.4 0 0 1-.96 2.32 1.186 1.186 0 0 0-.01 1.07l2.11 4.24-2.11 2.11-4.24-2.11a1.186 1.186 0 0 0-1.07.01 14.4 14.4 0 0 1-2.32.96 1.127 1.127 0 0 0-.75.75l-1.5 4.64h-2.98l-1.5-4.64a1.127 1.127 0 0 0-.75-.75 14.4 14.4 0 0 1-2.32-.96 1.186 1.186 0 0 0-1.07-.01l-4.24 2.11-2.11-2.11 2.11-4.24a1.186 1.186 0 0 0-.01-1.07 14.4 14.4 0 0 1-.96-2.32 1.127 1.127 0 0 0-.75-.75l-4.56-1.5v-.32h7.17a10.544 10.544 0 0 0 20.96 0h7.17v.32zm0-2.66H48.9a10.585 10.585 0 0 0-2.48-5.7 5.914 5.914 0 0 1 9.65 4.53v1.17z"></path>
		</symbol>
	
		<symbol id="bg_spare_part" viewBox="0 0 361 353">
			<path d="M747.87 314.85l-38.07-9.26c-1.72-7.38-3.73-14.8-6-22.21l27.23-26.37a22.452 22.452 0 0 0 3.83-27.36l-44.82-77.75a22.39 22.39 0 0 0-25.57-10.35l-36.39 10.42q-7.89-8.445-16.33-16.35l10.41-36.44a22.464 22.464 0 0 0-10.34-25.61l-77.64-44.89a22.382 22.382 0 0 0-27.32 3.84l-26.33 27.27q-11.16-3.435-22.29-6.04l-9.17-36.74a22.427 22.427 0 0 0-21.75-17h-89.64a22.427 22.427 0 0 0-21.75 17l-9.17 36.75q-11.115 2.595-22.29 6.04l-26.33-27.28a22.41 22.41 0 0 0-27.32-3.84l-77.64 44.89a22.464 22.464 0 0 0-10.34 25.61l10.41 36.44q-8.43 7.89-16.33 16.35l-36.39-10.42a22.4 22.4 0 0 0-25.57 10.36l-44.82 77.74a22.452 22.452 0 0 0 3.83 27.36l27.23 26.37q-3.4 11.13-6 22.22l-38.07 9.25A22.426 22.426 0 0 0 .01 336.66v44.88a22.427 22.427 0 0 0 22.41 22.45h270.43a22.436 22.436 0 0 0 22.42-22.45 67.23 67.23 0 1 1 134.46 0 22.436 22.436 0 0 0 22.42 22.45h270.43a22.427 22.427 0 0 0 22.41-22.45v-44.88a22.426 22.426 0 0 0-17.12-21.81zM492.31 359.1c-10.42-51.16-55.7-89.77-109.81-89.77s-99.39 38.61-109.81 89.77h-45.46c10.9-76.03 76.38-134.66 155.27-134.66s144.36 58.63 155.27 134.66h-45.46zm227.86 0H582.95c-11.18-100.85-96.81-179.54-200.45-179.54S193.23 258.25 182.05 359.1H44.83v-4.8l34.68-8.43a22.419 22.419 0 0 0 16.75-17.72 291.232 291.232 0 0 1 11.76-43.64 22.477 22.477 0 0 0-5.55-23.61L77.7 236.92l27.33-47.4 33.06 9.48a22.416 22.416 0 0 0 23.19-6.98 293.609 293.609 0 0 1 31.96-32.01 22.46 22.46 0 0 0 6.97-23.22l-9.46-33.11 47.33-27.36 23.95 24.8a22.371 22.371 0 0 0 23.57 5.56 290.321 290.321 0 0 1 43.58-11.78 22.428 22.428 0 0 0 17.66-16.62l8.33-33.38h54.65l8.34 33.38a22.428 22.428 0 0 0 17.66 16.62 290.642 290.642 0 0 1 43.58 11.78 22.371 22.371 0 0 0 23.57-5.56l23.95-24.8 47.33 27.36-9.46 33.11a22.46 22.46 0 0 0 6.97 23.22 293.609 293.609 0 0 1 31.96 32.01 22.416 22.416 0 0 0 23.19 6.98l33.06-9.48 27.33 47.4-24.77 23.98a22.461 22.461 0 0 0-5.56 23.61 290.1 290.1 0 0 1 11.77 43.64 22.419 22.419 0 0 0 16.75 17.72l34.68 8.43v4.8z"></path>
		</symbol>
	
		<symbol id="calend" viewBox="0 0 77 81">
			<path data-name="1995" d="M55.014 16.46V12h-3.34v4.46h-11.5V12h-3.34v4.46h-11.5V12h-3.34v4.46H10V69h57V16.46H55.014zm8.646 49.2H13.34V32.67h50.32v32.99zm0-36.33H13.34V19.8h8.646v4.61h3.34V19.8h11.5v4.61h3.34V19.8h11.5v4.61h3.34V19.8h8.646v9.53zM26.389 51.18h-2.1v-8.43h-2.262a1.41 1.41 0 0 1-.205.68 1.352 1.352 0 0 1-.534.45 2.713 2.713 0 0 1-.752.2 7.142 7.142 0 0 1-.943.06v1.66h2.147v5.38h-2.147v1.78h6.8v-1.78zm10.063-6.11a3.67 3.67 0 0 0-.937-1.49 3.318 3.318 0 0 0-1.268-.77 5.415 5.415 0 0 0-1.685-.25 4.307 4.307 0 0 0-2.984 1.03 3.443 3.443 0 0 0-1.138 2.67 3.663 3.663 0 0 0 .338 1.67 2.8 2.8 0 0 0 1.86 1.49 3.953 3.953 0 0 0 1.1.14 3.845 3.845 0 0 0 1.268-.18 6.626 6.626 0 0 0 1.1-.52 3.137 3.137 0 0 1-.349 1.11 2.408 2.408 0 0 1-.663.77 2.44 2.44 0 0 1-.882.42 4.085 4.085 0 0 1-1.046.13 3.609 3.609 0 0 1-1.035-.11 4.46 4.46 0 0 1-.585-.2h-.273v2a6.754 6.754 0 0 0 .772.11 10.826 10.826 0 0 0 1.094.06 7.077 7.077 0 0 0 2.5-.4 4.515 4.515 0 0 0 1.8-1.22 4.863 4.863 0 0 0 1-1.86 8.283 8.283 0 0 0 .328-2.38 6.892 6.892 0 0 0-.315-2.22zm-2.314 2.26c-.007.1-.011.17-.011.22a3.713 3.713 0 0 1-.56.16 3.354 3.354 0 0 1-.67.08 3.143 3.143 0 0 1-.708-.08 1.493 1.493 0 0 1-.564-.26 1.293 1.293 0 0 1-.4-.52 1.94 1.94 0 0 1-.144-.8 2.43 2.43 0 0 1 .134-.85 1.67 1.67 0 0 1 .345-.58 1.3 1.3 0 0 1 .468-.31 1.266 1.266 0 0 1 .509-.1 1.662 1.662 0 0 1 .547.1 1.159 1.159 0 0 1 .458.31 2.08 2.08 0 0 1 .441.84 4.868 4.868 0 0 1 .161 1.37c.004.19 0 .33-.006.42zm12.267-2.26a3.67 3.67 0 0 0-.937-1.49 3.318 3.318 0 0 0-1.268-.77 5.415 5.415 0 0 0-1.685-.25 4.309 4.309 0 0 0-2.984 1.03 3.443 3.443 0 0 0-1.138 2.67 3.663 3.663 0 0 0 .338 1.67 2.8 2.8 0 0 0 1.86 1.49 3.953 3.953 0 0 0 1.1.14 3.845 3.845 0 0 0 1.268-.18 6.626 6.626 0 0 0 1.1-.52 3.137 3.137 0 0 1-.349 1.11 2.408 2.408 0 0 1-.663.77 2.44 2.44 0 0 1-.882.42 4.079 4.079 0 0 1-1.046.13 3.609 3.609 0 0 1-1.035-.11 4.46 4.46 0 0 1-.585-.2h-.273v2a6.754 6.754 0 0 0 .772.11 10.826 10.826 0 0 0 1.094.06 7.07 7.07 0 0 0 2.5-.4 4.508 4.508 0 0 0 1.8-1.22 4.849 4.849 0 0 0 1-1.86 8.283 8.283 0 0 0 .328-2.38 6.892 6.892 0 0 0-.315-2.22zm-2.314 2.26c-.007.1-.011.17-.011.22a3.713 3.713 0 0 1-.56.16 3.354 3.354 0 0 1-.67.08 3.143 3.143 0 0 1-.708-.08 1.493 1.493 0 0 1-.564-.26 1.293 1.293 0 0 1-.4-.52 1.94 1.94 0 0 1-.144-.8 2.43 2.43 0 0 1 .134-.85 1.686 1.686 0 0 1 .345-.58 1.3 1.3 0 0 1 .468-.31 1.266 1.266 0 0 1 .509-.1 1.662 1.662 0 0 1 .547.1 1.152 1.152 0 0 1 .458.31 2.08 2.08 0 0 1 .441.84 4.868 4.868 0 0 1 .161 1.37c.003.19.003.33-.006.42zm12.233.62a2.694 2.694 0 0 0-.971-.99 4.223 4.223 0 0 0-1.138-.45 6.767 6.767 0 0 0-1.5-.16c-.164 0-.354 0-.571.01s-.395.02-.536.03v-1.67h4.771v-1.94H49.14v5.74h.3c.282-.07.612-.14.988-.21a6.427 6.427 0 0 1 1.179-.11 6.711 6.711 0 0 1 .943.08 2.17 2.17 0 0 1 .889.29 1.368 1.368 0 0 1 .413.42 1.114 1.114 0 0 1 .161.61 1.5 1.5 0 0 1-.12.68 1.96 1.96 0 0 1-.352.43 1.63 1.63 0 0 1-.8.35 4.555 4.555 0 0 1-.933.1 4.487 4.487 0 0 1-1.429-.24 7.353 7.353 0 0 1-1.34-.62h-.287v2.25a6.968 6.968 0 0 0 1.378.42 9.951 9.951 0 0 0 2.068.2 6.591 6.591 0 0 0 1.862-.25 4.313 4.313 0 0 0 1.446-.77 3.22 3.22 0 0 0 .865-1.17 3.609 3.609 0 0 0 .3-1.47 3.191 3.191 0 0 0-.347-1.56z"></path>
		</symbol>
	
		<symbol id="cancel" viewBox="0 0 18 18">
			<path d="M18 1.41L16.59 0 9 7.59 1.41 0 0 1.41 7.59 9 0 16.59 1.41 18 9 10.41 16.59 18 18 16.59 10.41 9z"></path>
		</symbol>
	
		<symbol id="cart" viewBox="0 0 77 81">
			<path d="M61.183 32.65l-35.529-3.31a2.663 2.663 0 0 0-.561-.02l-1.422-6.88a2.248 2.248 0 0 0-.126-.39 2.017 2.017 0 0 0-1.284-1.18l-6.776-1.99a1.975 1.975 0 1 0-1.112 3.79l5.652 1.67 6.8 32.77a1.965 1.965 0 0 0 1.96 1.71l29.235-.01a1.97 1.97 0 1 0 0-3.94l-27.618.01-.94-4.53h29.073a3.118 3.118 0 0 0 3.119-2.4l2.35-11.85a3.008 3.008 0 0 0-2.821-3.45zM34.402 60.61a3.945 3.945 0 1 1-3.944 3.95 3.948 3.948 0 0 1 3.944-3.95zm18.847 0a3.945 3.945 0 1 1-3.943 3.95 3.948 3.948 0 0 1 3.944-3.95zM31.02 27.81l.447.05 1.4.12 5.756.54.206-2.21a5.441 5.441 0 1 1 10.834 1.02l-.206 2.21 5.755.54 1.834.17a1.221 1.221 0 0 0 1.341-1.11l.184-1.97a1.219 1.219 0 0 0-1.112-1.34l-1.835-.18a11.071 11.071 0 0 0-1.318-4.26l1.422-1.18a1.246 1.246 0 0 0 .16-1.75l-1.261-1.52a1.231 1.231 0 0 0-1.743-.16l-1.433 1.17a11.49 11.49 0 0 0-3.943-2.09l.172-1.83a1.234 1.234 0 0 0-1.112-1.35l-1.972-.18a1.229 1.229 0 0 0-1.342 1.11l-.172 1.84a11.132 11.132 0 0 0-4.264 1.32l-1.181-1.43a1.249 1.249 0 0 0-1.743-.16l-1.525 1.27a1.233 1.233 0 0 0-.16 1.74l1.181 1.42a11.473 11.473 0 0 0-2.087 3.95l-1.834-.18a1.237 1.237 0 0 0-1.342 1.12l-.183 1.97a1.181 1.181 0 0 0 1.076 1.34z"></path>
		</symbol>
	
		<symbol id="fb" viewBox="0 0 32 32">
			<path d="M18 32V18h6l1-6h-7V9c0-2 1.002-3 3-3h3V0h-5c-5 0-7 3-7 8v4H6v6h6v14h6z"></path>
		</symbol>
	
		<symbol id="fly-1" viewBox="0 0 15 16">
			<path d="M12.99 2.055L1.714 7.705a.365.365 0 0 0-.193.3.358.358 0 0 0 .166.32l2.641 1.62v3.69a.339.339 0 0 0 .24.33.348.348 0 0 0 .392-.12l1.8-2.4 4.05 2.49a.341.341 0 0 0 .325.02.331.331 0 0 0 .2-.25l2.153-11.27v-.01a.353.353 0 0 0-.3-.4.332.332 0 0 0-.198.03zm-8.329 7.27l-2.069-1.27 8.259-4.14zm.369 3.26v-2.65l5.815-5.08c-.13.17-5.666 7.53-5.818 7.73zm5.719.49l-3.561-2.19 5.335-7.09z"></path>
		</symbol>
	
		<symbol id="icon_batteries" viewBox="0 0 49.125 40">
			<path d="M7.314 9.059h5.142v1.6H7.314v-1.6zm30.981 3.4h1.583v-1.8h1.784v-1.6h-1.779v-1.8H38.3v1.8h-1.778v1.6H38.3v1.794zm10.83-9.793v37.332H-.002V2.661h7.316V0h5.142v2.659h24.212V0h5.143v2.659h7.314zM3.168 36.799h17.408l2.5-15.242h-7.824l6.514-15.693h-18.6v30.935zM45.955 5.866H29.824l-5.5 9.452h6.438l-9.723 21.481h24.913V5.861z"></path>
		</symbol>
	
		<symbol id="icon_oil" viewBox="0 0 27.12 40">
			<path d="M26.83 18.725l-.08-.1-.02-.019L15.55 5.045l-.31-.374a1.236 1.236 0 0 0-.82-.3h-3.87V3.42H4.53v.943H1.3A1.29 1.29 0 0 0 .01 5.655v33.053A1.29 1.29 0 0 0 1.3 40h24.52a1.29 1.29 0 0 0 1.29-1.292V19.514a1.2 1.2 0 0 0-.28-.789zm-4.15 17.1H4.02V22.182h18.66v13.645zm-6.22-17.354l-.75-9.3 7.21 9.045.4.5zm-.91-13.432l-.31-.375a1.123 1.123 0 0 1 .31.377zM11.06 2.77H4.02V0h7.04v2.773zm5.18 26.18l-.05-.077-2.62-4.684-2.78 4.936a3.048 3.048 0 0 0-.39 1.531 3.165 3.165 0 1 0 5.84-1.704zm-3.31 3.916c-.22.3-.65.032-.91-.11a1.527 1.527 0 0 1-.86-1.085c.09-.6.69-.195 1.03.089a1.929 1.929 0 0 1 .74 1.108z"></path>
		</symbol>
	
		<symbol id="icon_tire" viewBox="0 0 35.35 40">
			<path d="M15.99 37.9a4.965 4.965 0 0 1-1.42-.02c-.11-.052.13-.3.43-.546.34-.284.03-.575-.14-.723a18.612 18.612 0 0 1-1.58-1.607 1.186 1.186 0 0 0-.97-.42 16.254 16.254 0 0 1-2.12-.012 3.5 3.5 0 0 1 1.05-.994.818.818 0 0 0 .15-1.146 20.908 20.908 0 0 1-1.24-2.38.9.9 0 0 0-.84-.51c-.84-.012-1.78.045-1.91-.015a5.615 5.615 0 0 1 1.37-1.355 1.044 1.044 0 0 0 .28-1.138c-.23-.961-.49-1.932-.65-2.941a.817.817 0 0 0-.8-.727 9.6 9.6 0 0 1-1.64-.022 5.72 5.72 0 0 1 1.49-1.343 1.2 1.2 0 0 0 .65-1.15c.02-.244-.02-.491-.02-.738a19.93 19.93 0 0 1 .13-2.457c.09-.745-.36-.9-.61-.884a10 10 0 0 1-1.65.023 9.022 9.022 0 0 1 2.05-1.5 1.694 1.694 0 0 0 .79-1.054c.27-.93.51-1.861.85-2.739a.606.606 0 0 0-.65-.919 10.409 10.409 0 0 1-1.62 0 9.837 9.837 0 0 1 2.6-1.414 2.743 2.743 0 0 0 1.38-1.207c.4-.627.83-1.22 1.24-1.818s-.04-.666-.31-.666a17.627 17.627 0 0 1-2.04 0 15.891 15.891 0 0 1 3.43-1.263 2.838 2.838 0 0 0 1.24-.623c.46-.377.89-.781 1.37-1.117.43-.3.08-.359-.11-.363-1.12-.015-2.13.082-2.3 0a23.442 23.442 0 0 1 4.03-.7A20.936 20.936 0 0 1 21.86.007c-.3 0-.55 0-.65.01h-6.67c-.37.047-1.98-.022-2.27 0a6.6 6.6 0 0 0-2 .449c-.48.192-.64.806-.31.936a5.71 5.71 0 0 1 1.56.7 24.5 24.5 0 0 1-3.09-.079 2.537 2.537 0 0 0-1.34.12 5.422 5.422 0 0 0-1.1 1.015.619.619 0 0 0 .05.962c.35.16 2.03 1.281 1.8 1.393a18.161 18.161 0 0 1-3.1.208 1.017 1.017 0 0 0-1.09.3 11.073 11.073 0 0 0-1.06 1.978 1.016 1.016 0 0 0 .11 1.155 13.737 13.737 0 0 1 2.35 1.41 24.516 24.516 0 0 0-2.99.29.7.7 0 0 0-.83.426 15.95 15.95 0 0 0-.63 2.508.984.984 0 0 0 .41 1.069 19.133 19.133 0 0 1 2.62 1.906c-.43-.025-2.66.506-3 .512a.643.643 0 0 0-.59.712A13.33 13.33 0 0 0 0 19.664c0 .3.01.609.02.909a1.417 1.417 0 0 0 .77 1.095c.51.24 3.1 1.512 2.87 1.629-.19.095-2.53.384-2.77.392-.55.017-.62.561-.55 1.006a14.423 14.423 0 0 0 .46 2.388 1.085 1.085 0 0 0 .65.706c.29.1 3.96 1.591 3.72 1.708a23.214 23.214 0 0 1-2.73.53c-.46.025-.41.678-.2 1.154a7.471 7.471 0 0 0 .73 1.516 1.845 1.845 0 0 0 .72.5 31.493 31.493 0 0 1 4.23 1.349c-.2.1-2.42.2-2.83.227s-.36.64-.13.921a6.129 6.129 0 0 0 1.11 1.155 2.993 2.993 0 0 0 1.28.337 38.578 38.578 0 0 1 4.25.725 25.74 25.74 0 0 1-2.79.394c-.41-.019-.08.539.2.681a9.736 9.736 0 0 0 2.21.8.458.458 0 0 0 .09.009c.26 0 1.94.16 2.24.16.38 0 5.53.028 8.05.04a21.09 21.09 0 0 1-4.79-1.906 1.361 1.361 0 0 0-.82-.189zM35.3 18.163a.665.665 0 0 0-.6-.75.035.035 0 0 1-.02.02c-.05-.553-.11-1.1-.19-1.642a.138.138 0 0 0 .02 0 .943.943 0 0 0 .39-1.012 28.078 28.078 0 0 0-.79-3.229 1.192 1.192 0 0 0-.78-.589l-.5-1.23c0-.008.01-.005.02-.011a1.112 1.112 0 0 0 .13-1.147 20.613 20.613 0 0 0-1.45-2.645 1.351 1.351 0 0 0-1.01-.276 9.038 9.038 0 0 0-.61-.785c0-.014.01-.006.02-.02a1.1 1.1 0 0 0-.13-1.152 13.5 13.5 0 0 0-1.95-1.748 3.716 3.716 0 0 0-1.47-.022l-.3-.154a.169.169 0 0 1 .02-.024.941.941 0 0 0-.38-1.02 9.433 9.433 0 0 0-2.23-.642 5.447 5.447 0 0 0-4.95 1.572c1.02.122-1.29 1.746-1.11.794a16.643 16.643 0 0 0-1.9 1.736c.97.094-.85 2.4-1.14 1.333a19.991 19.991 0 0 0-2.06 3.286c.89-.266-.18 2.66-.81 1.835a23.149 23.149 0 0 0-1.18 4.087c.83-.305.44 2.361-.31 1.978a28.854 28.854 0 0 0-.2 3.407c0 .244.01.487.01.729.81-.339 1.2 2.1.13 2.12a25.4 25.4 0 0 0 .74 4.166c.49-.482 1.76 1.633.62 1.968a21.342 21.342 0 0 0 1.52 3.263c.3-.577 1.83 1.309.96 1.5a18.6 18.6 0 0 0 2.23 2.6c.14-.549 1.73.654 1.11.974a16.36 16.36 0 0 0 4.48 2.57l1.34.006a5.8 5.8 0 0 0 1.54-.217 3.633 3.633 0 0 0 .88-1s1.07-.051 1.29-.051a.383.383 0 0 0 .19-.055 12.324 12.324 0 0 0 2.04-1.508 1.094 1.094 0 0 0 .19-1.13l-.02-.018a7.957 7.957 0 0 0 .66-.726 6.255 6.255 0 0 0 .66.061.449.449 0 0 0 .35-.2 17.83 17.83 0 0 0 1.59-2.459 1.143 1.143 0 0 0-.07-1.16.2.2 0 0 0-.03-.014c.22-.446.38-.744.58-1.221.01.008.24-.022.34-.022a.549.549 0 0 0 .47-.416 27.409 27.409 0 0 0 .95-3.123.994.994 0 0 0-.33-1.056h-.02c.11-.529.2-1.069.28-1.615a.015.015 0 0 1 .01.016.561.561 0 0 0 .1.01.679.679 0 0 0 .54-.684 29.962 29.962 0 0 0 .19-3.428c0-.624-.02-1.234-.05-1.835zM23.04 32.72c-4.2 0-7.6-5.689-7.6-12.7s3.4-12.706 7.6-12.706 7.59 5.688 7.59 12.706-3.39 12.695-7.59 12.695z"></path>
		</symbol>
	
		<symbol id="icon_tractor" viewBox="0 0 49.031 40">
			<path d="M40.837 29.388a2.45 2.45 0 1 0 2.451 2.449 2.452 2.452 0 0 0-2.451-2.449zm7.352 0h-.1a10.552 10.552 0 0 0-.68-1.366.817.817 0 0 0 0-1.155l-1.6-1.6a.841.841 0 0 0-1.155 0 10.407 10.407 0 0 0-1.367-.678v-.1a.816.816 0 0 0-.817-.816h-3.267a.816.816 0 0 0-.817.816v.1a10.407 10.407 0 0 0-1.367.678.817.817 0 0 0-1.155 0l-1.6 1.6a.817.817 0 0 0 0 1.155 10.7 10.7 0 0 0-.681 1.366h-.1a.817.817 0 0 0-.817.817v3.265a.816.816 0 0 0 .817.816h.1a10.631 10.631 0 0 0 .681 1.366.817.817 0 0 0 0 1.155l1.6 1.6a.818.818 0 0 0 1.155 0 10.3 10.3 0 0 0 1.367.679v.1a.816.816 0 0 0 .817.816h3.267a.816.816 0 0 0 .817-.816v-.1a10.3 10.3 0 0 0 1.367-.679.818.818 0 0 0 1.155 0l1.6-1.6a.817.817 0 0 0 0-1.155 10.489 10.489 0 0 0 .68-1.366h.1a.816.816 0 0 0 .817-.816v-3.265a.817.817 0 0 0-.817-.817zm-7.352 6.531a4.082 4.082 0 1 1 4.085-4.082 4.087 4.087 0 0 1-4.085 4.082zM7.346 29.388a3.266 3.266 0 1 0 3.268 3.266 3.27 3.27 0 0 0-3.268-3.266zM37.57 4.9h6.535v8.163H37.57V4.9zm-4.412 20.87a9.971 9.971 0 0 1 1.5-1.528c.08-.065.166-.123.248-.185.185-.142.373-.28.566-.407.129-.085.263-.162.395-.24.159-.094.318-.186.482-.271.147-.076.3-.147.447-.215s.328-.143.5-.208c.151-.059.3-.116.458-.168a9.47 9.47 0 0 1 .553-.161c.146-.04.291-.08.439-.113a9.76 9.76 0 0 1 .663-.114c.122-.018.242-.043.367-.056a9.831 9.831 0 0 1 1.062-.06 9.896 9.896 0 0 1 1.629.143c.126.021.254.041.38.067.1.021.192.048.289.071a9.77 9.77 0 0 1 1 .3c.024.01.049.017.073.026a9.951 9.951 0 0 1 1.835.9c.011.007.025.007.037.013a9.953 9.953 0 0 1 1.54 1.2.817.817 0 1 0 1.131-1.178 11.429 11.429 0 0 0-1.261-1.032l1.452-3.466a.805.805 0 0 0 .063-.315V.813a.817.817 0 0 0-.817-.817H25.317a.817.817 0 0 0-.817.817v2.449h8.985a.816.816 0 0 1 .817.816v9.8a.816.816 0 0 1-.817.816H19.599v-4.9a.816.816 0 0 0-.817-.816h-.817v-2.45a1.635 1.635 0 0 1 1.634-1.632.817.817 0 1 0 0-1.633 3.27 3.27 0 0 0-3.267 3.265v2.45h-.817a.816.816 0 0 0-.817.816v4.9H6.529a4.087 4.087 0 0 0-4.084 4.082v8.418a7.343 7.343 0 1 0 12.063 7.094h15.164a11.421 11.421 0 0 0 .608 1.952.819.819 0 0 0 .754.5.835.835 0 0 0 .315-.063.816.816 0 0 0 .439-1.068 9.745 9.745 0 0 1-.625-2.253.045.045 0 0 0 0-.011 10.122 10.122 0 0 1-.129-1.508 10.233 10.233 0 0 1 .129-1.508 9.819 9.819 0 0 1 1.234-3.451l.067-.109a9.483 9.483 0 0 1 .615-.9c.027-.032.052-.069.079-.102zm2.779-21.69a.816.816 0 0 1 .817-.816h8.168a.816.816 0 0 1 .817.816v9.8a.816.816 0 0 1-.817.816h-8.168a.816.816 0 0 1-.817-.816v-9.8zM23.684 26.123h4.085a.816.816 0 1 1 0 1.632h-4.085a.816.816 0 1 1-.001-1.632zm-7.352-5.715v-9.8h1.634v12.246h-1.634v-2.449zm-3.317 12.961a5.715 5.715 0 1 1-9.2-5.2 5.855 5.855 0 0 1 .72-.485c.023-.013.044-.028.066-.04a5.548 5.548 0 0 1 .751-.338c.061-.023.121-.047.183-.067a5.56 5.56 0 0 1 .776-.2c.058-.011.117-.018.176-.027a5.726 5.726 0 0 1 .861-.072 5.859 5.859 0 0 1 .764.057c.068.009.136.02.2.031a5.677 5.677 0 0 1 .641.146c.051.015.1.029.152.046a5.759 5.759 0 0 1 .585.228 6.127 6.127 0 0 1 .682.367c.113.071.223.146.331.225a5.356 5.356 0 0 1 .598.498 5.476 5.476 0 0 1 .4.429c.047.056.092.114.137.171a5.876 5.876 0 0 1 .358.514c.031.049.062.1.09.149a5.862 5.862 0 0 1 .348.7c.011.028.019.055.031.083.055.144.107.287.151.434.013.044.022.089.035.133.036.131.071.262.1.395.016.083.025.168.038.251.015.1.033.195.043.294.018.185.028.372.028.562a5.639 5.639 0 0 1-.046.716zM4.08 19.592v-.817a2.452 2.452 0 0 1 2.45-2.449h8.169v3.266H4.079zm25.357 13.062H14.698a7.655 7.655 0 0 0-.044-.791c-.009-.071-.023-.142-.033-.213a6.084 6.084 0 0 0-.1-.571c0-.02-.006-.039-.011-.058h14.927a9.258 9.258 0 0 0 0 1.633zm.782-8.164h-4.082a.817.817 0 1 1 0-1.633h4.084a.817.817 0 1 1-.003 1.633zM24.5 4.9h8.169v8.163H24.5V4.9z"></path>
		</symbol>
	
		<symbol id="icon_truck" viewBox="0 0 82.875 40">
			<path d="M81.504 0H23.476a1.5 1.5 0 0 0-1.382 1.591V19.31a1.38 1.38 0 0 0 1.382 1.379h58.028a1.38 1.38 0 0 0 1.382-1.379V1.6A1.5 1.5 0 0 0 81.504 0zm0 23.444H42.818a1.38 1.38 0 0 0-1.381 1.378V33a1.378 1.378 0 0 0 1.376 1.5h4.151a5.526 5.526 0 0 0 11.052-.013h8.289a5.527 5.527 0 0 0 11.053 0h4.145a1.381 1.381 0 0 0 1.382-1.379v-8.275a1.38 1.38 0 0 0-1.381-1.385zM52.49 37.234a2.758 2.758 0 1 1 2.763-2.758 2.763 2.763 0 0 1-2.763 2.762zm19.343 0a2.758 2.758 0 1 1 2.763-2.758 2.764 2.764 0 0 1-2.759 2.762zm-34.541-13.79h-16.58a1.381 1.381 0 0 1-1.381-1.38V8.274a1.381 1.381 0 0 0-1.382-1.379H6.896a1.381 1.381 0 0 0-1.283.867L.087 21.55a67.03 67.03 0 0 1-.1.514v13.791a1.381 1.381 0 0 0 1.381 1.379h4.914a5.511 5.511 0 0 0 10.285-2.758h5.526a5.527 5.527 0 0 0 11.053 0h4.145a1.381 1.381 0 0 0 1.382-1.379v-8.275a1.38 1.38 0 0 0-1.381-1.374zM4.451 20.685a.689.689 0 0 1-.637-.957l2.9-6.9a.69.69 0 0 1 .636-.422h4.387a.691.691 0 0 1 .691.689v6.9a.691.691 0 0 1-.691.689H4.456zm6.59 16.549a2.758 2.758 0 1 1 2.763-2.758 2.763 2.763 0 0 1-2.767 2.762zm16.58 0a2.758 2.758 0 1 1 2.763-2.758 2.764 2.764 0 0 1-2.763 2.762z"></path>
		</symbol>
	
		<symbol id="kamaz" viewBox="0 0 135.562 160">
			<path d="M90.019 85.425c.391 1.107-.109 2.372.283 3.363a94.565 94.565 0 0 0 1.758 3.911c.5 1.04.833 2.147 1.6 3.579.441.874 1.216.99 1.6 1.814a17.228 17.228 0 0 1 .775 3.745 3.012 3.012 0 0 1-.825 1.207 8.566 8.566 0 0 1-1.324.058 13.736 13.736 0 0 1-2.316-3.3c-.441-1.1.108-1.922-.225-2.921a27.326 27.326 0 0 0-3.465-6.333 6.976 6.976 0 0 0-1.991-1.041 15.892 15.892 0 0 1-3.416-7.107 2.872 2.872 0 0 1 2.258-1.431 11.984 11.984 0 0 1 5.29 4.46zm11.412 29.353a1.954 1.954 0 0 1 .225 1.432c-.333.824-2.1 1.706-3.915 2.03-.392-2.913-.55-4.951-.883-6.99-.717-.059-1.266.274-1.541 0-.109-1.1.108-2.913.883-3.246 1.1-.441 4.79 5.776 5.231 6.774zm-10.638-3.911c-.05 0-.108.05-.166.05-2.808-1.865-4.848-3.9-5.182-6.051-4.74-3.087-5.781-4.96-7.655-10.735-.717-1.548-2.149-2.039-3.366-2.589-1.266-.549-2.315-1.1-2.149-2.813a6.478 6.478 0 0 1 1.325-2.58c4.19-5.068 4.8 1.041 8.547 4.345 6.006 4.294 3.906 8.863 7.488 14.148a12.414 12.414 0 0 1 1.158 6.225zM68.31 74.473c-1.266 3.3-1.433 2.747-4.357 3.246a2.176 2.176 0 0 1-.824-2.039c2.865-.824 2.923-2.422 2.865-4.02-.658-2.147-1.982-2.862-3.69-3.686a5.694 5.694 0 0 1-.775-2.805 3.022 3.022 0 0 1 1.816-1.323c2.208-.167 5.515.216 7.223 1.323a12.045 12.045 0 0 1 1.6 3.961 4.142 4.142 0 0 0 .108.716 22.292 22.292 0 0 0-3.965 4.627zm-9.538 6.991c-.875-.275-4.407-1.215-5.506-1.431-1.492-.217-2.483.166-4.024.058a30.376 30.376 0 0 1-5.623-3.138c-.058.325-2.257-5.734-2.149-7.548a4.668 4.668 0 0 1 3.307-.882c1.649 1.215 4.348 3.3 6.614 5.118-.108 2.6 1.758 3.038 3.307 2.871 2.15.991 4.849 2.089 6.173 2.58 1.433.558.883 2.147-2.1 2.372zm-.383 17.394c1.432 1.764.716 2.538-1.217 2.7-2.582-3.47-5.506-8.314-8.921-10.844-.992-.774-1.708-1.215-1.325-1.93a5.9 5.9 0 0 1 1.1-1.215c2.424-2.031 5.023-.05 5.9 3.245.608 2.372 3.248 7.166 4.465 8.04zm1.324-75.151c.492-.441-.333-.715.825-.824a4.244 4.244 0 0 1 2.974 2.472 2.386 2.386 0 0 1 .116 2.1 70.724 70.724 0 0 0-1.707 7.041c-.558 2.871-1.05 6.059-1.441 8.93a63.073 63.073 0 0 0-.55 4.56 21.079 21.079 0 0 0-.167 2.314c-.158 1.431-.275 3.254-.875.383a13.92 13.92 0 0 1-.391-3.238c-.658-6.94.991-18.225 1.216-23.735zm6.281 20.756c.109-.774.109-.6.825-.657a14.982 14.982 0 0 1 5.073.824c1.541.382 2.807.882 3.64 1.048.384.108.492.158.492-.333v-.333c0-.158-.05-.274-.05-.382-.058-.383.108-.383.433-.333a4.917 4.917 0 0 1 1.275.224c6.5 2.314 9.529 18.834 5.731 23.727a23.958 23.958 0 0 0-3.807 1.377 1.962 1.962 0 0 0 .275 1.206 4.912 4.912 0 0 1 1.932.5 9.484 9.484 0 0 1 2.316 4.452c.108.724-1.433 1.107-2.865 1.215a5.7 5.7 0 0 1-2.483-1.98 3.455 3.455 0 0 0-2.757-1.382 5.462 5.462 0 0 1-2.366.225 1.5 1.5 0 0 1 .108-1.6 7.835 7.835 0 0 1 1.875-.99c.491-.217.491 0 .441-.608-.55-4.785-3.307-8.039-6.339-11.335a17.19 17.19 0 0 1-2.7-3.8c-.883-3.629-1.6-7.274-1.05-11.069zm4.465-34.737c1.216.383 1.6 2.03-.658 1.922a4.088 4.088 0 0 1-2.041-1.207 3.3 3.3 0 0 1 2.7-.715zm17.027 2.363c.392.882-.608 1.373-1.6.991a7.805 7.805 0 0 1-1.708-.774c.991-1.157 2.974-.824 3.307-.217zm34.612 26.374c-1.324.108-2.757.166-4.131.224-7.331.217-14.887-.391-22.159-.665a32.319 32.319 0 0 0-9.921 1.1 46.257 46.257 0 0 0-5.9 2.314 2.9 2.9 0 0 1-2.7.224 26.449 26.449 0 0 0-2.807-.774c-2.208 0-5.073.991-7.556.883-1.158-.059-.824-.333-.766-1.432.108-4.511.55-9.088.883-13.6 0-.441 0-.716.716-.774a13.1 13.1 0 0 0 3.632-.491c1.325-.333 2.591-1.382 3.807-1.981a71.54 71.54 0 0 1 7.056-.333 4.253 4.253 0 0 0 2.257.99 2.475 2.475 0 0 0 2.591-2.089c1.266-.116 2.424-1.489.933-1.989-1.208-.274-3.524.059-4.24-.158-2.482-.557-.225-2.588 1.05-2.372 1.041-.166 2.424-.216 3.856-.441 1.708-.05 2.808-.774 1.542-2.638a3.038 3.038 0 0 1-1.375-1.764c-.441-1.265-.333-2.422-2.816-2.921a136.147 136.147 0 0 1-13.719-1.49 79.634 79.634 0 0 0-5.515-.549c-.767 0-.767.274-.716-.491.058-.275.058-.5.108-.716v-.549c.058-.666.225-.666-.55-.608-.383.058-.875.108-1.483.167a17.461 17.461 0 0 1-1.824.216 14.182 14.182 0 0 1-1.483.058c-.608 0-.55-.058-.55-.5v-4.9c0-.982-.333.058-.5.283a9.529 9.529 0 0 1-1.207 1.265c-.442.383-.883.766-1.325 1.215a2.1 2.1 0 0 0-.833.874 1.833 1.833 0 0 0-.433 1.1 8.312 8.312 0 0 1-1.874 3.746c-2.425 2.371-4.857 2.371-7.006 4.41a5.194 5.194 0 0 1-.55 2.971 14.69 14.69 0 0 1-2.424 3.521 33.707 33.707 0 0 1-3.582 3.853 3.08 3.08 0 0 0-1.1 1.706c1.433.441 1.816 1.323 1.65 2.264a5.866 5.866 0 0 1-1.766 2.8 128.831 128.831 0 0 1-2.641 14.04 134.109 134.109 0 0 1-4.19 13.6 75.831 75.831 0 0 0-.6 7.989c-.058 2.031-.058 3.962.05 5.942a25.912 25.912 0 0 0 .383 3.471c.833 3.245 2.1 6.108 4.907 8.039a15.549 15.549 0 0 1 2.7 2.805 12.058 12.058 0 0 1 1.824 3.853 7.984 7.984 0 0 0 3.965 6c1.708 1.273 3.749 2.314 5.84 5.4 1.049 3.08 2.649 4.511 5.9 5.834 2.424 1.265 5.181 2.039 6.889 3.912.166.607.333 1.207.5 1.706a3.169 3.169 0 0 0 .933 1.323 5.172 5.172 0 0 0 3.748 1.648c3.141.108 5.9-2.7 4.682-6.774-1.316-2.971-3.857-3.962-6.664-2.805a15.937 15.937 0 0 1 1.157 2.255c.217.441 0 .55-.441.275-1.491-.932-3.807-6.442-4.3-7.265a7.956 7.956 0 0 0-1.816-2.589 8.7 8.7 0 0 0-1.933-1.048c-.383-.55-2.757-3.853-2.757-4.619a35.1 35.1 0 0 0 12.02 3.412 18.141 18.141 0 0 0 2.091 3.021 23.957 23.957 0 0 0 3.249 2.763 11.276 11.276 0 0 1 3.749 4.344 10.5 10.5 0 0 0 1.707 2.647 6.939 6.939 0 0 1 1.933 2.913 35.7 35.7 0 0 0 2.2 5.892 9.215 9.215 0 0 0 6.506-2.147 4.778 4.778 0 0 0-.108 1.98c.166.716 4.465.5 6.006.275l1.433 7.382c4.131 0 7.055-.549 10.254-3.695-1.108-1.864-2.266-3.687-3.365-5.5a33.172 33.172 0 0 1-1.875-4.9 11.052 11.052 0 0 0-1.216-2.256c-.6-.932-1.1-1.706-1.483-2.313a8.844 8.844 0 0 1-1.657-4.07c-.325-1.539-.55-3.087-.883-4.569a13.5 13.5 0 0 0-1.866-4.685 18.629 18.629 0 0 1-2.983-10.569 46 46 0 0 0-2.474-9.854c-.333-.824-.724-1.6-1.049-2.372a10.964 10.964 0 0 1-.883-3.9c.824-6.616-.383-10.686-2.591-16.686 2.424-2.314 9.372 1.1 17.419 1.265 2.032-.109 4.681-.5 5.673-2.48a9.771 9.771 0 0 0-1.208-.05c-.942 0-1.05-.275-1.108-.832-.217-1.424 7.5-1.424 10.529-3.571a2.776 2.776 0 0 0 1.375-1.548 6.655 6.655 0 0 1-.992-.05c-.991.05-2.091-.665-.549-1.265 1.374-.557 4.19-1.048 5.789-2.155a4.448 4.448 0 0 0 1.425-1.648c-.767.108-1.7.216-2.475.275zm-93.907 96.2h-5.389l-12.087 8.73v-8.73H.427v25.325h10.171v-12.08l.741-.366 5.515 12.442H27.7l-8.055-18.7 8.546-6.625zm43.076 12.817l-5.639-12.817h-9.922v25.325h3.416v-15.23l7.189 15.23h3.215l7.506-15.23v15.23h10.221v-25.329h-9.355l-6.631 12.817zm-36.811 6.125l3.84-7.99 3.59 7.99h-7.43zm5.825-18.946l-12.337 25.325h3.665l1.483-3.162h9.979l1.358 3.162h10.846l-10.779-25.325h-4.215zm53.547 18.942l3.59-7.74 3.224 7.74h-6.814zm5.573-18.942l-12.02 25.325h3.474l1.541-3.221h9.671l1.366 3.221h10.413l-10.665-25.325H99.4zm14.594.15v4.136l7.031-.058-7.031 21.114h20.876v-3.671h-6.59l6.989-21.521h-21.277zm-.514-15.954h.9a1.679 1.679 0 0 1 .674.133.582.582 0 0 1 .284.574c0 .034-.009.084-.017.15a.686.686 0 0 1-.317.491.975.975 0 0 1-.524.117h-1v-1.465zm-.85 4.02h.85v-1.914h.716a1.255 1.255 0 0 1 .792.158.573.573 0 0 1 .175.433c0 .041-.009.083-.009.124a.662.662 0 0 0-.008.125.846.846 0 0 1-.008.142v.141c0 .083 0 .175.008.258a.789.789 0 0 0 .075.267.72.72 0 0 0 .067.133 1.646 1.646 0 0 0 .1.133h.9a1.022 1.022 0 0 1-.25-.408 1.828 1.828 0 0 1-.075-.408 1.193 1.193 0 0 1 .009-.183l.025-.191a1.279 1.279 0 0 1 .016-.175 1.14 1.14 0 0 0 .009-.175.768.768 0 0 0-.109-.408.789.789 0 0 0-.491-.283v-.008c.042-.017.092-.042.15-.066a.732.732 0 0 0 .175-.117 1.257 1.257 0 0 0 .325-.358 1.19 1.19 0 0 0 .141-.616 1.052 1.052 0 0 0-.458-1 2.1 2.1 0 0 0-1.066-.258h-2.058v4.652zm-2.957-2.281a4.237 4.237 0 0 0 1.375 3.3 4.793 4.793 0 0 0 3.023 1.34.32.32 0 0 0 .125.017h.167a4.764 4.764 0 0 0 3.165-1.282 4.659 4.659 0 0 0 .025-6.716 4.741 4.741 0 0 0-3.115-1.3h-.258a1.1 1.1 0 0 0-.158.008 4.847 4.847 0 0 0-2.982 1.365 4.212 4.212 0 0 0-1.358 3.27zm.875 0v-.169a4.21 4.21 0 0 1 1.1-2.589 3.389 3.389 0 0 1 2.674-1.181h.042a3.761 3.761 0 0 1 2.566 1.09 4.076 4.076 0 0 1-.009 5.717 3.765 3.765 0 0 1-2.6 1.091 3.371 3.371 0 0 1-2.665-1.166 4.231 4.231 0 0 1-1.092-2.546.678.678 0 0 1-.016-.117v-.125zm25.015 9.288H-.006v-3.957h135.574v3.953z"></path>
		</symbol>
	
		<symbol id="logo" viewBox="0 0 204 103.875">
			<path d="M48.085 58.276A14.013 14.013 0 1 1 56 32.689a50.305 50.305 0 0 1 20.945-21.01A46.126 46.126 0 1 0 63 89.122 49.753 49.753 0 0 1 50.354 58.09a14.176 14.176 0 0 1-2.265.186zm39.329-6.809a17.559 17.559 0 0 1 9.158-15.418l-18.554-22.7a48 48 0 0 0 22.348 90.52 48.729 48.729 0 0 0 6.495-.436v-34.5a16.934 16.934 0 0 1-1.855.1 17.577 17.577 0 0 1-17.592-17.558zM105.897 50h2.7v3.416h-2.067c-.053.008-.46 0-.509 0s-.206.008-.259 0h-.292a1.843 1.843 0 0 1-1.327-1.783A1.679 1.679 0 0 1 105.47 50h.43zm-9.763 1.825c0 4.743 3.447 8.268 8.947 8.268h10.94v-16.83s-9.911.05-10.941.05c-5.5 0-8.949 3.771-8.949 8.511zm45.525-2.938h4.526v11.227h8.99V48.893h4.771v-5.605l-18.284-.008v5.607zm62.333 11.23c.05-.3-.966-6.429-6.167-8.845 4.431-1.9 5.179-7.525 5.1-7.975h-9.491c.014.128.025 1.038.025 1.175 0 1.727-1.132 4.054-3.1 4.432-.472.011-.35 0-.483 0h-.3v-5.607h-8.99l-.006 16.82h8.99v-5.57h.759c2.4 0 4.083 2.546 4.081 4.612 0 .133-.034.834-.051.961h9.622zm-41.924-16.834v16.864l1.86.006 7.877-.05h6.515v-5.566h-7.266a.55.55 0 0 1 0-1.1v-.01h7.266v-3.416h-7.276a.556.556 0 0 1 0-1.111h.01v-.008h7.266v-5.6h-16.252zm-22.1.015h-10.49v9.576a.546.546 0 0 1-.556.53h-.033a.545.545 0 0 1-.556-.53v-9.576h-10.495c-.2 4.354 3.153 16.8 7.205 16.8h7.72c4.051 0 7.411-12.445 7.206-16.8z"></path>
		</symbol>
	
		<symbol id="mail" viewBox="0 0 20 20.03">
			<path d="M4.68 14.27v4.96L15.51 4.8zM.31 9.53a.584.584 0 0 0-.05 1.02l4.05 2.49L19.04.07l.04-.06zM19.9.87L8.75 15.77l6.77 4.16a.585.585 0 0 0 .88-.39L20.01.78z"></path>
		</symbol>
	
		<symbol id="marker" viewBox="0 0 15 16">
			<path d="M11.034 1.64a4.634 4.634 0 0 0-7.027-.04.167.167 0 0 1-.04.04 6.985 6.985 0 0 0-.47 7.87l4 6.48 4-6.47a6.99 6.99 0 0 0-.463-7.88zM7.547 7.6A2.051 2.051 0 1 1 9.37 5.54v.01A1.954 1.954 0 0 1 7.547 7.6z"></path>
		</symbol>
	
		<symbol id="maz" viewBox="0 0 236 126">
			<path d="M218.61 60.5h-71.96L122.09 0l-4.51 11.307-19.64 49.2H20.96L0 109.363l117.58 16.162 3.43.476L236 109.363zm-97.94 51.44l-3.09-.1-110.75-3.9 17.7-40.541h73l20.05-51.2 4.51-11.476 24.5 62.678h68.04l13.73 40.541zm99.7-20.3l-7.16-3.294 3.94-5.4-3.6-12.664H156.4l5.81 12.257h32.21L190 88.345l5.54 5.127h-44.16l-29.29-82.61-4.51 11.748-24.33 63.63H82.31l-3.19-15.958H59.59L50.24 83.32l-7.23-13.038H26.09l-15.36 35.141h16.38l7.17-11.951 5.4 11.951h20.65l6.49-12.7 6.49 12.7h30.78l6.15-7.6 7.34 4.72 4.51 2.885 10.77-7.6 5.88 7.6h86.36zm-98.28-2.547l-4.51-3.158-4.83-3.395 4.83-11.409 4.51-10.627 9.07 22.036z"></path>
		</symbol>
	
		<symbol id="mech" viewBox="0 0 77 81">
			<path d="M20.96 74.505h-2.1v-8.43H16.6a1.407 1.407 0 0 1-.21.69 1.233 1.233 0 0 1-.53.44 2.156 2.156 0 0 1-.75.2 7.228 7.228 0 0 1-.95.06v1.66h2.15v5.38h-2.15v1.78h6.8v-1.78zm10.1-2.68a3.462 3.462 0 0 0-1.58-1.08v-.04a3.487 3.487 0 0 0 1.38-.97 2.027 2.027 0 0 0 .45-1.29 2.152 2.152 0 0 0-1.07-1.87 5.321 5.321 0 0 0-2.95-.7 5.065 5.065 0 0 0-2.92.77 2.327 2.327 0 0 0-1.12 1.98 2.618 2.618 0 0 0 .41 1.45 3.11 3.11 0 0 0 1.31 1.03v.04a3.547 3.547 0 0 0-1.55 1.04 2.153 2.153 0 0 0-.45 1.35 2.808 2.808 0 0 0 .25 1.16 2.572 2.572 0 0 0 .77.95 3.923 3.923 0 0 0 1.33.64 6.927 6.927 0 0 0 1.94.23 5.133 5.133 0 0 0 3.16-.86 2.747 2.747 0 0 0 .64-3.83zm-2.45-2.36a2.979 2.979 0 0 1-.45.66c-.31-.1-.58-.19-.8-.27s-.4-.15-.53-.2a2.5 2.5 0 0 1-.74-.45.816.816 0 0 1-.23-.63.727.727 0 0 1 .13-.43.96.96 0 0 1 .33-.3 1.7 1.7 0 0 1 .46-.18 2.22 2.22 0 0 1 .51-.06 1.67 1.67 0 0 1 1.06.31 1 1 0 0 1 .4.82 1.759 1.759 0 0 1-.14.73zm.2 4.67a1.433 1.433 0 0 1-.4.37 1.742 1.742 0 0 1-.5.2 2.676 2.676 0 0 1-.52.06 1.99 1.99 0 0 1-1.32-.42 1.379 1.379 0 0 1-.51-1.13 1.551 1.551 0 0 1 .23-.85 3.484 3.484 0 0 1 .53-.65c.2.08.44.16.73.26s.5.19.65.26a3.326 3.326 0 0 1 1.01.58 1.21 1.21 0 0 1 .1 1.32zm17.18-5.21a4.424 4.424 0 0 0-.72-1.66 3.189 3.189 0 0 0-1.3-1.02 4.741 4.741 0 0 0-1.96-.35 5.092 5.092 0 0 0-1.93.33 3.072 3.072 0 0 0-1.31 1.01 4.29 4.29 0 0 0-.74 1.66 9.768 9.768 0 0 0-.23 2.3 10.372 10.372 0 0 0 .22 2.28 4.411 4.411 0 0 0 .73 1.67 3.216 3.216 0 0 0 1.31 1.01 4.968 4.968 0 0 0 1.95.34 4.9 4.9 0 0 0 1.95-.34 3.144 3.144 0 0 0 1.3-1 4.221 4.221 0 0 0 .72-1.66 11.228 11.228 0 0 0 .01-4.57zm-2.79 4.89a1.219 1.219 0 0 1-1.19.8 1.241 1.241 0 0 1-1.2-.8 6.6 6.6 0 0 1-.37-2.61 6.965 6.965 0 0 1 .36-2.65 1.255 1.255 0 0 1 1.21-.78 1.233 1.233 0 0 1 1.2.78 6.88 6.88 0 0 1 .36 2.63 6.681 6.681 0 0 1-.37 2.63zm12.74-4.89a4.424 4.424 0 0 0-.72-1.66 3.189 3.189 0 0 0-1.3-1.02 4.741 4.741 0 0 0-1.96-.35 5.092 5.092 0 0 0-1.93.33 3.133 3.133 0 0 0-1.31 1.01 4.442 4.442 0 0 0-.74 1.66 11.767 11.767 0 0 0-.01 4.58 4.411 4.411 0 0 0 .73 1.67 3.216 3.216 0 0 0 1.31 1.01 4.968 4.968 0 0 0 1.95.34 4.9 4.9 0 0 0 1.95-.34 3.144 3.144 0 0 0 1.3-1 4.377 4.377 0 0 0 .73-1.66 10.752 10.752 0 0 0 .23-2.31 10.144 10.144 0 0 0-.23-2.26zm-2.79 4.89a1.219 1.219 0 0 1-1.19.8 1.241 1.241 0 0 1-1.2-.8 9.532 9.532 0 0 1 0-5.26 1.313 1.313 0 0 1 2.4 0 6.88 6.88 0 0 1 .36 2.63 6.681 6.681 0 0 1-.37 2.63zm12.74-4.89a4.424 4.424 0 0 0-.72-1.66 3.189 3.189 0 0 0-1.3-1.02 4.741 4.741 0 0 0-1.96-.35 5.092 5.092 0 0 0-1.93.33 3.133 3.133 0 0 0-1.31 1.01 4.442 4.442 0 0 0-.74 1.66 11.767 11.767 0 0 0-.01 4.58 4.27 4.27 0 0 0 .74 1.67 3.12 3.12 0 0 0 1.3 1.01 4.968 4.968 0 0 0 1.95.34 4.867 4.867 0 0 0 1.95-.34 3.081 3.081 0 0 0 1.3-1 4.377 4.377 0 0 0 .73-1.66 10.752 10.752 0 0 0 .23-2.31 10.144 10.144 0 0 0-.23-2.26zm-2.78 4.89a1.3 1.3 0 0 1-2.4 0 9.532 9.532 0 0 1 0-5.26 1.313 1.313 0 0 1 2.4 0 9.787 9.787 0 0 1 0 5.26zm-38.57-60.41a4.915 4.915 0 0 1-.09 9.83 4.98 4.98 0 0 1-4.82-5 4.9 4.9 0 0 1 4.91-4.83zm-10.65 13.49l1.75 1.75a1.622 1.622 0 0 0 2.08.17l1.08-.92a10.027 10.027 0 0 0 2.74 1.17l.17 1.5a1.434 1.434 0 0 0 1.41 1.33h2.5a1.611 1.611 0 0 0 1.58-1.33l.16-1.5a8.617 8.617 0 0 0 2.75-1.17l1.25 1a1.5 1.5 0 0 0 1.91-.08l1.83-1.83a1.532 1.532 0 0 0 .09-2l-1-1.25a10.085 10.085 0 0 0 1.08-2.59l1.58-.16a1.528 1.528 0 0 0 1.33-1.5l.08-2.5a1.521 1.521 0 0 0-1.33-1.5l-1.74-.25a6.462 6.462 0 0 0-1-2.33l1.08-1.34a1.538 1.538 0 0 0-.08-2.08l-1.75-1.75a1.519 1.519 0 0 0-2-.08l-1.33 1a9.216 9.216 0 0 0-2.49-1l-.17-1.75a1.528 1.528 0 0 0-1.5-1.33l-2.49-.09a1.529 1.529 0 0 0-1.5 1.34l-.17 1.66a9.347 9.347 0 0 0-2.66 1.08l-1.33-1.08a1.546 1.546 0 0 0-2 .17l-1.74 1.75a1.515 1.515 0 0 0-.17 2l1 1.25a9.876 9.876 0 0 0-1.08 2.58l-1.58.17a1.594 1.594 0 0 0-1.34 1.5v2.5a1.462 1.462 0 0 0 1.34 1.49l1.49.25a10.085 10.085 0 0 0 1.08 2.59l-.99 1.16a1.523 1.523 0 0 0 .08 2zm34.52 13.83a5.98 5.98 0 0 1 1.08-11.91 5.98 5.98 0 0 1-1.08 11.91zm13.89-8.58a13.209 13.209 0 0 0-.91-3l1.66-1.75a1.521 1.521 0 0 0 0-2l-2.33-2.75a1.512 1.512 0 0 0-1.99-.33l-2 1.33a12.029 12.029 0 0 0-2.83-1.58l-.08-2.41a1.6 1.6 0 0 0-1.33-1.5l-3.66-.26a1.456 1.456 0 0 0-1.58 1.17l-.5 2.25a14.124 14.124 0 0 0-3.33 1.08l-1.66-1.66a1.52 1.52 0 0 0-2 0l-2.83 2.33a1.433 1.433 0 0 0-.25 2l1.17 1.83a14.961 14.961 0 0 0-1.58 3.08l-2.17.09a1.454 1.454 0 0 0-1.49 1.33l-.34 3.58a1.656 1.656 0 0 0 1.17 1.67l2.16.42a10.787 10.787 0 0 0 1 3.25l-1.5 1.58a1.521 1.521 0 0 0 0 2l2.25 2.75a1.544 1.544 0 0 0 2.08.33l1.66-1.17a13 13 0 0 0 3.16 1.75l.09 2.09a1.386 1.386 0 0 0 1.33 1.41l3.57.33a1.486 1.486 0 0 0 1.67-1.16l.41-2a15.65 15.65 0 0 0 3.5-1.17l1.58 1.5a1.508 1.508 0 0 0 1.99 0l2.83-2.33a1.5 1.5 0 0 0 .25-2l-1.24-1.83a15.813 15.813 0 0 0 1.58-3.09l2.24-.08a1.521 1.521 0 0 0 1.5-1.33l.33-3.58a1.634 1.634 0 0 0-1.25-1.67z"></path>
		</symbol>
	
		<symbol id="men" viewBox="0 0 56.99 56.99">
			<path d="M35.17 23.48a6.68 6.68 0 1 0-6.68 6.68 6.68 6.68 0 0 0 6.68-6.68zm20.15 0H53a25 25 0 0 0-3.64-8.77l1.56-1.56a1.67 1.67 0 0 0 0-2.36L46.2 6.06a1.67 1.67 0 0 0-2.36 0l-1.56 1.57A25 25 0 0 0 33.5 4V1.67A1.67 1.67 0 0 0 31.83 0h-6.68a1.67 1.67 0 0 0-1.67 1.67V4a25 25 0 0 0-8.77 3.64l-1.56-1.58a1.67 1.67 0 0 0-2.36 0l-4.73 4.73a1.67 1.67 0 0 0 0 2.36l1.56 1.56A25 25 0 0 0 4 23.48H1.67A1.67 1.67 0 0 0 0 25.15v6.68a1.67 1.67 0 0 0 1.67 1.67H4a25 25 0 0 0 3.64 8.77l-1.58 1.57a1.67 1.67 0 0 0 0 2.36l4.72 4.72a1.67 1.67 0 0 0 2.36 0l1.56-1.56A25 25 0 0 0 23.48 53v2.31A1.67 1.67 0 0 0 25.15 57h6.68a1.67 1.67 0 0 0 1.67-1.67V53a25 25 0 0 0 8.77-3.64l1.56 1.56a1.67 1.67 0 0 0 2.36 0l4.72-4.72a1.67 1.67 0 0 0 0-2.36l-1.56-1.56A25 25 0 0 0 53 33.5h2.31A1.67 1.67 0 0 0 57 31.83v-6.68a1.67 1.67 0 0 0-1.68-1.67zm-26.82 20a15 15 0 1 1 15-15 15.08 15.08 0 0 1-15.01 15.04zm0-13.36a11.58 11.58 0 0 0-9.54 5A11.63 11.63 0 0 0 38 35.2a11.58 11.58 0 0 0-9.51-5.04z" data-name="Layer 1"></path>
		</symbol>
	
		<symbol id="min-calend" viewBox="0 0 15 16">
			<path d="M14.729 1.07h-1.874v-.8a.266.266 0 0 0-.267-.27h-1.874a.268.268 0 0 0-.267.27v.8h-5.89v-.8A.265.265 0 0 0 4.292 0H2.416a.267.267 0 0 0-.268.27v.8H.275a.263.263 0 0 0-.268.25v14.41a.266.266 0 0 0 .267.27h14.455a.267.267 0 0 0 .268-.27V1.33a.263.263 0 0 0-.261-.26h-.007zM10.981.53h1.339v1.6h-1.338V.53zm-8.3 0H4.02v1.6H2.683V.53zM.54 1.6h1.606v.8a.266.266 0 0 0 .267.27h1.876a.268.268 0 0 0 .267-.27v-.8h5.89v.8a.265.265 0 0 0 .265.27h1.876a.267.267 0 0 0 .268-.27v-.8h1.606V4H.541V1.6zm0 13.87V4.53h13.92v10.94H.54zm9.1-9.34H2.413v7.74h10.172V6.13H9.64zm-1.874.54H9.64v1.86H7.766V6.67zm1.874 4.26H7.766V9.07H9.64v1.86zM5.356 9.07H7.23v1.86H5.356V9.07zm0-2.4H7.23v1.86H5.356V6.67zm-2.409 0h1.874v1.86H2.95V6.67zm0 2.4h1.874v1.86H2.95V9.07zm1.874 4.26H2.95v-1.86h1.874v1.86zm2.409 0H5.356v-1.86H7.23v1.86zm2.409 0H7.765v-1.86h1.874v1.86zm2.409 0h-1.874v-1.86h1.874v1.86zm0-2.4h-1.874V9.07h1.874v1.86zm0-4.26v1.86h-1.874V6.67h1.874z"></path>
		</symbol>
	
		<symbol id="nechkey" viewBox="0 0 77 81">
			<path d="M52.093 48.43l-7.188-7.2a10.076 10.076 0 0 0-9.268-14.01 9.908 9.908 0 0 0-2.653.36 1.126 1.126 0 0 0-.788.79 1.112 1.112 0 0 0 .316 1.09s3.548 3.58 4.735 4.77a.743.743 0 0 1 .107.53l-.011.08a23.026 23.026 0 0 1-.541 3.48.484.484 0 0 0-.076.07c-.027.03-.052.05-.079.08a21.973 21.973 0 0 1-3.526.55v-.01l-.06.02h-.056a.763.763 0 0 1-.546-.23c-1.236-1.24-4.645-4.63-4.645-4.63a1.183 1.183 0 0 0-.829-.37 1.124 1.124 0 0 0-1.061.86 10.113 10.113 0 0 0 2.6 9.76 10.094 10.094 0 0 0 11.046 2.16l7.266 7.27m-.221-27.22c1.374.78 2.666 1.61 3.92 2.45a40.82 40.82 0 0 0-1.822-6.03 40.383 40.383 0 0 0-6.25 1.45 57.08 57.08 0 0 1 4.149 2.13zM18.073 40.49a40.49 40.49 0 0 0 4.4 4.62c-.116-1.51-.2-3.04-.2-4.62s.081-3.1.2-4.61a40.6 40.6 0 0 0-4.403 4.61zM51.78 22.75a45.413 45.413 0 0 1 2.274 8.89 45.559 45.559 0 0 1 6.67 6.39c2.952-4.53 3.689-8.56 2.049-11.36-1.5-2.56-4.972-3.97-9.777-3.97-.396 0-.814.03-1.219.05zm7.144 17.75a40.991 40.991 0 0 0-4.388-4.58c.113 1.49.192 3.01.192 4.57 0 1.58-.081 3.11-.2 4.62a40.333 40.333 0 0 0 4.393-4.61zM38.5 58.19a47.887 47.887 0 0 1-8.94 2.5c2.381 4.59 5.532 7.46 8.94 7.46s6.559-2.87 8.938-7.46a47.911 47.911 0 0 1-8.938-2.5zm-13.277.05a45.6 45.6 0 0 1-2.276-8.89 46.4 46.4 0 0 1-6.657-6.42c-2.963 4.54-3.7 8.58-2.06 11.39 1.5 2.56 4.969 3.97 9.775 3.97.395 0 .811-.04 1.218-.05zm-2.274-26.6a45.6 45.6 0 0 1 2.274-8.89c-.405-.02-.822-.05-1.218-.05-4.8 0-8.277 1.41-9.775 3.97-1.644 2.81-.9 6.85 2.06 11.39a46.416 46.416 0 0 1 6.659-6.42zM38.5 22.8a48.746 48.746 0 0 1 8.938-2.51c-2.379-4.58-5.527-7.45-8.938-7.45s-6.559 2.87-8.94 7.46a47.887 47.887 0 0 1 8.94 2.5zm-8.113 31.56a55.889 55.889 0 0 1-3.92-2.46 40.475 40.475 0 0 0 1.824 6.04 41.575 41.575 0 0 0 6.248-1.45c-1.394-.66-2.785-1.35-4.152-2.13zm-3.944 6.73c-.828.07-1.644.11-2.436.11a19.065 19.065 0 0 1-7.512-1.36 29.515 29.515 0 0 0 16.117 9.18 20.446 20.446 0 0 1-6.169-7.93zm-2.438-41.3c.792 0 1.607.04 2.438.1a20.5 20.5 0 0 1 6.169-7.92 29.517 29.517 0 0 0-16.115 9.18 19.054 19.054 0 0 1 7.508-1.36zM13.988 41.07c.129-.19.285-.38.418-.58-.135-.19-.289-.38-.416-.57a19.642 19.642 0 0 1-3.466-8.61 28.458 28.458 0 0 0 0 18.37 19.618 19.618 0 0 1 3.464-8.61zM52.994 61.2c-.791 0-1.6-.04-2.435-.11a20.474 20.474 0 0 1-6.169 7.93 29.53 29.53 0 0 0 16.12-9.18 19.082 19.082 0 0 1-7.516 1.36zm9.776-6.88c1.706-2.92.763-7.04-2.076-11.37a46.7 46.7 0 0 1-6.641 6.4 45.74 45.74 0 0 1-2.274 8.89c.4.01.82.05 1.215.05 4.806 0 8.278-1.41 9.776-3.97zm-16.158.04a57.266 57.266 0 0 1-4.148 2.13 40.232 40.232 0 0 0 6.246 1.45 40.461 40.461 0 0 0 1.824-6.03 64.375 64.375 0 0 1-3.922 2.45zM30.385 26.63a56.533 56.533 0 0 1 4.152-2.13 39.192 39.192 0 0 0-6.246-1.45 40.7 40.7 0 0 0-1.824 6.03c1.261-.85 2.56-1.68 3.918-2.45zm20.172-6.74c.828-.06 1.644-.1 2.436-.1a19.077 19.077 0 0 1 7.513 1.36 29.519 29.519 0 0 0-16.116-9.18 20.507 20.507 0 0 1 6.167 7.92zM66.475 31.3a19.572 19.572 0 0 1-3.467 8.62c-.124.18-.278.37-.409.56a20.293 20.293 0 0 1 3.876 9.21 28.483 28.483 0 0 0 0-18.39z"></path>
		</symbol>
	
		<symbol id="people" viewBox="0 0 24 24">
			<path d="M6 2l4 4-3 11 5 5 5-5-3-11 4-4z"></path>
		</symbol>
	
		<symbol id="phone" viewBox="0 0 15 16">
			<path d="M10.422.51H4.578a1.976 1.976 0 0 0-2.08 1.87v11.24a1.987 1.987 0 0 0 2.08 1.87h5.844a1.975 1.975 0 0 0 2.08-1.87V2.38a1.975 1.975 0 0 0-2.08-1.87zM7.509 14.28a.855.855 0 1 1 .946-.85.89.89 0 0 1-.946.85zm4.048-2.6H3.443V3.01h8.114v8.67z"></path>
		</symbol>
	
		<symbol id="phone-2" viewBox="0 0 20 20">
			<path d="M15.21 13.23a1.41 1.41 0 0 0-2.12 0c-.5.49-.99.98-1.48 1.48a.3.3 0 0 1-.41.08c-.32-.18-.66-.32-.97-.51a15.221 15.221 0 0 1-3.7-3.37A8.858 8.858 0 0 1 5.2 8.78a.3.3 0 0 1 .07-.39c.5-.48.98-.97 1.47-1.46a1.4 1.4 0 0 0-.01-2.17c-.38-.39-.77-.78-1.16-1.17s-.79-.8-1.2-1.2a1.418 1.418 0 0 0-2.12.01c-.5.49-.97.99-1.48 1.48A2.4 2.4 0 0 0 .01 5.5a6.842 6.842 0 0 0 .53 2.97 18.241 18.241 0 0 0 3.2 5.34 19.811 19.811 0 0 0 6.57 5.13A9.45 9.45 0 0 0 13.94 20a2.687 2.687 0 0 0 2.29-.87c.42-.48.9-.91 1.35-1.36a1.419 1.419 0 0 0 .01-2.16c-.79-.8-1.59-1.59-2.38-2.38zm-.8-3.32l1.54-.26a6.92 6.92 0 0 0-5.83-5.66L9.9 5.54a5.323 5.323 0 0 1 4.51 4.37zm2.41-6.67A11.282 11.282 0 0 0 10.32 0l-.22 1.54a9.881 9.881 0 0 1 8.37 8.11l1.54-.27a11.418 11.418 0 0 0-3.19-6.14z"></path>
		</symbol>
	
		<symbol id="search" viewBox="0 0 24 24">
			<path d="M9.5 3A6.5 6.5 0 0 1 16 9.5c0 1.61-.59 3.09-1.56 4.23l.27.27h.79l5 5-1.5 1.5-5-5v-.79l-.27-.27A6.516 6.516 0 0 1 9.5 16 6.5 6.5 0 0 1 3 9.5 6.5 6.5 0 0 1 9.5 3m0 2C7 5 5 7 5 9.5S7 14 9.5 14 14 12 14 9.5 12 5 9.5 5z"></path>
		</symbol>
	
		<symbol id="sila" viewBox="0.01 32.233 76.699 16.517">
			<path d="M7.23 48.74a8.248 8.248 0 0 0 5.17-1.51 4.72 4.72 0 0 0 1.97-3.931 4.452 4.452 0 0 0-.81-2.67 4.356 4.356 0 0 0-2.02-1.6 28.875 28.875 0 0 0-4.07-1.07 4.543 4.543 0 0 1-1.41-.47.8.8 0 0 1-.36-.69c0-.67.53-1 1.6-1a2.495 2.495 0 0 1 2.57 1.61l4.06-1.23c-1.04-2.62-3.2-3.93-6.45-3.93a7.279 7.279 0 0 0-4.94 1.5 4.768 4.768 0 0 0-1.72 3.76 4.337 4.337 0 0 0 1.2 3.06c.79.87 2.59 1.573 5.4 2.11a4.737 4.737 0 0 1 1.53.51.925.925 0 0 1 .43.8c0 .66-.62.99-1.86.99a2.712 2.712 0 0 1-2.95-1.939l-4.56.82c.92 3.25 3.327 4.877 7.22 4.88zm8.68-4.53v4.28h4.46v-4.28h-4.46zm6.93-11.71v15.99h4.91V32.5h-4.91zm7.37 11.71v4.28h4.45v-4.28h-4.45zm11.839.36V32.5H37.14v15.99h11.21v-3.92h-6.301zm7.681-.36v4.28h4.46v-4.28h-4.46zm20.761 4.28L65.47 32.5h-5.19l-4.94 15.99h3.99l.959-3.15h4.291l.9 3.15h5.011zM62.42 37.21l1.289 4.64H61.13l1.29-4.64zm9.84 7v4.28h4.449v-4.28H72.26z"></path>
		</symbol>
	
		<symbol id="user" viewBox="0 0 20 20">
			<path d="M19.33 17.07c-.88-1.2-5.32-.7-6-2.07-1.34-2.71-.79-2.21.08-2.88.83-.63.79-2.29 1.29-2.88a4.376 4.376 0 0 0 .55-2.95c-.25-.86-.64-.39-.7-1.04-.13-1.39.22-2.54-.56-3.22-.76-.65-1.71-2.01-3.25-2.02a3.6 3.6 0 0 0-1.85.55C5.56.21 5.58 3.86 5.45 5.25c-.06.65-.45.18-.7 1.04a4.376 4.376 0 0 0 .55 2.95c.5.59.46 2.25 1.29 2.88.87.67 1.42.17.08 2.88-.68 1.37-5.13.87-6 2.07A6.336 6.336 0 0 0 0 20h20a6.336 6.336 0 0 0-.67-2.93z"></path>
		</symbol>
	
</svg>
