<svg xmlns="http://www.w3.org/2000/svg" width="204" height="103.875"><path d="M48.085 58.276A14.013 14.013 0 1 1 56 32.689a50.305 50.305 0 0 1 20.945-21.01A46.126 46.126 0 1 0 63 89.122 49.753 49.753 0 0 1 50.354 58.09a14.176 14.176 0 0 1-2.265.186zm39.329-6.809a17.559 17.559 0 0 1 9.158-15.418l-18.554-22.7a48 48 0 0 0 22.348 90.52 48.729 48.729 0 0 0 6.495-.436v-34.5a16.934 16.934 0 0 1-1.855.1 17.577 17.577 0 0 1-17.592-17.558zM105.897 50h2.7v3.416h-2.067c-.053.008-.46 0-.509 0s-.206.008-.259 0h-.292a1.843 1.843 0 0 1-1.327-1.783A1.679 1.679 0 0 1 105.47 50h.43zm-9.763 1.825c0 4.743 3.447 8.268 8.947 8.268h10.94v-16.83s-9.911.05-10.941.05c-5.5 0-8.949 3.771-8.949 8.511zm45.525-2.938h4.526v11.227h8.99V48.893h4.771v-5.605l-18.284-.008v5.607zm62.333 11.23c.05-.3-.966-6.429-6.167-8.845 4.431-1.9 5.179-7.525 5.1-7.975h-9.491c.014.128.025 1.038.025 1.175 0 1.727-1.132 4.054-3.1 4.432-.472.011-.35 0-.483 0h-.3v-5.607h-8.99l-.006 16.82h8.99v-5.57h.759c2.4 0 4.083 2.546 4.081 4.612 0 .133-.034.834-.051.961h9.622zm-41.924-16.834v16.864l1.86.006 7.877-.05h6.515v-5.566h-7.266a.55.55 0 0 1 0-1.1v-.01h7.266v-3.416h-7.276a.556.556 0 0 1 0-1.111h.01v-.008h7.266v-5.6h-16.252zm-22.1.015h-10.49v9.576a.546.546 0 0 1-.556.53h-.033a.545.545 0 0 1-.556-.53v-9.576h-10.495c-.2 4.354 3.153 16.8 7.205 16.8h7.72c4.051 0 7.411-12.445 7.206-16.8z" fill="#002d56" fill-rule="evenodd"/></svg>