<svg xmlns="http://www.w3.org/2000/svg" width="361" height="353"><path d="M747.87 314.85l-38.07-9.26c-1.72-7.38-3.73-14.8-6-22.21l27.23-26.37a22.452 22.452 0 0 0 3.83-27.36l-44.82-77.75a22.39 22.39 0 0 0-25.57-10.35l-36.39 10.42q-7.89-8.445-16.33-16.35l10.41-36.44a22.464 22.464 0 0 0-10.34-25.61l-77.64-44.89a22.382 22.382 0 0 0-27.32 3.84l-26.33 27.27q-11.16-3.435-22.29-6.04l-9.17-36.74a22.427 22.427 0 0 0-21.75-17h-89.64a22.427 22.427 0 0 0-21.75 17l-9.17 36.75q-11.115 2.595-22.29 6.04l-26.33-27.28a22.41 22.41 0 0 0-27.32-3.84l-77.64 44.89a22.464 22.464 0 0 0-10.34 25.61l10.41 36.44q-8.43 7.89-16.33 16.35l-36.39-10.42a22.4 22.4 0 0 0-25.57 10.36l-44.82 77.74a22.452 22.452 0 0 0 3.83 27.36l27.23 26.37q-3.4 11.13-6 22.22l-38.07 9.25A22.426 22.426 0 0 0 .01 336.66v44.88a22.427 22.427 0 0 0 22.41 22.45h270.43a22.436 22.436 0 0 0 22.42-22.45 67.23 67.23 0 1 1 134.46 0 22.436 22.436 0 0 0 22.42 22.45h270.43a22.427 22.427 0 0 0 22.41-22.45v-44.88a22.426 22.426 0 0 0-17.12-21.81zM492.31 359.1c-10.42-51.16-55.7-89.77-109.81-89.77s-99.39 38.61-109.81 89.77h-45.46c10.9-76.03 76.38-134.66 155.27-134.66s144.36 58.63 155.27 134.66h-45.46zm227.86 0H582.95c-11.18-100.85-96.81-179.54-200.45-179.54S193.23 258.25 182.05 359.1H44.83v-4.8l34.68-8.43a22.419 22.419 0 0 0 16.75-17.72 291.232 291.232 0 0 1 11.76-43.64 22.477 22.477 0 0 0-5.55-23.61L77.7 236.92l27.33-47.4 33.06 9.48a22.416 22.416 0 0 0 23.19-6.98 293.609 293.609 0 0 1 31.96-32.01 22.46 22.46 0 0 0 6.97-23.22l-9.46-33.11 47.33-27.36 23.95 24.8a22.371 22.371 0 0 0 23.57 5.56 290.321 290.321 0 0 1 43.58-11.78 22.428 22.428 0 0 0 17.66-16.62l8.33-33.38h54.65l8.34 33.38a22.428 22.428 0 0 0 17.66 16.62 290.642 290.642 0 0 1 43.58 11.78 22.371 22.371 0 0 0 23.57-5.56l23.95-24.8 47.33 27.36-9.46 33.11a22.46 22.46 0 0 0 6.97 23.22 293.609 293.609 0 0 1 31.96 32.01 22.416 22.416 0 0 0 23.19 6.98l33.06-9.48 27.33 47.4-24.77 23.98a22.461 22.461 0 0 0-5.56 23.61 290.1 290.1 0 0 1 11.77 43.64 22.419 22.419 0 0 0 16.75 17.72l34.68 8.43v4.8z" fill-opacity=".24" fill-rule="evenodd"/></svg>