<svg xmlns="http://www.w3.org/2000/svg" width="77" height="81"><path data-name="1995" d="M55.014 16.46V12h-3.34v4.46h-11.5V12h-3.34v4.46h-11.5V12h-3.34v4.46H10V69h57V16.46H55.014zm8.646 49.2H13.34V32.67h50.32v32.99zm0-36.33H13.34V19.8h8.646v4.61h3.34V19.8h11.5v4.61h3.34V19.8h11.5v4.61h3.34V19.8h8.646v9.53zM26.389 51.18h-2.1v-8.43h-2.262a1.41 1.41 0 0 1-.205.68 1.352 1.352 0 0 1-.534.45 2.713 2.713 0 0 1-.752.2 7.142 7.142 0 0 1-.943.06v1.66h2.147v5.38h-2.147v1.78h6.8v-1.78zm10.063-6.11a3.67 3.67 0 0 0-.937-1.49 3.318 3.318 0 0 0-1.268-.77 5.415 5.415 0 0 0-1.685-.25 4.307 4.307 0 0 0-2.984 1.03 3.443 3.443 0 0 0-1.138 2.67 3.663 3.663 0 0 0 .338 1.67 2.8 2.8 0 0 0 1.86 1.49 3.953 3.953 0 0 0 1.1.14 3.845 3.845 0 0 0 1.268-.18 6.626 6.626 0 0 0 1.1-.52 3.137 3.137 0 0 1-.349 1.11 2.408 2.408 0 0 1-.663.77 2.44 2.44 0 0 1-.882.42 4.085 4.085 0 0 1-1.046.13 3.609 3.609 0 0 1-1.035-.11 4.46 4.46 0 0 1-.585-.2h-.273v2a6.754 6.754 0 0 0 .772.11 10.826 10.826 0 0 0 1.094.06 7.077 7.077 0 0 0 2.5-.4 4.515 4.515 0 0 0 1.8-1.22 4.863 4.863 0 0 0 1-1.86 8.283 8.283 0 0 0 .328-2.38 6.892 6.892 0 0 0-.315-2.22zm-2.314 2.26c-.007.1-.011.17-.011.22a3.713 3.713 0 0 1-.56.16 3.354 3.354 0 0 1-.67.08 3.143 3.143 0 0 1-.708-.08 1.493 1.493 0 0 1-.564-.26 1.293 1.293 0 0 1-.4-.52 1.94 1.94 0 0 1-.144-.8 2.43 2.43 0 0 1 .134-.85 1.67 1.67 0 0 1 .345-.58 1.3 1.3 0 0 1 .468-.31 1.266 1.266 0 0 1 .509-.1 1.662 1.662 0 0 1 .547.1 1.159 1.159 0 0 1 .458.31 2.08 2.08 0 0 1 .441.84 4.868 4.868 0 0 1 .161 1.37c.004.19 0 .33-.006.42zm12.267-2.26a3.67 3.67 0 0 0-.937-1.49 3.318 3.318 0 0 0-1.268-.77 5.415 5.415 0 0 0-1.685-.25 4.309 4.309 0 0 0-2.984 1.03 3.443 3.443 0 0 0-1.138 2.67 3.663 3.663 0 0 0 .338 1.67 2.8 2.8 0 0 0 1.86 1.49 3.953 3.953 0 0 0 1.1.14 3.845 3.845 0 0 0 1.268-.18 6.626 6.626 0 0 0 1.1-.52 3.137 3.137 0 0 1-.349 1.11 2.408 2.408 0 0 1-.663.77 2.44 2.44 0 0 1-.882.42 4.079 4.079 0 0 1-1.046.13 3.609 3.609 0 0 1-1.035-.11 4.46 4.46 0 0 1-.585-.2h-.273v2a6.754 6.754 0 0 0 .772.11 10.826 10.826 0 0 0 1.094.06 7.07 7.07 0 0 0 2.5-.4 4.508 4.508 0 0 0 1.8-1.22 4.849 4.849 0 0 0 1-1.86 8.283 8.283 0 0 0 .328-2.38 6.892 6.892 0 0 0-.315-2.22zm-2.314 2.26c-.007.1-.011.17-.011.22a3.713 3.713 0 0 1-.56.16 3.354 3.354 0 0 1-.67.08 3.143 3.143 0 0 1-.708-.08 1.493 1.493 0 0 1-.564-.26 1.293 1.293 0 0 1-.4-.52 1.94 1.94 0 0 1-.144-.8 2.43 2.43 0 0 1 .134-.85 1.686 1.686 0 0 1 .345-.58 1.3 1.3 0 0 1 .468-.31 1.266 1.266 0 0 1 .509-.1 1.662 1.662 0 0 1 .547.1 1.152 1.152 0 0 1 .458.31 2.08 2.08 0 0 1 .441.84 4.868 4.868 0 0 1 .161 1.37c.003.19.003.33-.006.42zm12.233.62a2.694 2.694 0 0 0-.971-.99 4.223 4.223 0 0 0-1.138-.45 6.767 6.767 0 0 0-1.5-.16c-.164 0-.354 0-.571.01s-.395.02-.536.03v-1.67h4.771v-1.94H49.14v5.74h.3c.282-.07.612-.14.988-.21a6.427 6.427 0 0 1 1.179-.11 6.711 6.711 0 0 1 .943.08 2.17 2.17 0 0 1 .889.29 1.368 1.368 0 0 1 .413.42 1.114 1.114 0 0 1 .161.61 1.5 1.5 0 0 1-.12.68 1.96 1.96 0 0 1-.352.43 1.63 1.63 0 0 1-.8.35 4.555 4.555 0 0 1-.933.1 4.487 4.487 0 0 1-1.429-.24 7.353 7.353 0 0 1-1.34-.62h-.287v2.25a6.968 6.968 0 0 0 1.378.42 9.951 9.951 0 0 0 2.068.2 6.591 6.591 0 0 0 1.862-.25 4.313 4.313 0 0 0 1.446-.77 3.22 3.22 0 0 0 .865-1.17 3.609 3.609 0 0 0 .3-1.47 3.191 3.191 0 0 0-.347-1.56z" fill="#fefefe" fill-rule="evenodd"/></svg>