<svg xmlns="http://www.w3.org/2000/svg" width="77" height="81"><path d="M61.183 32.65l-35.529-3.31a2.663 2.663 0 0 0-.561-.02l-1.422-6.88a2.248 2.248 0 0 0-.126-.39 2.017 2.017 0 0 0-1.284-1.18l-6.776-1.99a1.975 1.975 0 1 0-1.112 3.79l5.652 1.67 6.8 32.77a1.965 1.965 0 0 0 1.96 1.71l29.235-.01a1.97 1.97 0 1 0 0-3.94l-27.618.01-.94-4.53h29.073a3.118 3.118 0 0 0 3.119-2.4l2.35-11.85a3.008 3.008 0 0 0-2.821-3.45zM34.402 60.61a3.945 3.945 0 1 1-3.944 3.95 3.948 3.948 0 0 1 3.944-3.95zm18.847 0a3.945 3.945 0 1 1-3.943 3.95 3.948 3.948 0 0 1 3.944-3.95zM31.02 27.81l.447.05 1.4.12 5.756.54.206-2.21a5.441 5.441 0 1 1 10.834 1.02l-.206 2.21 5.755.54 1.834.17a1.221 1.221 0 0 0 1.341-1.11l.184-1.97a1.219 1.219 0 0 0-1.112-1.34l-1.835-.18a11.071 11.071 0 0 0-1.318-4.26l1.422-1.18a1.246 1.246 0 0 0 .16-1.75l-1.261-1.52a1.231 1.231 0 0 0-1.743-.16l-1.433 1.17a11.49 11.49 0 0 0-3.943-2.09l.172-1.83a1.234 1.234 0 0 0-1.112-1.35l-1.972-.18a1.229 1.229 0 0 0-1.342 1.11l-.172 1.84a11.132 11.132 0 0 0-4.264 1.32l-1.181-1.43a1.249 1.249 0 0 0-1.743-.16l-1.525 1.27a1.233 1.233 0 0 0-.16 1.74l1.181 1.42a11.473 11.473 0 0 0-2.087 3.95l-1.834-.18a1.237 1.237 0 0 0-1.342 1.12l-.183 1.97a1.181 1.181 0 0 0 1.076 1.34z" fill="#fff" fill-rule="evenodd"/></svg>