<svg xmlns="http://www.w3.org/2000/svg" width="35.35" height="40"><path d="M15.99 37.9a4.965 4.965 0 0 1-1.42-.02c-.11-.052.13-.3.43-.546.34-.284.03-.575-.14-.723a18.612 18.612 0 0 1-1.58-1.607 1.186 1.186 0 0 0-.97-.42 16.254 16.254 0 0 1-2.12-.012 3.5 3.5 0 0 1 1.05-.994.818.818 0 0 0 .15-1.146 20.908 20.908 0 0 1-1.24-2.38.9.9 0 0 0-.84-.51c-.84-.012-1.78.045-1.91-.015a5.615 5.615 0 0 1 1.37-1.355 1.044 1.044 0 0 0 .28-1.138c-.23-.961-.49-1.932-.65-2.941a.817.817 0 0 0-.8-.727 9.6 9.6 0 0 1-1.64-.022 5.72 5.72 0 0 1 1.49-1.343 1.2 1.2 0 0 0 .65-1.15c.02-.244-.02-.491-.02-.738a19.93 19.93 0 0 1 .13-2.457c.09-.745-.36-.9-.61-.884a10 10 0 0 1-1.65.023 9.022 9.022 0 0 1 2.05-1.5 1.694 1.694 0 0 0 .79-1.054c.27-.93.51-1.861.85-2.739a.606.606 0 0 0-.65-.919 10.409 10.409 0 0 1-1.62 0 9.837 9.837 0 0 1 2.6-1.414 2.743 2.743 0 0 0 1.38-1.207c.4-.627.83-1.22 1.24-1.818s-.04-.666-.31-.666a17.627 17.627 0 0 1-2.04 0 15.891 15.891 0 0 1 3.43-1.263 2.838 2.838 0 0 0 1.24-.623c.46-.377.89-.781 1.37-1.117.43-.3.08-.359-.11-.363-1.12-.015-2.13.082-2.3 0a23.442 23.442 0 0 1 4.03-.7A20.936 20.936 0 0 1 21.86.007c-.3 0-.55 0-.65.01h-6.67c-.37.047-1.98-.022-2.27 0a6.6 6.6 0 0 0-2 .449c-.48.192-.64.806-.31.936a5.71 5.71 0 0 1 1.56.7 24.5 24.5 0 0 1-3.09-.079 2.537 2.537 0 0 0-1.34.12 5.422 5.422 0 0 0-1.1 1.015.619.619 0 0 0 .05.962c.35.16 2.03 1.281 1.8 1.393a18.161 18.161 0 0 1-3.1.208 1.017 1.017 0 0 0-1.09.3 11.073 11.073 0 0 0-1.06 1.978 1.016 1.016 0 0 0 .11 1.155 13.737 13.737 0 0 1 2.35 1.41 24.516 24.516 0 0 0-2.99.29.7.7 0 0 0-.83.426 15.95 15.95 0 0 0-.63 2.508.984.984 0 0 0 .41 1.069 19.133 19.133 0 0 1 2.62 1.906c-.43-.025-2.66.506-3 .512a.643.643 0 0 0-.59.712A13.33 13.33 0 0 0 0 19.664c0 .3.01.609.02.909a1.417 1.417 0 0 0 .77 1.095c.51.24 3.1 1.512 2.87 1.629-.19.095-2.53.384-2.77.392-.55.017-.62.561-.55 1.006a14.423 14.423 0 0 0 .46 2.388 1.085 1.085 0 0 0 .65.706c.29.1 3.96 1.591 3.72 1.708a23.214 23.214 0 0 1-2.73.53c-.46.025-.41.678-.2 1.154a7.471 7.471 0 0 0 .73 1.516 1.845 1.845 0 0 0 .72.5 31.493 31.493 0 0 1 4.23 1.349c-.2.1-2.42.2-2.83.227s-.36.64-.13.921a6.129 6.129 0 0 0 1.11 1.155 2.993 2.993 0 0 0 1.28.337 38.578 38.578 0 0 1 4.25.725 25.74 25.74 0 0 1-2.79.394c-.41-.019-.08.539.2.681a9.736 9.736 0 0 0 2.21.8.458.458 0 0 0 .09.009c.26 0 1.94.16 2.24.16.38 0 5.53.028 8.05.04a21.09 21.09 0 0 1-4.79-1.906 1.361 1.361 0 0 0-.82-.189zM35.3 18.163a.665.665 0 0 0-.6-.75.035.035 0 0 1-.02.02c-.05-.553-.11-1.1-.19-1.642a.138.138 0 0 0 .02 0 .943.943 0 0 0 .39-1.012 28.078 28.078 0 0 0-.79-3.229 1.192 1.192 0 0 0-.78-.589l-.5-1.23c0-.008.01-.005.02-.011a1.112 1.112 0 0 0 .13-1.147 20.613 20.613 0 0 0-1.45-2.645 1.351 1.351 0 0 0-1.01-.276 9.038 9.038 0 0 0-.61-.785c0-.014.01-.006.02-.02a1.1 1.1 0 0 0-.13-1.152 13.5 13.5 0 0 0-1.95-1.748 3.716 3.716 0 0 0-1.47-.022l-.3-.154a.169.169 0 0 1 .02-.024.941.941 0 0 0-.38-1.02 9.433 9.433 0 0 0-2.23-.642 5.447 5.447 0 0 0-4.95 1.572c1.02.122-1.29 1.746-1.11.794a16.643 16.643 0 0 0-1.9 1.736c.97.094-.85 2.4-1.14 1.333a19.991 19.991 0 0 0-2.06 3.286c.89-.266-.18 2.66-.81 1.835a23.149 23.149 0 0 0-1.18 4.087c.83-.305.44 2.361-.31 1.978a28.854 28.854 0 0 0-.2 3.407c0 .244.01.487.01.729.81-.339 1.2 2.1.13 2.12a25.4 25.4 0 0 0 .74 4.166c.49-.482 1.76 1.633.62 1.968a21.342 21.342 0 0 0 1.52 3.263c.3-.577 1.83 1.309.96 1.5a18.6 18.6 0 0 0 2.23 2.6c.14-.549 1.73.654 1.11.974a16.36 16.36 0 0 0 4.48 2.57l1.34.006a5.8 5.8 0 0 0 1.54-.217 3.633 3.633 0 0 0 .88-1s1.07-.051 1.29-.051a.383.383 0 0 0 .19-.055 12.324 12.324 0 0 0 2.04-1.508 1.094 1.094 0 0 0 .19-1.13l-.02-.018a7.957 7.957 0 0 0 .66-.726 6.255 6.255 0 0 0 .66.061.449.449 0 0 0 .35-.2 17.83 17.83 0 0 0 1.59-2.459 1.143 1.143 0 0 0-.07-1.16.2.2 0 0 0-.03-.014c.22-.446.38-.744.58-1.221.01.008.24-.022.34-.022a.549.549 0 0 0 .47-.416 27.409 27.409 0 0 0 .95-3.123.994.994 0 0 0-.33-1.056h-.02c.11-.529.2-1.069.28-1.615a.015.015 0 0 1 .01.016.561.561 0 0 0 .1.01.679.679 0 0 0 .54-.684 29.962 29.962 0 0 0 .19-3.428c0-.624-.02-1.234-.05-1.835zM23.04 32.72c-4.2 0-7.6-5.689-7.6-12.7s3.4-12.706 7.6-12.706 7.59 5.688 7.59 12.706-3.39 12.695-7.59 12.695z" fill="#fff" fill-rule="evenodd"/></svg>