<svg xmlns="http://www.w3.org/2000/svg" width="82.875" height="40"><path d="M81.504 0H23.476a1.5 1.5 0 0 0-1.382 1.591V19.31a1.38 1.38 0 0 0 1.382 1.379h58.028a1.38 1.38 0 0 0 1.382-1.379V1.6A1.5 1.5 0 0 0 81.504 0zm0 23.444H42.818a1.38 1.38 0 0 0-1.381 1.378V33a1.378 1.378 0 0 0 1.376 1.5h4.151a5.526 5.526 0 0 0 11.052-.013h8.289a5.527 5.527 0 0 0 11.053 0h4.145a1.381 1.381 0 0 0 1.382-1.379v-8.275a1.38 1.38 0 0 0-1.381-1.385zM52.49 37.234a2.758 2.758 0 1 1 2.763-2.758 2.763 2.763 0 0 1-2.763 2.762zm19.343 0a2.758 2.758 0 1 1 2.763-2.758 2.764 2.764 0 0 1-2.759 2.762zm-34.541-13.79h-16.58a1.381 1.381 0 0 1-1.381-1.38V8.274a1.381 1.381 0 0 0-1.382-1.379H6.896a1.381 1.381 0 0 0-1.283.867L.087 21.55a67.03 67.03 0 0 1-.1.514v13.791a1.381 1.381 0 0 0 1.381 1.379h4.914a5.511 5.511 0 0 0 10.285-2.758h5.526a5.527 5.527 0 0 0 11.053 0h4.145a1.381 1.381 0 0 0 1.382-1.379v-8.275a1.38 1.38 0 0 0-1.381-1.374zM4.451 20.685a.689.689 0 0 1-.637-.957l2.9-6.9a.69.69 0 0 1 .636-.422h4.387a.691.691 0 0 1 .691.689v6.9a.691.691 0 0 1-.691.689H4.456zm6.59 16.549a2.758 2.758 0 1 1 2.763-2.758 2.763 2.763 0 0 1-2.767 2.762zm16.58 0a2.758 2.758 0 1 1 2.763-2.758 2.764 2.764 0 0 1-2.763 2.762z" fill="#fff" fill-rule="evenodd"/></svg>