<svg xmlns="http://www.w3.org/2000/svg" width="49.031" height="40"><path d="M40.837 29.388a2.45 2.45 0 1 0 2.451 2.449 2.452 2.452 0 0 0-2.451-2.449zm7.352 0h-.1a10.552 10.552 0 0 0-.68-1.366.817.817 0 0 0 0-1.155l-1.6-1.6a.841.841 0 0 0-1.155 0 10.407 10.407 0 0 0-1.367-.678v-.1a.816.816 0 0 0-.817-.816h-3.267a.816.816 0 0 0-.817.816v.1a10.407 10.407 0 0 0-1.367.678.817.817 0 0 0-1.155 0l-1.6 1.6a.817.817 0 0 0 0 1.155 10.7 10.7 0 0 0-.681 1.366h-.1a.817.817 0 0 0-.817.817v3.265a.816.816 0 0 0 .817.816h.1a10.631 10.631 0 0 0 .681 1.366.817.817 0 0 0 0 1.155l1.6 1.6a.818.818 0 0 0 1.155 0 10.3 10.3 0 0 0 1.367.679v.1a.816.816 0 0 0 .817.816h3.267a.816.816 0 0 0 .817-.816v-.1a10.3 10.3 0 0 0 1.367-.679.818.818 0 0 0 1.155 0l1.6-1.6a.817.817 0 0 0 0-1.155 10.489 10.489 0 0 0 .68-1.366h.1a.816.816 0 0 0 .817-.816v-3.265a.817.817 0 0 0-.817-.817zm-7.352 6.531a4.082 4.082 0 1 1 4.085-4.082 4.087 4.087 0 0 1-4.085 4.082zM7.346 29.388a3.266 3.266 0 1 0 3.268 3.266 3.27 3.27 0 0 0-3.268-3.266zM37.57 4.9h6.535v8.163H37.57V4.9zm-4.412 20.87a9.971 9.971 0 0 1 1.5-1.528c.08-.065.166-.123.248-.185.185-.142.373-.28.566-.407.129-.085.263-.162.395-.24.159-.094.318-.186.482-.271.147-.076.3-.147.447-.215s.328-.143.5-.208c.151-.059.3-.116.458-.168a9.47 9.47 0 0 1 .553-.161c.146-.04.291-.08.439-.113a9.76 9.76 0 0 1 .663-.114c.122-.018.242-.043.367-.056a9.831 9.831 0 0 1 1.062-.06 9.896 9.896 0 0 1 1.629.143c.126.021.254.041.38.067.1.021.192.048.289.071a9.77 9.77 0 0 1 1 .3c.024.01.049.017.073.026a9.951 9.951 0 0 1 1.835.9c.011.007.025.007.037.013a9.953 9.953 0 0 1 1.54 1.2.817.817 0 1 0 1.131-1.178 11.429 11.429 0 0 0-1.261-1.032l1.452-3.466a.805.805 0 0 0 .063-.315V.813a.817.817 0 0 0-.817-.817H25.317a.817.817 0 0 0-.817.817v2.449h8.985a.816.816 0 0 1 .817.816v9.8a.816.816 0 0 1-.817.816H19.599v-4.9a.816.816 0 0 0-.817-.816h-.817v-2.45a1.635 1.635 0 0 1 1.634-1.632.817.817 0 1 0 0-1.633 3.27 3.27 0 0 0-3.267 3.265v2.45h-.817a.816.816 0 0 0-.817.816v4.9H6.529a4.087 4.087 0 0 0-4.084 4.082v8.418a7.343 7.343 0 1 0 12.063 7.094h15.164a11.421 11.421 0 0 0 .608 1.952.819.819 0 0 0 .754.5.835.835 0 0 0 .315-.063.816.816 0 0 0 .439-1.068 9.745 9.745 0 0 1-.625-2.253.045.045 0 0 0 0-.011 10.122 10.122 0 0 1-.129-1.508 10.233 10.233 0 0 1 .129-1.508 9.819 9.819 0 0 1 1.234-3.451l.067-.109a9.483 9.483 0 0 1 .615-.9c.027-.032.052-.069.079-.102zm2.779-21.69a.816.816 0 0 1 .817-.816h8.168a.816.816 0 0 1 .817.816v9.8a.816.816 0 0 1-.817.816h-8.168a.816.816 0 0 1-.817-.816v-9.8zM23.684 26.123h4.085a.816.816 0 1 1 0 1.632h-4.085a.816.816 0 1 1-.001-1.632zm-7.352-5.715v-9.8h1.634v12.246h-1.634v-2.449zm-3.317 12.961a5.715 5.715 0 1 1-9.2-5.2 5.855 5.855 0 0 1 .72-.485c.023-.013.044-.028.066-.04a5.548 5.548 0 0 1 .751-.338c.061-.023.121-.047.183-.067a5.56 5.56 0 0 1 .776-.2c.058-.011.117-.018.176-.027a5.726 5.726 0 0 1 .861-.072 5.859 5.859 0 0 1 .764.057c.068.009.136.02.2.031a5.677 5.677 0 0 1 .641.146c.051.015.1.029.152.046a5.759 5.759 0 0 1 .585.228 6.127 6.127 0 0 1 .682.367c.113.071.223.146.331.225a5.356 5.356 0 0 1 .598.498 5.476 5.476 0 0 1 .4.429c.047.056.092.114.137.171a5.876 5.876 0 0 1 .358.514c.031.049.062.1.09.149a5.862 5.862 0 0 1 .348.7c.011.028.019.055.031.083.055.144.107.287.151.434.013.044.022.089.035.133.036.131.071.262.1.395.016.083.025.168.038.251.015.1.033.195.043.294.018.185.028.372.028.562a5.639 5.639 0 0 1-.046.716zM4.08 19.592v-.817a2.452 2.452 0 0 1 2.45-2.449h8.169v3.266H4.079zm25.357 13.062H14.698a7.655 7.655 0 0 0-.044-.791c-.009-.071-.023-.142-.033-.213a6.084 6.084 0 0 0-.1-.571c0-.02-.006-.039-.011-.058h14.927a9.258 9.258 0 0 0 0 1.633zm.782-8.164h-4.082a.817.817 0 1 1 0-1.633h4.084a.817.817 0 1 1-.003 1.633zM24.5 4.9h8.169v8.163H24.5V4.9z" fill="#fff" fill-rule="evenodd"/></svg>