<svg xmlns="http://www.w3.org/2000/svg" width="27.12" height="40"><path d="M26.83 18.725l-.08-.1-.02-.019L15.55 5.045l-.31-.374a1.236 1.236 0 0 0-.82-.3h-3.87V3.42H4.53v.943H1.3A1.29 1.29 0 0 0 .01 5.655v33.053A1.29 1.29 0 0 0 1.3 40h24.52a1.29 1.29 0 0 0 1.29-1.292V19.514a1.2 1.2 0 0 0-.28-.789zm-4.15 17.1H4.02V22.182h18.66v13.645zm-6.22-17.354l-.75-9.3 7.21 9.045.4.5zm-.91-13.432l-.31-.375a1.123 1.123 0 0 1 .31.377zM11.06 2.77H4.02V0h7.04v2.773zm5.18 26.18l-.05-.077-2.62-4.684-2.78 4.936a3.048 3.048 0 0 0-.39 1.531 3.165 3.165 0 1 0 5.84-1.704zm-3.31 3.916c-.22.3-.65.032-.91-.11a1.527 1.527 0 0 1-.86-1.085c.09-.6.69-.195 1.03.089a1.929 1.929 0 0 1 .74 1.108z" fill="#fff" fill-rule="evenodd"/></svg>