<svg xmlns="http://www.w3.org/2000/svg" width="236" height="126"><path d="M218.61 60.5h-71.96L122.09 0l-4.51 11.307-19.64 49.2H20.96L0 109.363l117.58 16.162 3.43.476L236 109.363zm-97.94 51.44l-3.09-.1-110.75-3.9 17.7-40.541h73l20.05-51.2 4.51-11.476 24.5 62.678h68.04l13.73 40.541zm99.7-20.3l-7.16-3.294 3.94-5.4-3.6-12.664H156.4l5.81 12.257h32.21L190 88.345l5.54 5.127h-44.16l-29.29-82.61-4.51 11.748-24.33 63.63H82.31l-3.19-15.958H59.59L50.24 83.32l-7.23-13.038H26.09l-15.36 35.141h16.38l7.17-11.951 5.4 11.951h20.65l6.49-12.7 6.49 12.7h30.78l6.15-7.6 7.34 4.72 4.51 2.885 10.77-7.6 5.88 7.6h86.36zm-98.28-2.547l-4.51-3.158-4.83-3.395 4.83-11.409 4.51-10.627 9.07 22.036z" fill="#e42328" fill-rule="evenodd"/></svg>