<svg xmlns="http://www.w3.org/2000/svg" width="15" height="16"><path d="M14.729 1.07h-1.874v-.8a.266.266 0 0 0-.267-.27h-1.874a.268.268 0 0 0-.267.27v.8h-5.89v-.8A.265.265 0 0 0 4.292 0H2.416a.267.267 0 0 0-.268.27v.8H.275a.263.263 0 0 0-.268.25v14.41a.266.266 0 0 0 .267.27h14.455a.267.267 0 0 0 .268-.27V1.33a.263.263 0 0 0-.261-.26h-.007zM10.981.53h1.339v1.6h-1.338V.53zm-8.3 0H4.02v1.6H2.683V.53zM.54 1.6h1.606v.8a.266.266 0 0 0 .267.27h1.876a.268.268 0 0 0 .267-.27v-.8h5.89v.8a.265.265 0 0 0 .265.27h1.876a.267.267 0 0 0 .268-.27v-.8h1.606V4H.541V1.6zm0 13.87V4.53h13.92v10.94H.54zm9.1-9.34H2.413v7.74h10.172V6.13H9.64zm-1.874.54H9.64v1.86H7.766V6.67zm1.874 4.26H7.766V9.07H9.64v1.86zM5.356 9.07H7.23v1.86H5.356V9.07zm0-2.4H7.23v1.86H5.356V6.67zm-2.409 0h1.874v1.86H2.95V6.67zm0 2.4h1.874v1.86H2.95V9.07zm1.874 4.26H2.95v-1.86h1.874v1.86zm2.409 0H5.356v-1.86H7.23v1.86zm2.409 0H7.765v-1.86h1.874v1.86zm2.409 0h-1.874v-1.86h1.874v1.86zm0-2.4h-1.874V9.07h1.874v1.86zm0-4.26v1.86h-1.874V6.67h1.874z" fill="#fff" fill-rule="evenodd"/></svg>