<svg xmlns="http://www.w3.org/2000/svg" width="77" height="81"><path d="M52.093 48.43l-7.188-7.2a10.076 10.076 0 0 0-9.268-14.01 9.908 9.908 0 0 0-2.653.36 1.126 1.126 0 0 0-.788.79 1.112 1.112 0 0 0 .316 1.09s3.548 3.58 4.735 4.77a.743.743 0 0 1 .107.53l-.011.08a23.026 23.026 0 0 1-.541 3.48.484.484 0 0 0-.076.07c-.027.03-.052.05-.079.08a21.973 21.973 0 0 1-3.526.55v-.01l-.06.02h-.056a.763.763 0 0 1-.546-.23c-1.236-1.24-4.645-4.63-4.645-4.63a1.183 1.183 0 0 0-.829-.37 1.124 1.124 0 0 0-1.061.86 10.113 10.113 0 0 0 2.6 9.76 10.094 10.094 0 0 0 11.046 2.16l7.266 7.27m-.221-27.22c1.374.78 2.666 1.61 3.92 2.45a40.82 40.82 0 0 0-1.822-6.03 40.383 40.383 0 0 0-6.25 1.45 57.08 57.08 0 0 1 4.149 2.13zM18.073 40.49a40.49 40.49 0 0 0 4.4 4.62c-.116-1.51-.2-3.04-.2-4.62s.081-3.1.2-4.61a40.6 40.6 0 0 0-4.403 4.61zM51.78 22.75a45.413 45.413 0 0 1 2.274 8.89 45.559 45.559 0 0 1 6.67 6.39c2.952-4.53 3.689-8.56 2.049-11.36-1.5-2.56-4.972-3.97-9.777-3.97-.396 0-.814.03-1.219.05zm7.144 17.75a40.991 40.991 0 0 0-4.388-4.58c.113 1.49.192 3.01.192 4.57 0 1.58-.081 3.11-.2 4.62a40.333 40.333 0 0 0 4.393-4.61zM38.5 58.19a47.887 47.887 0 0 1-8.94 2.5c2.381 4.59 5.532 7.46 8.94 7.46s6.559-2.87 8.938-7.46a47.911 47.911 0 0 1-8.938-2.5zm-13.277.05a45.6 45.6 0 0 1-2.276-8.89 46.4 46.4 0 0 1-6.657-6.42c-2.963 4.54-3.7 8.58-2.06 11.39 1.5 2.56 4.969 3.97 9.775 3.97.395 0 .811-.04 1.218-.05zm-2.274-26.6a45.6 45.6 0 0 1 2.274-8.89c-.405-.02-.822-.05-1.218-.05-4.8 0-8.277 1.41-9.775 3.97-1.644 2.81-.9 6.85 2.06 11.39a46.416 46.416 0 0 1 6.659-6.42zM38.5 22.8a48.746 48.746 0 0 1 8.938-2.51c-2.379-4.58-5.527-7.45-8.938-7.45s-6.559 2.87-8.94 7.46a47.887 47.887 0 0 1 8.94 2.5zm-8.113 31.56a55.889 55.889 0 0 1-3.92-2.46 40.475 40.475 0 0 0 1.824 6.04 41.575 41.575 0 0 0 6.248-1.45c-1.394-.66-2.785-1.35-4.152-2.13zm-3.944 6.73c-.828.07-1.644.11-2.436.11a19.065 19.065 0 0 1-7.512-1.36 29.515 29.515 0 0 0 16.117 9.18 20.446 20.446 0 0 1-6.169-7.93zm-2.438-41.3c.792 0 1.607.04 2.438.1a20.5 20.5 0 0 1 6.169-7.92 29.517 29.517 0 0 0-16.115 9.18 19.054 19.054 0 0 1 7.508-1.36zM13.988 41.07c.129-.19.285-.38.418-.58-.135-.19-.289-.38-.416-.57a19.642 19.642 0 0 1-3.466-8.61 28.458 28.458 0 0 0 0 18.37 19.618 19.618 0 0 1 3.464-8.61zM52.994 61.2c-.791 0-1.6-.04-2.435-.11a20.474 20.474 0 0 1-6.169 7.93 29.53 29.53 0 0 0 16.12-9.18 19.082 19.082 0 0 1-7.516 1.36zm9.776-6.88c1.706-2.92.763-7.04-2.076-11.37a46.7 46.7 0 0 1-6.641 6.4 45.74 45.74 0 0 1-2.274 8.89c.4.01.82.05 1.215.05 4.806 0 8.278-1.41 9.776-3.97zm-16.158.04a57.266 57.266 0 0 1-4.148 2.13 40.232 40.232 0 0 0 6.246 1.45 40.461 40.461 0 0 0 1.824-6.03 64.375 64.375 0 0 1-3.922 2.45zM30.385 26.63a56.533 56.533 0 0 1 4.152-2.13 39.192 39.192 0 0 0-6.246-1.45 40.7 40.7 0 0 0-1.824 6.03c1.261-.85 2.56-1.68 3.918-2.45zm20.172-6.74c.828-.06 1.644-.1 2.436-.1a19.077 19.077 0 0 1 7.513 1.36 29.519 29.519 0 0 0-16.116-9.18 20.507 20.507 0 0 1 6.167 7.92zM66.475 31.3a19.572 19.572 0 0 1-3.467 8.62c-.124.18-.278.37-.409.56a20.293 20.293 0 0 1 3.876 9.21 28.483 28.483 0 0 0 0-18.39z" fill="#fff" fill-rule="evenodd"/></svg>