<svg xmlns="http://www.w3.org/2000/svg" width="20" height="20"><path d="M15.21 13.23a1.41 1.41 0 0 0-2.12 0c-.5.49-.99.98-1.48 1.48a.3.3 0 0 1-.41.08c-.32-.18-.66-.32-.97-.51a15.221 15.221 0 0 1-3.7-3.37A8.858 8.858 0 0 1 5.2 8.78a.3.3 0 0 1 .07-.39c.5-.48.98-.97 1.47-1.46a1.4 1.4 0 0 0-.01-2.17c-.38-.39-.77-.78-1.16-1.17s-.79-.8-1.2-1.2a1.418 1.418 0 0 0-2.12.01c-.5.49-.97.99-1.48 1.48A2.4 2.4 0 0 0 .01 5.5a6.842 6.842 0 0 0 .53 2.97 18.241 18.241 0 0 0 3.2 5.34 19.811 19.811 0 0 0 6.57 5.13A9.45 9.45 0 0 0 13.94 20a2.687 2.687 0 0 0 2.29-.87c.42-.48.9-.91 1.35-1.36a1.419 1.419 0 0 0 .01-2.16c-.79-.8-1.59-1.59-2.38-2.38zm-.8-3.32l1.54-.26a6.92 6.92 0 0 0-5.83-5.66L9.9 5.54a5.323 5.323 0 0 1 4.51 4.37zm2.41-6.67A11.282 11.282 0 0 0 10.32 0l-.22 1.54a9.881 9.881 0 0 1 8.37 8.11l1.54-.27a11.418 11.418 0 0 0-3.19-6.14z" fill="#333" fill-rule="evenodd"/></svg>