<svg xmlns="http://www.w3.org/2000/svg" width="76.699" height="16.517" viewBox="0.01 32.233 76.699 16.517"><path d="M7.23 48.74a8.248 8.248 0 0 0 5.17-1.51 4.72 4.72 0 0 0 1.97-3.931 4.452 4.452 0 0 0-.81-2.67 4.356 4.356 0 0 0-2.02-1.6 28.875 28.875 0 0 0-4.07-1.07 4.543 4.543 0 0 1-1.41-.47.8.8 0 0 1-.36-.69c0-.67.53-1 1.6-1a2.495 2.495 0 0 1 2.57 1.61l4.06-1.23c-1.04-2.62-3.2-3.93-6.45-3.93a7.279 7.279 0 0 0-4.94 1.5 4.768 4.768 0 0 0-1.72 3.76 4.337 4.337 0 0 0 1.2 3.06c.79.87 2.59 1.573 5.4 2.11a4.737 4.737 0 0 1 1.53.51.925.925 0 0 1 .43.8c0 .66-.62.99-1.86.99a2.712 2.712 0 0 1-2.95-1.939l-4.56.82c.92 3.25 3.327 4.877 7.22 4.88zm8.68-4.53v4.28h4.46v-4.28h-4.46zm6.93-11.71v15.99h4.91V32.5h-4.91zm7.37 11.71v4.28h4.45v-4.28h-4.45zm11.839.36V32.5H37.14v15.99h11.21v-3.92h-6.301zm7.681-.36v4.28h4.46v-4.28h-4.46zm20.761 4.28L65.47 32.5h-5.19l-4.94 15.99h3.99l.959-3.15h4.291l.9 3.15h5.011zM62.42 37.21l1.289 4.64H61.13l1.29-4.64zm9.84 7v4.28h4.449v-4.28H72.26z"/></svg>