<svg xmlns="http://www.w3.org/2000/svg" width="20" height="20"><path d="M19.33 17.07c-.88-1.2-5.32-.7-6-2.07-1.34-2.71-.79-2.21.08-2.88.83-.63.79-2.29 1.29-2.88a4.376 4.376 0 0 0 .55-2.95c-.25-.86-.64-.39-.7-1.04-.13-1.39.22-2.54-.56-3.22-.76-.65-1.71-2.01-3.25-2.02a3.6 3.6 0 0 0-1.85.55C5.56.21 5.58 3.86 5.45 5.25c-.06.65-.45.18-.7 1.04a4.376 4.376 0 0 0 .55 2.95c.5.59.46 2.25 1.29 2.88.87.67 1.42.17.08 2.88-.68 1.37-5.13.87-6 2.07A6.336 6.336 0 0 0 0 20h20a6.336 6.336 0 0 0-.67-2.93z" fill="#333" fill-rule="evenodd"/></svg>